<?xml version="1.0" encoding="utf-8" standalone="no"?>
<!DOCTYPE svg PUBLIC "-//W3C//DTD SVG 1.1//EN"
  "http://www.w3.org/Graphics/SVG/1.1/DTD/svg11.dtd">
<svg xmlns:xlink="http://www.w3.org/1999/xlink" width="416.052813pt" height="325.986375pt" viewBox="0 0 416.052813 325.986375" xmlns="http://www.w3.org/2000/svg" version="1.1">
 <metadata>
  <rdf:RDF xmlns:dc="http://purl.org/dc/elements/1.1/" xmlns:cc="http://creativecommons.org/ns#" xmlns:rdf="http://www.w3.org/1999/02/22-rdf-syntax-ns#">
   <cc:Work>
    <dc:type rdf:resource="http://purl.org/dc/dcmitype/StillImage"/>
    <dc:date>2022-11-25T19:24:29.394858</dc:date>
    <dc:format>image/svg+xml</dc:format>
    <dc:creator>
     <cc:Agent>
      <dc:title>Matplotlib v3.6.1, https://matplotlib.org/</dc:title>
     </cc:Agent>
    </dc:creator>
   </cc:Work>
  </rdf:RDF>
 </metadata>
 <defs>
  <style type="text/css">*{stroke-linejoin: round; stroke-linecap: butt}</style>
 </defs>
 <g id="figure_1">
  <g id="patch_1">
   <path d="M 0 325.986375 
L 416.052813 325.986375 
L 416.052813 0 
L 0 0 
z
" style="fill: #ffffff"/>
  </g>
  <g id="axes_1">
   <g id="patch_2">
    <path d="M 43.78125 288.430125 
L 400.90125 288.430125 
L 400.90125 22.318125 
L 43.78125 22.318125 
z
" style="fill: #ffffff"/>
   </g>
   <g id="matplotlib.axis_1">
    <g id="xtick_1">
     <g id="line2d_1">
      <defs>
       <path id="m4aeffc29e7" d="M 0 0 
L 0 3.5 
" style="stroke: #000000; stroke-width: 0.8"/>
      </defs>
      <g>
       <use xlink:href="#m4aeffc29e7" x="43.78125" y="288.430125" style="stroke: #000000; stroke-width: 0.8"/>
      </g>
     </g>
     <g id="text_1">
      <!-- 0.0 -->
      <g transform="translate(35.829688 303.028562) scale(0.1 -0.1)">
       <defs>
        <path id="DejaVuSans-30" d="M 2034 4250 
Q 1547 4250 1301 3770 
Q 1056 3291 1056 2328 
Q 1056 1369 1301 889 
Q 1547 409 2034 409 
Q 2525 409 2770 889 
Q 3016 1369 3016 2328 
Q 3016 3291 2770 3770 
Q 2525 4250 2034 4250 
z
M 2034 4750 
Q 2819 4750 3233 4129 
Q 3647 3509 3647 2328 
Q 3647 1150 3233 529 
Q 2819 -91 2034 -91 
Q 1250 -91 836 529 
Q 422 1150 422 2328 
Q 422 3509 836 4129 
Q 1250 4750 2034 4750 
z
" transform="scale(0.015625)"/>
        <path id="DejaVuSans-2e" d="M 684 794 
L 1344 794 
L 1344 0 
L 684 0 
L 684 794 
z
" transform="scale(0.015625)"/>
       </defs>
       <use xlink:href="#DejaVuSans-30"/>
       <use xlink:href="#DejaVuSans-2e" x="63.623047"/>
       <use xlink:href="#DejaVuSans-30" x="95.410156"/>
      </g>
     </g>
    </g>
    <g id="xtick_2">
     <g id="line2d_2">
      <g>
       <use xlink:href="#m4aeffc29e7" x="115.20525" y="288.430125" style="stroke: #000000; stroke-width: 0.8"/>
      </g>
     </g>
     <g id="text_2">
      <!-- 0.2 -->
      <g transform="translate(107.253688 303.028562) scale(0.1 -0.1)">
       <defs>
        <path id="DejaVuSans-32" d="M 1228 531 
L 3431 531 
L 3431 0 
L 469 0 
L 469 531 
Q 828 903 1448 1529 
Q 2069 2156 2228 2338 
Q 2531 2678 2651 2914 
Q 2772 3150 2772 3378 
Q 2772 3750 2511 3984 
Q 2250 4219 1831 4219 
Q 1534 4219 1204 4116 
Q 875 4013 500 3803 
L 500 4441 
Q 881 4594 1212 4672 
Q 1544 4750 1819 4750 
Q 2544 4750 2975 4387 
Q 3406 4025 3406 3419 
Q 3406 3131 3298 2873 
Q 3191 2616 2906 2266 
Q 2828 2175 2409 1742 
Q 1991 1309 1228 531 
z
" transform="scale(0.015625)"/>
       </defs>
       <use xlink:href="#DejaVuSans-30"/>
       <use xlink:href="#DejaVuSans-2e" x="63.623047"/>
       <use xlink:href="#DejaVuSans-32" x="95.410156"/>
      </g>
     </g>
    </g>
    <g id="xtick_3">
     <g id="line2d_3">
      <g>
       <use xlink:href="#m4aeffc29e7" x="186.62925" y="288.430125" style="stroke: #000000; stroke-width: 0.8"/>
      </g>
     </g>
     <g id="text_3">
      <!-- 0.4 -->
      <g transform="translate(178.677688 303.028562) scale(0.1 -0.1)">
       <defs>
        <path id="DejaVuSans-34" d="M 2419 4116 
L 825 1625 
L 2419 1625 
L 2419 4116 
z
M 2253 4666 
L 3047 4666 
L 3047 1625 
L 3713 1625 
L 3713 1100 
L 3047 1100 
L 3047 0 
L 2419 0 
L 2419 1100 
L 313 1100 
L 313 1709 
L 2253 4666 
z
" transform="scale(0.015625)"/>
       </defs>
       <use xlink:href="#DejaVuSans-30"/>
       <use xlink:href="#DejaVuSans-2e" x="63.623047"/>
       <use xlink:href="#DejaVuSans-34" x="95.410156"/>
      </g>
     </g>
    </g>
    <g id="xtick_4">
     <g id="line2d_4">
      <g>
       <use xlink:href="#m4aeffc29e7" x="258.05325" y="288.430125" style="stroke: #000000; stroke-width: 0.8"/>
      </g>
     </g>
     <g id="text_4">
      <!-- 0.6 -->
      <g transform="translate(250.101688 303.028562) scale(0.1 -0.1)">
       <defs>
        <path id="DejaVuSans-36" d="M 2113 2584 
Q 1688 2584 1439 2293 
Q 1191 2003 1191 1497 
Q 1191 994 1439 701 
Q 1688 409 2113 409 
Q 2538 409 2786 701 
Q 3034 994 3034 1497 
Q 3034 2003 2786 2293 
Q 2538 2584 2113 2584 
z
M 3366 4563 
L 3366 3988 
Q 3128 4100 2886 4159 
Q 2644 4219 2406 4219 
Q 1781 4219 1451 3797 
Q 1122 3375 1075 2522 
Q 1259 2794 1537 2939 
Q 1816 3084 2150 3084 
Q 2853 3084 3261 2657 
Q 3669 2231 3669 1497 
Q 3669 778 3244 343 
Q 2819 -91 2113 -91 
Q 1303 -91 875 529 
Q 447 1150 447 2328 
Q 447 3434 972 4092 
Q 1497 4750 2381 4750 
Q 2619 4750 2861 4703 
Q 3103 4656 3366 4563 
z
" transform="scale(0.015625)"/>
       </defs>
       <use xlink:href="#DejaVuSans-30"/>
       <use xlink:href="#DejaVuSans-2e" x="63.623047"/>
       <use xlink:href="#DejaVuSans-36" x="95.410156"/>
      </g>
     </g>
    </g>
    <g id="xtick_5">
     <g id="line2d_5">
      <g>
       <use xlink:href="#m4aeffc29e7" x="329.47725" y="288.430125" style="stroke: #000000; stroke-width: 0.8"/>
      </g>
     </g>
     <g id="text_5">
      <!-- 0.8 -->
      <g transform="translate(321.525688 303.028562) scale(0.1 -0.1)">
       <defs>
        <path id="DejaVuSans-38" d="M 2034 2216 
Q 1584 2216 1326 1975 
Q 1069 1734 1069 1313 
Q 1069 891 1326 650 
Q 1584 409 2034 409 
Q 2484 409 2743 651 
Q 3003 894 3003 1313 
Q 3003 1734 2745 1975 
Q 2488 2216 2034 2216 
z
M 1403 2484 
Q 997 2584 770 2862 
Q 544 3141 544 3541 
Q 544 4100 942 4425 
Q 1341 4750 2034 4750 
Q 2731 4750 3128 4425 
Q 3525 4100 3525 3541 
Q 3525 3141 3298 2862 
Q 3072 2584 2669 2484 
Q 3125 2378 3379 2068 
Q 3634 1759 3634 1313 
Q 3634 634 3220 271 
Q 2806 -91 2034 -91 
Q 1263 -91 848 271 
Q 434 634 434 1313 
Q 434 1759 690 2068 
Q 947 2378 1403 2484 
z
M 1172 3481 
Q 1172 3119 1398 2916 
Q 1625 2713 2034 2713 
Q 2441 2713 2670 2916 
Q 2900 3119 2900 3481 
Q 2900 3844 2670 4047 
Q 2441 4250 2034 4250 
Q 1625 4250 1398 4047 
Q 1172 3844 1172 3481 
z
" transform="scale(0.015625)"/>
       </defs>
       <use xlink:href="#DejaVuSans-30"/>
       <use xlink:href="#DejaVuSans-2e" x="63.623047"/>
       <use xlink:href="#DejaVuSans-38" x="95.410156"/>
      </g>
     </g>
    </g>
    <g id="xtick_6">
     <g id="line2d_6">
      <g>
       <use xlink:href="#m4aeffc29e7" x="400.90125" y="288.430125" style="stroke: #000000; stroke-width: 0.8"/>
      </g>
     </g>
     <g id="text_6">
      <!-- 1.0 -->
      <g transform="translate(392.949688 303.028562) scale(0.1 -0.1)">
       <defs>
        <path id="DejaVuSans-31" d="M 794 531 
L 1825 531 
L 1825 4091 
L 703 3866 
L 703 4441 
L 1819 4666 
L 2450 4666 
L 2450 531 
L 3481 531 
L 3481 0 
L 794 0 
L 794 531 
z
" transform="scale(0.015625)"/>
       </defs>
       <use xlink:href="#DejaVuSans-31"/>
       <use xlink:href="#DejaVuSans-2e" x="63.623047"/>
       <use xlink:href="#DejaVuSans-30" x="95.410156"/>
      </g>
     </g>
    </g>
    <g id="text_7">
     <!-- False Positive Rate -->
     <g transform="translate(175.874844 316.706687) scale(0.1 -0.1)">
      <defs>
       <path id="DejaVuSans-46" d="M 628 4666 
L 3309 4666 
L 3309 4134 
L 1259 4134 
L 1259 2759 
L 3109 2759 
L 3109 2228 
L 1259 2228 
L 1259 0 
L 628 0 
L 628 4666 
z
" transform="scale(0.015625)"/>
       <path id="DejaVuSans-61" d="M 2194 1759 
Q 1497 1759 1228 1600 
Q 959 1441 959 1056 
Q 959 750 1161 570 
Q 1363 391 1709 391 
Q 2188 391 2477 730 
Q 2766 1069 2766 1631 
L 2766 1759 
L 2194 1759 
z
M 3341 1997 
L 3341 0 
L 2766 0 
L 2766 531 
Q 2569 213 2275 61 
Q 1981 -91 1556 -91 
Q 1019 -91 701 211 
Q 384 513 384 1019 
Q 384 1609 779 1909 
Q 1175 2209 1959 2209 
L 2766 2209 
L 2766 2266 
Q 2766 2663 2505 2880 
Q 2244 3097 1772 3097 
Q 1472 3097 1187 3025 
Q 903 2953 641 2809 
L 641 3341 
Q 956 3463 1253 3523 
Q 1550 3584 1831 3584 
Q 2591 3584 2966 3190 
Q 3341 2797 3341 1997 
z
" transform="scale(0.015625)"/>
       <path id="DejaVuSans-6c" d="M 603 4863 
L 1178 4863 
L 1178 0 
L 603 0 
L 603 4863 
z
" transform="scale(0.015625)"/>
       <path id="DejaVuSans-73" d="M 2834 3397 
L 2834 2853 
Q 2591 2978 2328 3040 
Q 2066 3103 1784 3103 
Q 1356 3103 1142 2972 
Q 928 2841 928 2578 
Q 928 2378 1081 2264 
Q 1234 2150 1697 2047 
L 1894 2003 
Q 2506 1872 2764 1633 
Q 3022 1394 3022 966 
Q 3022 478 2636 193 
Q 2250 -91 1575 -91 
Q 1294 -91 989 -36 
Q 684 19 347 128 
L 347 722 
Q 666 556 975 473 
Q 1284 391 1588 391 
Q 1994 391 2212 530 
Q 2431 669 2431 922 
Q 2431 1156 2273 1281 
Q 2116 1406 1581 1522 
L 1381 1569 
Q 847 1681 609 1914 
Q 372 2147 372 2553 
Q 372 3047 722 3315 
Q 1072 3584 1716 3584 
Q 2034 3584 2315 3537 
Q 2597 3491 2834 3397 
z
" transform="scale(0.015625)"/>
       <path id="DejaVuSans-65" d="M 3597 1894 
L 3597 1613 
L 953 1613 
Q 991 1019 1311 708 
Q 1631 397 2203 397 
Q 2534 397 2845 478 
Q 3156 559 3463 722 
L 3463 178 
Q 3153 47 2828 -22 
Q 2503 -91 2169 -91 
Q 1331 -91 842 396 
Q 353 884 353 1716 
Q 353 2575 817 3079 
Q 1281 3584 2069 3584 
Q 2775 3584 3186 3129 
Q 3597 2675 3597 1894 
z
M 3022 2063 
Q 3016 2534 2758 2815 
Q 2500 3097 2075 3097 
Q 1594 3097 1305 2825 
Q 1016 2553 972 2059 
L 3022 2063 
z
" transform="scale(0.015625)"/>
       <path id="DejaVuSans-20" transform="scale(0.015625)"/>
       <path id="DejaVuSans-50" d="M 1259 4147 
L 1259 2394 
L 2053 2394 
Q 2494 2394 2734 2622 
Q 2975 2850 2975 3272 
Q 2975 3691 2734 3919 
Q 2494 4147 2053 4147 
L 1259 4147 
z
M 628 4666 
L 2053 4666 
Q 2838 4666 3239 4311 
Q 3641 3956 3641 3272 
Q 3641 2581 3239 2228 
Q 2838 1875 2053 1875 
L 1259 1875 
L 1259 0 
L 628 0 
L 628 4666 
z
" transform="scale(0.015625)"/>
       <path id="DejaVuSans-6f" d="M 1959 3097 
Q 1497 3097 1228 2736 
Q 959 2375 959 1747 
Q 959 1119 1226 758 
Q 1494 397 1959 397 
Q 2419 397 2687 759 
Q 2956 1122 2956 1747 
Q 2956 2369 2687 2733 
Q 2419 3097 1959 3097 
z
M 1959 3584 
Q 2709 3584 3137 3096 
Q 3566 2609 3566 1747 
Q 3566 888 3137 398 
Q 2709 -91 1959 -91 
Q 1206 -91 779 398 
Q 353 888 353 1747 
Q 353 2609 779 3096 
Q 1206 3584 1959 3584 
z
" transform="scale(0.015625)"/>
       <path id="DejaVuSans-69" d="M 603 3500 
L 1178 3500 
L 1178 0 
L 603 0 
L 603 3500 
z
M 603 4863 
L 1178 4863 
L 1178 4134 
L 603 4134 
L 603 4863 
z
" transform="scale(0.015625)"/>
       <path id="DejaVuSans-74" d="M 1172 4494 
L 1172 3500 
L 2356 3500 
L 2356 3053 
L 1172 3053 
L 1172 1153 
Q 1172 725 1289 603 
Q 1406 481 1766 481 
L 2356 481 
L 2356 0 
L 1766 0 
Q 1100 0 847 248 
Q 594 497 594 1153 
L 594 3053 
L 172 3053 
L 172 3500 
L 594 3500 
L 594 4494 
L 1172 4494 
z
" transform="scale(0.015625)"/>
       <path id="DejaVuSans-76" d="M 191 3500 
L 800 3500 
L 1894 563 
L 2988 3500 
L 3597 3500 
L 2284 0 
L 1503 0 
L 191 3500 
z
" transform="scale(0.015625)"/>
       <path id="DejaVuSans-52" d="M 2841 2188 
Q 3044 2119 3236 1894 
Q 3428 1669 3622 1275 
L 4263 0 
L 3584 0 
L 2988 1197 
Q 2756 1666 2539 1819 
Q 2322 1972 1947 1972 
L 1259 1972 
L 1259 0 
L 628 0 
L 628 4666 
L 2053 4666 
Q 2853 4666 3247 4331 
Q 3641 3997 3641 3322 
Q 3641 2881 3436 2590 
Q 3231 2300 2841 2188 
z
M 1259 4147 
L 1259 2491 
L 2053 2491 
Q 2509 2491 2742 2702 
Q 2975 2913 2975 3322 
Q 2975 3731 2742 3939 
Q 2509 4147 2053 4147 
L 1259 4147 
z
" transform="scale(0.015625)"/>
      </defs>
      <use xlink:href="#DejaVuSans-46"/>
      <use xlink:href="#DejaVuSans-61" x="48.394531"/>
      <use xlink:href="#DejaVuSans-6c" x="109.673828"/>
      <use xlink:href="#DejaVuSans-73" x="137.457031"/>
      <use xlink:href="#DejaVuSans-65" x="189.556641"/>
      <use xlink:href="#DejaVuSans-20" x="251.080078"/>
      <use xlink:href="#DejaVuSans-50" x="282.867188"/>
      <use xlink:href="#DejaVuSans-6f" x="339.544922"/>
      <use xlink:href="#DejaVuSans-73" x="400.726562"/>
      <use xlink:href="#DejaVuSans-69" x="452.826172"/>
      <use xlink:href="#DejaVuSans-74" x="480.609375"/>
      <use xlink:href="#DejaVuSans-69" x="519.818359"/>
      <use xlink:href="#DejaVuSans-76" x="547.601562"/>
      <use xlink:href="#DejaVuSans-65" x="606.78125"/>
      <use xlink:href="#DejaVuSans-20" x="668.304688"/>
      <use xlink:href="#DejaVuSans-52" x="700.091797"/>
      <use xlink:href="#DejaVuSans-61" x="767.324219"/>
      <use xlink:href="#DejaVuSans-74" x="828.603516"/>
      <use xlink:href="#DejaVuSans-65" x="867.8125"/>
     </g>
    </g>
   </g>
   <g id="matplotlib.axis_2">
    <g id="ytick_1">
     <g id="line2d_7">
      <defs>
       <path id="m8846e36f88" d="M 0 0 
L -3.5 0 
" style="stroke: #000000; stroke-width: 0.8"/>
      </defs>
      <g>
       <use xlink:href="#m8846e36f88" x="43.78125" y="288.430125" style="stroke: #000000; stroke-width: 0.8"/>
      </g>
     </g>
     <g id="text_8">
      <!-- 0.0 -->
      <g transform="translate(20.878125 292.229344) scale(0.1 -0.1)">
       <use xlink:href="#DejaVuSans-30"/>
       <use xlink:href="#DejaVuSans-2e" x="63.623047"/>
       <use xlink:href="#DejaVuSans-30" x="95.410156"/>
      </g>
     </g>
    </g>
    <g id="ytick_2">
     <g id="line2d_8">
      <g>
       <use xlink:href="#m8846e36f88" x="43.78125" y="237.742125" style="stroke: #000000; stroke-width: 0.8"/>
      </g>
     </g>
     <g id="text_9">
      <!-- 0.2 -->
      <g transform="translate(20.878125 241.541344) scale(0.1 -0.1)">
       <use xlink:href="#DejaVuSans-30"/>
       <use xlink:href="#DejaVuSans-2e" x="63.623047"/>
       <use xlink:href="#DejaVuSans-32" x="95.410156"/>
      </g>
     </g>
    </g>
    <g id="ytick_3">
     <g id="line2d_9">
      <g>
       <use xlink:href="#m8846e36f88" x="43.78125" y="187.054125" style="stroke: #000000; stroke-width: 0.8"/>
      </g>
     </g>
     <g id="text_10">
      <!-- 0.4 -->
      <g transform="translate(20.878125 190.853344) scale(0.1 -0.1)">
       <use xlink:href="#DejaVuSans-30"/>
       <use xlink:href="#DejaVuSans-2e" x="63.623047"/>
       <use xlink:href="#DejaVuSans-34" x="95.410156"/>
      </g>
     </g>
    </g>
    <g id="ytick_4">
     <g id="line2d_10">
      <g>
       <use xlink:href="#m8846e36f88" x="43.78125" y="136.366125" style="stroke: #000000; stroke-width: 0.8"/>
      </g>
     </g>
     <g id="text_11">
      <!-- 0.6 -->
      <g transform="translate(20.878125 140.165344) scale(0.1 -0.1)">
       <use xlink:href="#DejaVuSans-30"/>
       <use xlink:href="#DejaVuSans-2e" x="63.623047"/>
       <use xlink:href="#DejaVuSans-36" x="95.410156"/>
      </g>
     </g>
    </g>
    <g id="ytick_5">
     <g id="line2d_11">
      <g>
       <use xlink:href="#m8846e36f88" x="43.78125" y="85.678125" style="stroke: #000000; stroke-width: 0.8"/>
      </g>
     </g>
     <g id="text_12">
      <!-- 0.8 -->
      <g transform="translate(20.878125 89.477344) scale(0.1 -0.1)">
       <use xlink:href="#DejaVuSans-30"/>
       <use xlink:href="#DejaVuSans-2e" x="63.623047"/>
       <use xlink:href="#DejaVuSans-38" x="95.410156"/>
      </g>
     </g>
    </g>
    <g id="ytick_6">
     <g id="line2d_12">
      <g>
       <use xlink:href="#m8846e36f88" x="43.78125" y="34.990125" style="stroke: #000000; stroke-width: 0.8"/>
      </g>
     </g>
     <g id="text_13">
      <!-- 1.0 -->
      <g transform="translate(20.878125 38.789344) scale(0.1 -0.1)">
       <use xlink:href="#DejaVuSans-31"/>
       <use xlink:href="#DejaVuSans-2e" x="63.623047"/>
       <use xlink:href="#DejaVuSans-30" x="95.410156"/>
      </g>
     </g>
    </g>
    <g id="text_14">
     <!-- True Positive Rate -->
     <g transform="translate(14.798438 199.903812) rotate(-90) scale(0.1 -0.1)">
      <defs>
       <path id="DejaVuSans-54" d="M -19 4666 
L 3928 4666 
L 3928 4134 
L 2272 4134 
L 2272 0 
L 1638 0 
L 1638 4134 
L -19 4134 
L -19 4666 
z
" transform="scale(0.015625)"/>
       <path id="DejaVuSans-72" d="M 2631 2963 
Q 2534 3019 2420 3045 
Q 2306 3072 2169 3072 
Q 1681 3072 1420 2755 
Q 1159 2438 1159 1844 
L 1159 0 
L 581 0 
L 581 3500 
L 1159 3500 
L 1159 2956 
Q 1341 3275 1631 3429 
Q 1922 3584 2338 3584 
Q 2397 3584 2469 3576 
Q 2541 3569 2628 3553 
L 2631 2963 
z
" transform="scale(0.015625)"/>
       <path id="DejaVuSans-75" d="M 544 1381 
L 544 3500 
L 1119 3500 
L 1119 1403 
Q 1119 906 1312 657 
Q 1506 409 1894 409 
Q 2359 409 2629 706 
Q 2900 1003 2900 1516 
L 2900 3500 
L 3475 3500 
L 3475 0 
L 2900 0 
L 2900 538 
Q 2691 219 2414 64 
Q 2138 -91 1772 -91 
Q 1169 -91 856 284 
Q 544 659 544 1381 
z
M 1991 3584 
L 1991 3584 
z
" transform="scale(0.015625)"/>
      </defs>
      <use xlink:href="#DejaVuSans-54"/>
      <use xlink:href="#DejaVuSans-72" x="46.333984"/>
      <use xlink:href="#DejaVuSans-75" x="87.447266"/>
      <use xlink:href="#DejaVuSans-65" x="150.826172"/>
      <use xlink:href="#DejaVuSans-20" x="212.349609"/>
      <use xlink:href="#DejaVuSans-50" x="244.136719"/>
      <use xlink:href="#DejaVuSans-6f" x="300.814453"/>
      <use xlink:href="#DejaVuSans-73" x="361.996094"/>
      <use xlink:href="#DejaVuSans-69" x="414.095703"/>
      <use xlink:href="#DejaVuSans-74" x="441.878906"/>
      <use xlink:href="#DejaVuSans-69" x="481.087891"/>
      <use xlink:href="#DejaVuSans-76" x="508.871094"/>
      <use xlink:href="#DejaVuSans-65" x="568.050781"/>
      <use xlink:href="#DejaVuSans-20" x="629.574219"/>
      <use xlink:href="#DejaVuSans-52" x="661.361328"/>
      <use xlink:href="#DejaVuSans-61" x="728.59375"/>
      <use xlink:href="#DejaVuSans-74" x="789.873047"/>
      <use xlink:href="#DejaVuSans-65" x="829.082031"/>
     </g>
    </g>
   </g>
   <g id="line2d_13">
    <path d="M 43.78125 288.430125 
L 43.919736 287.74813 
L 44.127464 286.593983 
L 44.477525 285.911988 
L 44.781425 284.967687 
L 44.866055 284.757842 
L 45.470006 283.78731 
L 45.931625 282.606933 
L 46.266299 282.056091 
L 48.105081 277.59689 
L 48.747501 276.416513 
L 49.436083 274.737755 
L 49.828459 274.029529 
L 50.390095 272.796691 
L 51.340261 270.803166 
L 51.871123 270.12117 
L 52.648182 268.862102 
L 53.082873 268.153876 
L 53.775301 266.422657 
L 54.090741 266.029198 
L 54.902421 264.560284 
L 56.356521 261.097846 
L 57.091265 259.786316 
L 58.176069 257.29441 
L 58.826183 256.40257 
L 59.887906 254.723812 
L 60.788063 253.595896 
L 62.746097 249.818691 
L 63.080771 249.241617 
L 63.927073 247.562859 
L 64.777221 246.041485 
L 65.273461 244.887339 
L 65.661991 244.49388 
L 66.03898 243.706962 
L 66.389041 242.762661 
L 67.377675 241.188825 
L 68.381696 239.772373 
L 70.812889 235.65417 
L 71.128329 235.286941 
L 71.905388 233.686875 
L 72.501646 233.057341 
L 73.944205 230.775279 
L 74.54431 229.175213 
L 75.413692 227.050535 
L 76.086886 225.896389 
L 77.779489 223.430713 
L 78.391135 222.224106 
L 79.418237 220.728962 
L 79.883703 219.601046 
L 80.306853 219.050204 
L 81.318568 217.318984 
L 81.514757 217.187831 
L 82.48031 215.718918 
L 82.668804 215.666457 
L 83.068874 215.220537 
L 85.492374 210.813797 
L 86.119406 210.367877 
L 86.515629 209.790804 
L 87.492723 208.243199 
L 88.358258 206.433288 
L 89.042993 205.252911 
L 89.696953 204.33484 
L 89.758503 204.046304 
L 90.177806 203.390539 
L 90.697128 202.446238 
L 90.835614 202.315085 
L 92.93598 199.062491 
L 93.147555 198.800185 
L 93.259113 198.59034 
L 93.424527 198.511648 
L 93.982316 197.514886 
L 94.63243 196.649276 
L 94.901708 196.334509 
L 96.882822 193.685219 
L 97.271352 193.29176 
L 97.736818 192.504842 
L 97.859916 192.452381 
L 98.309995 191.927769 
L 99.013964 190.957237 
L 99.221692 190.826084 
L 99.606375 190.249011 
L 100.156471 189.986705 
L 100.244948 189.776861 
L 100.771963 189.383402 
L 102.372242 187.127571 
L 102.876176 186.734112 
L 103.041589 186.288192 
L 103.468587 185.684888 
L 103.841729 185.134046 
L 104.072538 184.87174 
L 104.630328 184.032361 
L 105.749754 182.720831 
L 106.338318 181.828991 
L 106.730694 181.278148 
L 107.792418 179.861696 
L 107.91167 179.520698 
L 108.130939 179.363315 
L 109.265752 177.39602 
L 109.842776 176.714025 
L 110.181297 176.215644 
L 110.342863 176.005799 
L 110.823716 175.140189 
L 111.162237 174.74673 
L 111.573847 174.30081 
L 111.846972 174.012274 
L 112.716354 172.674513 
L 113.127964 172.307285 
L 113.327999 172.018748 
L 113.701141 171.782673 
L 114.166607 171.074447 
L 114.285859 171.048216 
L 114.755171 170.602296 
L 115.182169 170.392452 
L 115.324502 170.103915 
L 115.809202 169.579303 
L 117.051726 168.031698 
L 117.405634 167.66447 
L 117.659524 167.454625 
L 117.974964 167.21855 
L 118.60969 166.274248 
L 119.8099 164.936488 
L 120.248438 164.306954 
L 120.452319 163.992187 
L 120.910091 163.70365 
L 121.364017 163.25773 
L 122.387272 161.762586 
L 122.629622 161.578972 
L 123.445149 160.477287 
L 123.875994 160.214981 
L 124.218361 159.847753 
L 124.414549 159.637908 
L 124.737682 159.113296 
L 125.922504 157.670614 
L 126.122539 157.434538 
L 126.161008 157.329616 
L 128.261374 154.995093 
L 128.657597 154.549173 
L 128.930722 154.155714 
L 129.688546 153.054029 
L 129.923202 152.922876 
L 130.430983 152.398264 
L 130.688721 152.083497 
L 131.23497 151.532654 
L 132.069731 150.90312 
L 132.53135 150.168664 
L 133.246859 149.696513 
L 134.050846 148.621059 
L 134.162404 148.594828 
L 134.839445 147.676757 
L 135.235668 147.125915 
L 135.585729 146.732456 
L 136.293545 146.234074 
L 138.7709 143.584784 
L 140.975131 141.302723 
L 141.659866 140.384652 
L 141.809892 140.332191 
L 142.540789 139.309198 
L 142.767751 139.230506 
L 143.083191 138.994431 
L 144.344949 137.735362 
L 146.510712 135.89922 
L 147.730155 134.692613 
L 147.984046 134.587691 
L 148.237936 134.089309 
L 148.818807 133.486006 
L 150.622968 131.91217 
L 150.861471 131.623634 
L 152.092455 130.626871 
L 152.430976 130.180951 
L 152.723334 129.918645 
L 152.904135 129.68257 
L 155.019889 127.50543 
L 155.323788 127.190663 
L 156.962536 125.957825 
L 157.547253 125.30206 
L 157.893467 125.065985 
L 158.220447 124.934832 
L 158.924416 124.357759 
L 159.109064 124.279067 
L 159.297558 124.069222 
L 159.543755 123.780686 
L 160.166941 123.203613 
L 161.236358 122.364234 
L 162.17883 121.839622 
L 162.428874 121.498624 
L 162.74816 121.28878 
L 162.97897 121.183857 
L 163.22132 120.974012 
L 163.525219 120.475631 
L 163.679092 120.42317 
L 165.075489 119.08541 
L 165.271678 119.032948 
L 167.610547 117.406652 
L 167.75288 117.275499 
L 168.041392 116.855809 
L 168.264507 116.619734 
L 168.799216 116.383658 
L 169.076187 115.963969 
L 169.29161 115.832816 
L 169.726301 115.596741 
L 169.87248 115.544279 
L 170.10329 115.386896 
L 170.726475 115.150821 
L 171.272725 114.862284 
L 171.415057 114.783592 
L 171.64202 114.573747 
L 171.845901 114.416364 
L 172.219044 114.127827 
L 172.603726 113.891752 
L 173.446181 113.524524 
L 174.492517 112.527761 
L 174.757948 112.396608 
L 175.527313 111.688382 
L 175.692726 111.58346 
L 177.516122 110.429314 
L 177.889264 110.088316 
L 178.181622 109.983393 
L 178.489368 109.773549 
L 178.697097 109.668626 
L 178.931753 109.458782 
L 180.189665 108.619403 
L 180.405087 108.357097 
L 180.616663 108.252174 
L 181.52836 107.753793 
L 181.716854 107.596409 
L 181.889962 107.491487 
L 182.190014 107.124259 
L 183.847996 106.075035 
L 184.059571 105.786498 
L 184.267299 105.707807 
L 184.528884 105.576654 
L 184.92126 105.235656 
L 185.686778 104.684813 
L 185.921434 104.632352 
L 186.402287 104.186432 
L 186.583088 104.08151 
L 186.733114 103.871665 
L 186.898528 103.740512 
L 187.617884 103.058517 
L 187.921783 102.76998 
L 189.618233 101.589603 
L 190.341436 101.117453 
L 191.433934 100.723994 
L 191.703212 100.487918 
L 191.930175 100.382996 
L 192.445649 100.12069 
L 192.661072 100.041998 
L 193.226555 99.622309 
L 193.449671 99.622309 
L 193.711255 99.307542 
L 194.449845 98.914083 
L 194.515241 98.914083 
L 194.799906 98.573085 
L 194.942239 98.573085 
L 195.457713 98.205857 
L 195.623127 98.153396 
L 195.823162 98.022243 
L 196.107827 97.969781 
L 196.388645 97.602553 
L 196.707932 97.366478 
L 196.907966 97.287786 
L 197.123389 97.104172 
L 197.204172 97.077941 
L 197.442675 96.789405 
L 197.592701 96.736943 
L 197.831204 96.448407 
L 198.019699 96.343485 
L 198.562101 95.950026 
L 200.247011 95.163108 
L 200.377803 95.005724 
L 200.724017 94.874571 
L 201.039456 94.349959 
L 201.870371 93.772886 
L 202.34353 93.563042 
L 202.939788 93.169583 
L 203.132129 93.090891 
L 203.309083 92.933507 
L 204.12461 92.59251 
L 204.459284 92.461357 
L 204.69394 92.277742 
L 205.490233 91.805592 
L 205.890303 91.490825 
L 208.817737 90.179295 
L 208.89852 90.153064 
L 209.221653 89.759605 
L 209.844839 89.52353 
L 210.098729 89.444838 
L 210.283377 89.261224 
L 211.106598 88.946457 
L 211.310479 88.789073 
L 211.456659 88.762843 
L 211.979827 88.212 
L 212.106772 88.107078 
L 212.456833 87.792311 
L 212.506842 87.792311 
L 213.01847 87.556236 
L 213.264666 87.477544 
L 216.746043 85.772555 
L 216.869141 85.588941 
L 218.723311 84.985637 
L 219.127228 84.592178 
L 219.66963 84.487256 
L 221.335305 83.77903 
L 221.719988 83.595416 
L 222.885576 82.992112 
L 223.277952 82.782267 
L 224.208884 82.362578 
L 224.485855 82.257656 
L 225.109041 81.942888 
L 225.285995 81.837966 
L 225.66683 81.733044 
L 225.836091 81.628121 
L 227.136317 81.051048 
L 227.417136 80.998587 
L 227.69026 80.788742 
L 229.71369 79.949363 
L 230.963908 79.34606 
L 231.190871 79.241137 
L 231.583247 79.109984 
L 231.864065 79.057523 
L 232.175658 78.952601 
L 232.691133 78.795217 
L 232.887321 78.716525 
L 233.422029 78.349297 
L 233.722082 78.270605 
L 234.083683 78.03453 
L 234.187548 77.929608 
L 234.57223 77.745993 
L 234.837661 77.667302 
L 235.053083 77.509918 
L 236.487949 76.880384 
L 236.807235 76.565617 
L 237.64969 76.172158 
L 238.430596 75.883621 
L 238.757576 75.778699 
L 239.338446 75.542623 
L 240.373242 75.227856 
L 240.80024 75.122934 
L 241.21185 74.991781 
L 241.404191 74.913089 
L 241.804261 74.677014 
L 242.02353 74.572091 
L 243.281442 73.863865 
L 243.639197 73.758943 
L 243.689205 73.706482 
L 244.354706 73.470407 
L 244.8471 73.234331 
L 244.974045 73.155639 
L 245.589537 72.893333 
L 245.74341 72.867103 
L 246.343515 72.447413 
L 246.974394 72.342491 
L 247.628354 72.001493 
L 248.570826 71.686726 
L 248.940122 71.39819 
L 249.386353 71.293267 
L 249.590235 71.188345 
L 249.878747 71.109653 
L 249.913368 71.057192 
L 250.75967 70.611272 
L 250.971245 70.480119 
L 252.567678 69.693201 
L 252.744631 69.66697 
L 253.071612 69.457126 
L 253.564005 69.352203 
L 253.698644 69.299742 
L 254.191038 69.168589 
L 254.583414 68.984975 
L 254.875773 68.880053 
L 255.529733 68.617747 
L 255.683606 68.565285 
L 255.910568 68.434132 
L 256.468358 68.32921 
L 256.753023 68.145596 
L 257.15694 68.040674 
L 257.287732 67.988212 
L 257.607018 67.88329 
L 257.710883 67.830829 
L 258.134033 67.725906 
L 259.572746 67.253756 
L 259.799709 67.122603 
L 260.31903 66.938989 
L 260.930675 66.834066 
L 261.888535 66.519299 
L 262.123191 66.440607 
L 262.292451 66.256993 
L 262.981033 66.152071 
L 263.027195 66.12584 
L 263.031042 66.12584 
L 263.415724 65.942226 
L 263.861956 65.863534 
L 264.215864 65.732381 
L 264.823662 65.548767 
L 265.216038 65.443845 
L 265.308362 65.338922 
L 266.489337 65.076616 
L 266.758615 64.945463 
L 267.027893 64.866772 
L 267.531827 64.656927 
L 267.747249 64.552005 
L 268.743577 64.289699 
L 269.124412 64.211007 
L 269.335988 64.106084 
L 269.666815 64.001162 
L 270.759313 63.633934 
L 270.928573 63.47655 
L 271.50175 63.397858 
L 272.305737 63.083091 
L 272.401907 63.056861 
L 272.844292 63.004399 
L 273.232821 62.742094 
L 273.629044 62.58471 
L 274.386869 62.243712 
L 274.710002 62.13879 
L 275.325494 61.824023 
L 276.056391 61.7191 
L 276.287201 61.614178 
L 276.494929 61.561717 
L 276.879612 61.456794 
L 277.868246 61.194488 
L 278.318324 61.089566 
L 278.879961 60.879721 
L 279.118464 60.748568 
L 279.672407 60.643646 
L 280.972633 60.145265 
L 281.091885 60.092804 
L 281.876637 59.93542 
L 281.926646 59.909189 
L 282.284401 59.778036 
L 282.919127 59.673114 
L 283.553853 59.568192 
L 283.861599 59.51573 
L 284.411695 59.384577 
L 284.68482 59.279655 
L 284.915629 59.253425 
L 285.431104 59.174733 
L 285.75039 59.096041 
L 286.035055 59.04358 
L 290.389661 57.522205 
L 291.02054 57.417283 
L 292.313074 57.023824 
L 292.70545 56.84021 
L 293.213231 56.761518 
L 293.35941 56.709057 
L 296.190673 55.922139 
L 296.321465 55.843447 
L 296.902336 55.738525 
L 297.40627 55.712294 
L 297.844808 55.607372 
L 298.448759 55.476219 
L 299.318142 55.292605 
L 299.610501 55.108991 
L 300.149056 54.977838 
L 300.537585 54.872915 
L 301.599309 54.400765 
L 301.930136 54.21715 
L 302.90723 54.112228 
L 305.219171 53.272849 
L 306.273202 53.167927 
L 307.007945 52.958082 
L 309.081384 52.617084 
L 309.308346 52.564623 
L 315.455573 51.200632 
L 315.670995 51.017018 
L 316.85197 50.754712 
L 317.232806 50.67602 
L 318.371466 50.571098 
L 318.529186 50.466176 
L 318.713834 50.387484 
L 318.933103 50.335023 
L 320.579544 49.994025 
L 320.80266 49.915333 
L 321.325828 49.810411 
L 321.595106 49.679258 
L 322.199057 49.574335 
L 322.464488 49.495644 
L 322.787621 49.390721 
L 325.068789 48.971032 
L 325.803532 48.866109 
L 325.803532 48.839879 
L 325.899703 48.839879 
L 326.372862 48.761187 
L 326.480573 48.708726 
L 327.365343 48.603803 
L 327.719251 48.498881 
L 328.19241 48.47265 
L 328.550165 48.367728 
L 329.231053 48.184114 
L 329.746528 48.079191 
L 329.746528 48.052961 
L 329.811924 48.052961 
L 330.031193 47.816886 
L 330.404335 47.711963 
L 330.715928 47.659502 
L 331.696868 47.449657 
L 331.766111 47.344735 
L 331.804579 47.344735 
L 331.962299 47.266043 
L 332.562404 47.161121 
L 332.577791 47.13489 
L 333.458714 46.951276 
L 333.858784 46.846354 
L 334.608915 46.662739 
L 335.051299 46.557817 
L 336.409229 46.295511 
L 336.593876 46.190589 
L 340.633043 45.272518 
L 343.529702 44.564292 
L 343.691268 44.4856 
L 343.81052 44.406908 
L 344.352922 44.301986 
L 344.633741 44.170833 
L 348.057415 43.698682 
L 348.115117 43.672452 
L 354.227722 42.413383 
L 354.677801 42.334691 
L 355.23559 42.256 
L 356.185756 42.151077 
L 356.312701 42.098616 
L 357.159003 41.993694 
L 357.401353 41.941232 
L 357.870665 41.83631 
L 358.005304 41.810079 
L 358.632337 41.705157 
L 358.636184 41.678926 
L 359.678673 41.521543 
L 360.709622 41.416621 
L 360.805793 41.364159 
L 361.478987 41.259237 
L 363.525498 40.94447 
L 364.387187 40.839547 
L 364.621843 40.787086 
L 365.637405 40.577242 
L 366.364455 40.472319 
L 370.12665 39.554248 
L 370.503639 39.475557 
L 370.599809 39.423095 
L 371.188374 39.396865 
L 372.192395 39.291942 
L 373.619567 39.029636 
L 374.462022 38.924714 
L 374.562039 38.846022 
L 375.358332 38.7411 
L 375.435268 38.714869 
L 375.462196 38.714869 
L 376.477758 38.609947 
L 376.731648 38.583716 
L 377.458698 38.478794 
L 377.743363 38.400102 
L 378.828168 38.216488 
L 379.220544 38.111566 
L 380.347664 37.927952 
L 380.913147 37.84926 
L 381.155497 37.796799 
L 382.074888 37.691876 
L 382.251842 37.639415 
L 383.56361 37.534493 
L 384.583018 37.40334 
L 386.721853 37.298417 
L 386.929582 37.245956 
L 387.164238 37.167264 
L 387.356579 37.114803 
L 387.683559 37.009881 
L 388.402916 36.800036 
L 389.430018 36.695114 
L 389.514648 36.668883 
L 389.795466 36.563961 
L 390.05705 36.53773 
L 390.926433 36.432808 
L 391.02645 36.406577 
L 391.938148 36.301655 
L 392.295902 36.249194 
L 392.669044 36.144271 
L 392.95371 36.118041 
L 394.300098 36.013118 
L 394.43089 35.960657 
L 395.227183 35.855735 
L 395.457993 35.777043 
L 396.6005 35.67212 
L 396.93902 35.593429 
L 397.854565 35.488506 
L 397.99305 35.462276 
L 398.816271 35.357353 
L 398.973991 35.304892 
L 399.635645 35.19997 
L 400.00494 35.095047 
L 400.90125 34.990125 
L 400.90125 34.990125 
" clip-path="url(#peb8bcb8229)" style="fill: none; stroke: #ff0000; stroke-opacity: 0.5; stroke-width: 2; stroke-linecap: square"/>
   </g>
   <g id="patch_3">
    <path d="M 43.78125 288.430125 
L 43.78125 22.318125 
" style="fill: none; stroke: #000000; stroke-width: 0.8; stroke-linejoin: miter; stroke-linecap: square"/>
   </g>
   <g id="patch_4">
    <path d="M 400.90125 288.430125 
L 400.90125 22.318125 
" style="fill: none; stroke: #000000; stroke-width: 0.8; stroke-linejoin: miter; stroke-linecap: square"/>
   </g>
   <g id="patch_5">
    <path d="M 43.78125 288.430125 
L 400.90125 288.430125 
" style="fill: none; stroke: #000000; stroke-width: 0.8; stroke-linejoin: miter; stroke-linecap: square"/>
   </g>
   <g id="patch_6">
    <path d="M 43.78125 22.318125 
L 400.90125 22.318125 
" style="fill: none; stroke: #000000; stroke-width: 0.8; stroke-linejoin: miter; stroke-linecap: square"/>
   </g>
   <g id="text_15">
    <!-- Receiver operating characteristic example -->
    <g transform="translate(95.046563 16.318125) scale(0.12 -0.12)">
     <defs>
      <path id="DejaVuSans-63" d="M 3122 3366 
L 3122 2828 
Q 2878 2963 2633 3030 
Q 2388 3097 2138 3097 
Q 1578 3097 1268 2742 
Q 959 2388 959 1747 
Q 959 1106 1268 751 
Q 1578 397 2138 397 
Q 2388 397 2633 464 
Q 2878 531 3122 666 
L 3122 134 
Q 2881 22 2623 -34 
Q 2366 -91 2075 -91 
Q 1284 -91 818 406 
Q 353 903 353 1747 
Q 353 2603 823 3093 
Q 1294 3584 2113 3584 
Q 2378 3584 2631 3529 
Q 2884 3475 3122 3366 
z
" transform="scale(0.015625)"/>
      <path id="DejaVuSans-70" d="M 1159 525 
L 1159 -1331 
L 581 -1331 
L 581 3500 
L 1159 3500 
L 1159 2969 
Q 1341 3281 1617 3432 
Q 1894 3584 2278 3584 
Q 2916 3584 3314 3078 
Q 3713 2572 3713 1747 
Q 3713 922 3314 415 
Q 2916 -91 2278 -91 
Q 1894 -91 1617 61 
Q 1341 213 1159 525 
z
M 3116 1747 
Q 3116 2381 2855 2742 
Q 2594 3103 2138 3103 
Q 1681 3103 1420 2742 
Q 1159 2381 1159 1747 
Q 1159 1113 1420 752 
Q 1681 391 2138 391 
Q 2594 391 2855 752 
Q 3116 1113 3116 1747 
z
" transform="scale(0.015625)"/>
      <path id="DejaVuSans-6e" d="M 3513 2113 
L 3513 0 
L 2938 0 
L 2938 2094 
Q 2938 2591 2744 2837 
Q 2550 3084 2163 3084 
Q 1697 3084 1428 2787 
Q 1159 2491 1159 1978 
L 1159 0 
L 581 0 
L 581 3500 
L 1159 3500 
L 1159 2956 
Q 1366 3272 1645 3428 
Q 1925 3584 2291 3584 
Q 2894 3584 3203 3211 
Q 3513 2838 3513 2113 
z
" transform="scale(0.015625)"/>
      <path id="DejaVuSans-67" d="M 2906 1791 
Q 2906 2416 2648 2759 
Q 2391 3103 1925 3103 
Q 1463 3103 1205 2759 
Q 947 2416 947 1791 
Q 947 1169 1205 825 
Q 1463 481 1925 481 
Q 2391 481 2648 825 
Q 2906 1169 2906 1791 
z
M 3481 434 
Q 3481 -459 3084 -895 
Q 2688 -1331 1869 -1331 
Q 1566 -1331 1297 -1286 
Q 1028 -1241 775 -1147 
L 775 -588 
Q 1028 -725 1275 -790 
Q 1522 -856 1778 -856 
Q 2344 -856 2625 -561 
Q 2906 -266 2906 331 
L 2906 616 
Q 2728 306 2450 153 
Q 2172 0 1784 0 
Q 1141 0 747 490 
Q 353 981 353 1791 
Q 353 2603 747 3093 
Q 1141 3584 1784 3584 
Q 2172 3584 2450 3431 
Q 2728 3278 2906 2969 
L 2906 3500 
L 3481 3500 
L 3481 434 
z
" transform="scale(0.015625)"/>
      <path id="DejaVuSans-68" d="M 3513 2113 
L 3513 0 
L 2938 0 
L 2938 2094 
Q 2938 2591 2744 2837 
Q 2550 3084 2163 3084 
Q 1697 3084 1428 2787 
Q 1159 2491 1159 1978 
L 1159 0 
L 581 0 
L 581 4863 
L 1159 4863 
L 1159 2956 
Q 1366 3272 1645 3428 
Q 1925 3584 2291 3584 
Q 2894 3584 3203 3211 
Q 3513 2838 3513 2113 
z
" transform="scale(0.015625)"/>
      <path id="DejaVuSans-78" d="M 3513 3500 
L 2247 1797 
L 3578 0 
L 2900 0 
L 1881 1375 
L 863 0 
L 184 0 
L 1544 1831 
L 300 3500 
L 978 3500 
L 1906 2253 
L 2834 3500 
L 3513 3500 
z
" transform="scale(0.015625)"/>
      <path id="DejaVuSans-6d" d="M 3328 2828 
Q 3544 3216 3844 3400 
Q 4144 3584 4550 3584 
Q 5097 3584 5394 3201 
Q 5691 2819 5691 2113 
L 5691 0 
L 5113 0 
L 5113 2094 
Q 5113 2597 4934 2840 
Q 4756 3084 4391 3084 
Q 3944 3084 3684 2787 
Q 3425 2491 3425 1978 
L 3425 0 
L 2847 0 
L 2847 2094 
Q 2847 2600 2669 2842 
Q 2491 3084 2119 3084 
Q 1678 3084 1418 2786 
Q 1159 2488 1159 1978 
L 1159 0 
L 581 0 
L 581 3500 
L 1159 3500 
L 1159 2956 
Q 1356 3278 1631 3431 
Q 1906 3584 2284 3584 
Q 2666 3584 2933 3390 
Q 3200 3197 3328 2828 
z
" transform="scale(0.015625)"/>
     </defs>
     <use xlink:href="#DejaVuSans-52"/>
     <use xlink:href="#DejaVuSans-65" x="64.982422"/>
     <use xlink:href="#DejaVuSans-63" x="126.505859"/>
     <use xlink:href="#DejaVuSans-65" x="181.486328"/>
     <use xlink:href="#DejaVuSans-69" x="243.009766"/>
     <use xlink:href="#DejaVuSans-76" x="270.792969"/>
     <use xlink:href="#DejaVuSans-65" x="329.972656"/>
     <use xlink:href="#DejaVuSans-72" x="391.496094"/>
     <use xlink:href="#DejaVuSans-20" x="432.609375"/>
     <use xlink:href="#DejaVuSans-6f" x="464.396484"/>
     <use xlink:href="#DejaVuSans-70" x="525.578125"/>
     <use xlink:href="#DejaVuSans-65" x="589.054688"/>
     <use xlink:href="#DejaVuSans-72" x="650.578125"/>
     <use xlink:href="#DejaVuSans-61" x="691.691406"/>
     <use xlink:href="#DejaVuSans-74" x="752.970703"/>
     <use xlink:href="#DejaVuSans-69" x="792.179688"/>
     <use xlink:href="#DejaVuSans-6e" x="819.962891"/>
     <use xlink:href="#DejaVuSans-67" x="883.341797"/>
     <use xlink:href="#DejaVuSans-20" x="946.818359"/>
     <use xlink:href="#DejaVuSans-63" x="978.605469"/>
     <use xlink:href="#DejaVuSans-68" x="1033.585938"/>
     <use xlink:href="#DejaVuSans-61" x="1096.964844"/>
     <use xlink:href="#DejaVuSans-72" x="1158.244141"/>
     <use xlink:href="#DejaVuSans-61" x="1199.357422"/>
     <use xlink:href="#DejaVuSans-63" x="1260.636719"/>
     <use xlink:href="#DejaVuSans-74" x="1315.617188"/>
     <use xlink:href="#DejaVuSans-65" x="1354.826172"/>
     <use xlink:href="#DejaVuSans-72" x="1416.349609"/>
     <use xlink:href="#DejaVuSans-69" x="1457.462891"/>
     <use xlink:href="#DejaVuSans-73" x="1485.246094"/>
     <use xlink:href="#DejaVuSans-74" x="1537.345703"/>
     <use xlink:href="#DejaVuSans-69" x="1576.554688"/>
     <use xlink:href="#DejaVuSans-63" x="1604.337891"/>
     <use xlink:href="#DejaVuSans-20" x="1659.318359"/>
     <use xlink:href="#DejaVuSans-65" x="1691.105469"/>
     <use xlink:href="#DejaVuSans-78" x="1750.878906"/>
     <use xlink:href="#DejaVuSans-61" x="1810.058594"/>
     <use xlink:href="#DejaVuSans-6d" x="1871.337891"/>
     <use xlink:href="#DejaVuSans-70" x="1968.75"/>
     <use xlink:href="#DejaVuSans-6c" x="2032.226562"/>
     <use xlink:href="#DejaVuSans-65" x="2060.009766"/>
    </g>
   </g>
   <g id="legend_1">
    <g id="patch_7">
     <path d="M 114.473125 283.430125 
L 393.90125 283.430125 
Q 395.90125 283.430125 395.90125 281.430125 
L 395.90125 267.752 
Q 395.90125 265.752 393.90125 265.752 
L 114.473125 265.752 
Q 112.473125 265.752 112.473125 267.752 
L 112.473125 281.430125 
Q 112.473125 283.430125 114.473125 283.430125 
z
" style="fill: #ffffff; opacity: 0.8; stroke: #cccccc; stroke-linejoin: miter"/>
    </g>
    <g id="line2d_14">
     <path d="M 116.473125 273.850437 
L 126.473125 273.850437 
L 136.473125 273.850437 
" style="fill: none; stroke: #ff0000; stroke-opacity: 0.5; stroke-width: 2; stroke-linecap: square"/>
    </g>
    <g id="text_16">
     <!-- ROC curve Distance and angle only (area = 0.71) -->
     <g transform="translate(144.473125 277.350437) scale(0.1 -0.1)">
      <defs>
       <path id="DejaVuSans-4f" d="M 2522 4238 
Q 1834 4238 1429 3725 
Q 1025 3213 1025 2328 
Q 1025 1447 1429 934 
Q 1834 422 2522 422 
Q 3209 422 3611 934 
Q 4013 1447 4013 2328 
Q 4013 3213 3611 3725 
Q 3209 4238 2522 4238 
z
M 2522 4750 
Q 3503 4750 4090 4092 
Q 4678 3434 4678 2328 
Q 4678 1225 4090 567 
Q 3503 -91 2522 -91 
Q 1538 -91 948 565 
Q 359 1222 359 2328 
Q 359 3434 948 4092 
Q 1538 4750 2522 4750 
z
" transform="scale(0.015625)"/>
       <path id="DejaVuSans-43" d="M 4122 4306 
L 4122 3641 
Q 3803 3938 3442 4084 
Q 3081 4231 2675 4231 
Q 1875 4231 1450 3742 
Q 1025 3253 1025 2328 
Q 1025 1406 1450 917 
Q 1875 428 2675 428 
Q 3081 428 3442 575 
Q 3803 722 4122 1019 
L 4122 359 
Q 3791 134 3420 21 
Q 3050 -91 2638 -91 
Q 1578 -91 968 557 
Q 359 1206 359 2328 
Q 359 3453 968 4101 
Q 1578 4750 2638 4750 
Q 3056 4750 3426 4639 
Q 3797 4528 4122 4306 
z
" transform="scale(0.015625)"/>
       <path id="DejaVuSans-44" d="M 1259 4147 
L 1259 519 
L 2022 519 
Q 2988 519 3436 956 
Q 3884 1394 3884 2338 
Q 3884 3275 3436 3711 
Q 2988 4147 2022 4147 
L 1259 4147 
z
M 628 4666 
L 1925 4666 
Q 3281 4666 3915 4102 
Q 4550 3538 4550 2338 
Q 4550 1131 3912 565 
Q 3275 0 1925 0 
L 628 0 
L 628 4666 
z
" transform="scale(0.015625)"/>
       <path id="DejaVuSans-64" d="M 2906 2969 
L 2906 4863 
L 3481 4863 
L 3481 0 
L 2906 0 
L 2906 525 
Q 2725 213 2448 61 
Q 2172 -91 1784 -91 
Q 1150 -91 751 415 
Q 353 922 353 1747 
Q 353 2572 751 3078 
Q 1150 3584 1784 3584 
Q 2172 3584 2448 3432 
Q 2725 3281 2906 2969 
z
M 947 1747 
Q 947 1113 1208 752 
Q 1469 391 1925 391 
Q 2381 391 2643 752 
Q 2906 1113 2906 1747 
Q 2906 2381 2643 2742 
Q 2381 3103 1925 3103 
Q 1469 3103 1208 2742 
Q 947 2381 947 1747 
z
" transform="scale(0.015625)"/>
       <path id="DejaVuSans-79" d="M 2059 -325 
Q 1816 -950 1584 -1140 
Q 1353 -1331 966 -1331 
L 506 -1331 
L 506 -850 
L 844 -850 
Q 1081 -850 1212 -737 
Q 1344 -625 1503 -206 
L 1606 56 
L 191 3500 
L 800 3500 
L 1894 763 
L 2988 3500 
L 3597 3500 
L 2059 -325 
z
" transform="scale(0.015625)"/>
       <path id="DejaVuSans-28" d="M 1984 4856 
Q 1566 4138 1362 3434 
Q 1159 2731 1159 2009 
Q 1159 1288 1364 580 
Q 1569 -128 1984 -844 
L 1484 -844 
Q 1016 -109 783 600 
Q 550 1309 550 2009 
Q 550 2706 781 3412 
Q 1013 4119 1484 4856 
L 1984 4856 
z
" transform="scale(0.015625)"/>
       <path id="DejaVuSans-3d" d="M 678 2906 
L 4684 2906 
L 4684 2381 
L 678 2381 
L 678 2906 
z
M 678 1631 
L 4684 1631 
L 4684 1100 
L 678 1100 
L 678 1631 
z
" transform="scale(0.015625)"/>
       <path id="DejaVuSans-37" d="M 525 4666 
L 3525 4666 
L 3525 4397 
L 1831 0 
L 1172 0 
L 2766 4134 
L 525 4134 
L 525 4666 
z
" transform="scale(0.015625)"/>
       <path id="DejaVuSans-29" d="M 513 4856 
L 1013 4856 
Q 1481 4119 1714 3412 
Q 1947 2706 1947 2009 
Q 1947 1309 1714 600 
Q 1481 -109 1013 -844 
L 513 -844 
Q 928 -128 1133 580 
Q 1338 1288 1338 2009 
Q 1338 2731 1133 3434 
Q 928 4138 513 4856 
z
" transform="scale(0.015625)"/>
      </defs>
      <use xlink:href="#DejaVuSans-52"/>
      <use xlink:href="#DejaVuSans-4f" x="69.482422"/>
      <use xlink:href="#DejaVuSans-43" x="148.193359"/>
      <use xlink:href="#DejaVuSans-20" x="218.017578"/>
      <use xlink:href="#DejaVuSans-63" x="249.804688"/>
      <use xlink:href="#DejaVuSans-75" x="304.785156"/>
      <use xlink:href="#DejaVuSans-72" x="368.164062"/>
      <use xlink:href="#DejaVuSans-76" x="409.277344"/>
      <use xlink:href="#DejaVuSans-65" x="468.457031"/>
      <use xlink:href="#DejaVuSans-20" x="529.980469"/>
      <use xlink:href="#DejaVuSans-44" x="561.767578"/>
      <use xlink:href="#DejaVuSans-69" x="638.769531"/>
      <use xlink:href="#DejaVuSans-73" x="666.552734"/>
      <use xlink:href="#DejaVuSans-74" x="718.652344"/>
      <use xlink:href="#DejaVuSans-61" x="757.861328"/>
      <use xlink:href="#DejaVuSans-6e" x="819.140625"/>
      <use xlink:href="#DejaVuSans-63" x="882.519531"/>
      <use xlink:href="#DejaVuSans-65" x="937.5"/>
      <use xlink:href="#DejaVuSans-20" x="999.023438"/>
      <use xlink:href="#DejaVuSans-61" x="1030.810547"/>
      <use xlink:href="#DejaVuSans-6e" x="1092.089844"/>
      <use xlink:href="#DejaVuSans-64" x="1155.46875"/>
      <use xlink:href="#DejaVuSans-20" x="1218.945312"/>
      <use xlink:href="#DejaVuSans-61" x="1250.732422"/>
      <use xlink:href="#DejaVuSans-6e" x="1312.011719"/>
      <use xlink:href="#DejaVuSans-67" x="1375.390625"/>
      <use xlink:href="#DejaVuSans-6c" x="1438.867188"/>
      <use xlink:href="#DejaVuSans-65" x="1466.650391"/>
      <use xlink:href="#DejaVuSans-20" x="1528.173828"/>
      <use xlink:href="#DejaVuSans-6f" x="1559.960938"/>
      <use xlink:href="#DejaVuSans-6e" x="1621.142578"/>
      <use xlink:href="#DejaVuSans-6c" x="1684.521484"/>
      <use xlink:href="#DejaVuSans-79" x="1712.304688"/>
      <use xlink:href="#DejaVuSans-20" x="1771.484375"/>
      <use xlink:href="#DejaVuSans-28" x="1803.271484"/>
      <use xlink:href="#DejaVuSans-61" x="1842.285156"/>
      <use xlink:href="#DejaVuSans-72" x="1903.564453"/>
      <use xlink:href="#DejaVuSans-65" x="1942.427734"/>
      <use xlink:href="#DejaVuSans-61" x="2003.951172"/>
      <use xlink:href="#DejaVuSans-20" x="2065.230469"/>
      <use xlink:href="#DejaVuSans-3d" x="2097.017578"/>
      <use xlink:href="#DejaVuSans-20" x="2180.806641"/>
      <use xlink:href="#DejaVuSans-30" x="2212.59375"/>
      <use xlink:href="#DejaVuSans-2e" x="2276.216797"/>
      <use xlink:href="#DejaVuSans-37" x="2308.003906"/>
      <use xlink:href="#DejaVuSans-31" x="2371.626953"/>
      <use xlink:href="#DejaVuSans-29" x="2435.25"/>
     </g>
    </g>
   </g>
  </g>
 </g>
 <defs>
  <clipPath id="peb8bcb8229">
   <rect x="43.78125" y="22.318125" width="357.12" height="266.112"/>
  </clipPath>
 </defs>
</svg>
