<?xml version="1.0" encoding="utf-8" standalone="no"?>
<!DOCTYPE svg PUBLIC "-//W3C//DTD SVG 1.1//EN"
  "http://www.w3.org/Graphics/SVG/1.1/DTD/svg11.dtd">
<svg xmlns:xlink="http://www.w3.org/1999/xlink" width="416.052813pt" height="325.986375pt" viewBox="0 0 416.052813 325.986375" xmlns="http://www.w3.org/2000/svg" version="1.1">
 <metadata>
  <rdf:RDF xmlns:dc="http://purl.org/dc/elements/1.1/" xmlns:cc="http://creativecommons.org/ns#" xmlns:rdf="http://www.w3.org/1999/02/22-rdf-syntax-ns#">
   <cc:Work>
    <dc:type rdf:resource="http://purl.org/dc/dcmitype/StillImage"/>
    <dc:date>2022-11-25T19:27:18.148929</dc:date>
    <dc:format>image/svg+xml</dc:format>
    <dc:creator>
     <cc:Agent>
      <dc:title>Matplotlib v3.6.1, https://matplotlib.org/</dc:title>
     </cc:Agent>
    </dc:creator>
   </cc:Work>
  </rdf:RDF>
 </metadata>
 <defs>
  <style type="text/css">*{stroke-linejoin: round; stroke-linecap: butt}</style>
 </defs>
 <g id="figure_1">
  <g id="patch_1">
   <path d="M 0 325.986375 
L 416.052813 325.986375 
L 416.052813 0 
L 0 0 
z
" style="fill: #ffffff"/>
  </g>
  <g id="axes_1">
   <g id="patch_2">
    <path d="M 43.78125 288.430125 
L 400.90125 288.430125 
L 400.90125 22.318125 
L 43.78125 22.318125 
z
" style="fill: #ffffff"/>
   </g>
   <g id="matplotlib.axis_1">
    <g id="xtick_1">
     <g id="line2d_1">
      <defs>
       <path id="mc3218c64ca" d="M 0 0 
L 0 3.5 
" style="stroke: #000000; stroke-width: 0.8"/>
      </defs>
      <g>
       <use xlink:href="#mc3218c64ca" x="43.78125" y="288.430125" style="stroke: #000000; stroke-width: 0.8"/>
      </g>
     </g>
     <g id="text_1">
      <!-- 0.0 -->
      <g transform="translate(35.829688 303.028562) scale(0.1 -0.1)">
       <defs>
        <path id="DejaVuSans-30" d="M 2034 4250 
Q 1547 4250 1301 3770 
Q 1056 3291 1056 2328 
Q 1056 1369 1301 889 
Q 1547 409 2034 409 
Q 2525 409 2770 889 
Q 3016 1369 3016 2328 
Q 3016 3291 2770 3770 
Q 2525 4250 2034 4250 
z
M 2034 4750 
Q 2819 4750 3233 4129 
Q 3647 3509 3647 2328 
Q 3647 1150 3233 529 
Q 2819 -91 2034 -91 
Q 1250 -91 836 529 
Q 422 1150 422 2328 
Q 422 3509 836 4129 
Q 1250 4750 2034 4750 
z
" transform="scale(0.015625)"/>
        <path id="DejaVuSans-2e" d="M 684 794 
L 1344 794 
L 1344 0 
L 684 0 
L 684 794 
z
" transform="scale(0.015625)"/>
       </defs>
       <use xlink:href="#DejaVuSans-30"/>
       <use xlink:href="#DejaVuSans-2e" x="63.623047"/>
       <use xlink:href="#DejaVuSans-30" x="95.410156"/>
      </g>
     </g>
    </g>
    <g id="xtick_2">
     <g id="line2d_2">
      <g>
       <use xlink:href="#mc3218c64ca" x="115.20525" y="288.430125" style="stroke: #000000; stroke-width: 0.8"/>
      </g>
     </g>
     <g id="text_2">
      <!-- 0.2 -->
      <g transform="translate(107.253688 303.028562) scale(0.1 -0.1)">
       <defs>
        <path id="DejaVuSans-32" d="M 1228 531 
L 3431 531 
L 3431 0 
L 469 0 
L 469 531 
Q 828 903 1448 1529 
Q 2069 2156 2228 2338 
Q 2531 2678 2651 2914 
Q 2772 3150 2772 3378 
Q 2772 3750 2511 3984 
Q 2250 4219 1831 4219 
Q 1534 4219 1204 4116 
Q 875 4013 500 3803 
L 500 4441 
Q 881 4594 1212 4672 
Q 1544 4750 1819 4750 
Q 2544 4750 2975 4387 
Q 3406 4025 3406 3419 
Q 3406 3131 3298 2873 
Q 3191 2616 2906 2266 
Q 2828 2175 2409 1742 
Q 1991 1309 1228 531 
z
" transform="scale(0.015625)"/>
       </defs>
       <use xlink:href="#DejaVuSans-30"/>
       <use xlink:href="#DejaVuSans-2e" x="63.623047"/>
       <use xlink:href="#DejaVuSans-32" x="95.410156"/>
      </g>
     </g>
    </g>
    <g id="xtick_3">
     <g id="line2d_3">
      <g>
       <use xlink:href="#mc3218c64ca" x="186.62925" y="288.430125" style="stroke: #000000; stroke-width: 0.8"/>
      </g>
     </g>
     <g id="text_3">
      <!-- 0.4 -->
      <g transform="translate(178.677688 303.028562) scale(0.1 -0.1)">
       <defs>
        <path id="DejaVuSans-34" d="M 2419 4116 
L 825 1625 
L 2419 1625 
L 2419 4116 
z
M 2253 4666 
L 3047 4666 
L 3047 1625 
L 3713 1625 
L 3713 1100 
L 3047 1100 
L 3047 0 
L 2419 0 
L 2419 1100 
L 313 1100 
L 313 1709 
L 2253 4666 
z
" transform="scale(0.015625)"/>
       </defs>
       <use xlink:href="#DejaVuSans-30"/>
       <use xlink:href="#DejaVuSans-2e" x="63.623047"/>
       <use xlink:href="#DejaVuSans-34" x="95.410156"/>
      </g>
     </g>
    </g>
    <g id="xtick_4">
     <g id="line2d_4">
      <g>
       <use xlink:href="#mc3218c64ca" x="258.05325" y="288.430125" style="stroke: #000000; stroke-width: 0.8"/>
      </g>
     </g>
     <g id="text_4">
      <!-- 0.6 -->
      <g transform="translate(250.101688 303.028562) scale(0.1 -0.1)">
       <defs>
        <path id="DejaVuSans-36" d="M 2113 2584 
Q 1688 2584 1439 2293 
Q 1191 2003 1191 1497 
Q 1191 994 1439 701 
Q 1688 409 2113 409 
Q 2538 409 2786 701 
Q 3034 994 3034 1497 
Q 3034 2003 2786 2293 
Q 2538 2584 2113 2584 
z
M 3366 4563 
L 3366 3988 
Q 3128 4100 2886 4159 
Q 2644 4219 2406 4219 
Q 1781 4219 1451 3797 
Q 1122 3375 1075 2522 
Q 1259 2794 1537 2939 
Q 1816 3084 2150 3084 
Q 2853 3084 3261 2657 
Q 3669 2231 3669 1497 
Q 3669 778 3244 343 
Q 2819 -91 2113 -91 
Q 1303 -91 875 529 
Q 447 1150 447 2328 
Q 447 3434 972 4092 
Q 1497 4750 2381 4750 
Q 2619 4750 2861 4703 
Q 3103 4656 3366 4563 
z
" transform="scale(0.015625)"/>
       </defs>
       <use xlink:href="#DejaVuSans-30"/>
       <use xlink:href="#DejaVuSans-2e" x="63.623047"/>
       <use xlink:href="#DejaVuSans-36" x="95.410156"/>
      </g>
     </g>
    </g>
    <g id="xtick_5">
     <g id="line2d_5">
      <g>
       <use xlink:href="#mc3218c64ca" x="329.47725" y="288.430125" style="stroke: #000000; stroke-width: 0.8"/>
      </g>
     </g>
     <g id="text_5">
      <!-- 0.8 -->
      <g transform="translate(321.525688 303.028562) scale(0.1 -0.1)">
       <defs>
        <path id="DejaVuSans-38" d="M 2034 2216 
Q 1584 2216 1326 1975 
Q 1069 1734 1069 1313 
Q 1069 891 1326 650 
Q 1584 409 2034 409 
Q 2484 409 2743 651 
Q 3003 894 3003 1313 
Q 3003 1734 2745 1975 
Q 2488 2216 2034 2216 
z
M 1403 2484 
Q 997 2584 770 2862 
Q 544 3141 544 3541 
Q 544 4100 942 4425 
Q 1341 4750 2034 4750 
Q 2731 4750 3128 4425 
Q 3525 4100 3525 3541 
Q 3525 3141 3298 2862 
Q 3072 2584 2669 2484 
Q 3125 2378 3379 2068 
Q 3634 1759 3634 1313 
Q 3634 634 3220 271 
Q 2806 -91 2034 -91 
Q 1263 -91 848 271 
Q 434 634 434 1313 
Q 434 1759 690 2068 
Q 947 2378 1403 2484 
z
M 1172 3481 
Q 1172 3119 1398 2916 
Q 1625 2713 2034 2713 
Q 2441 2713 2670 2916 
Q 2900 3119 2900 3481 
Q 2900 3844 2670 4047 
Q 2441 4250 2034 4250 
Q 1625 4250 1398 4047 
Q 1172 3844 1172 3481 
z
" transform="scale(0.015625)"/>
       </defs>
       <use xlink:href="#DejaVuSans-30"/>
       <use xlink:href="#DejaVuSans-2e" x="63.623047"/>
       <use xlink:href="#DejaVuSans-38" x="95.410156"/>
      </g>
     </g>
    </g>
    <g id="xtick_6">
     <g id="line2d_6">
      <g>
       <use xlink:href="#mc3218c64ca" x="400.90125" y="288.430125" style="stroke: #000000; stroke-width: 0.8"/>
      </g>
     </g>
     <g id="text_6">
      <!-- 1.0 -->
      <g transform="translate(392.949688 303.028562) scale(0.1 -0.1)">
       <defs>
        <path id="DejaVuSans-31" d="M 794 531 
L 1825 531 
L 1825 4091 
L 703 3866 
L 703 4441 
L 1819 4666 
L 2450 4666 
L 2450 531 
L 3481 531 
L 3481 0 
L 794 0 
L 794 531 
z
" transform="scale(0.015625)"/>
       </defs>
       <use xlink:href="#DejaVuSans-31"/>
       <use xlink:href="#DejaVuSans-2e" x="63.623047"/>
       <use xlink:href="#DejaVuSans-30" x="95.410156"/>
      </g>
     </g>
    </g>
    <g id="text_7">
     <!-- False Positive Rate -->
     <g transform="translate(175.874844 316.706687) scale(0.1 -0.1)">
      <defs>
       <path id="DejaVuSans-46" d="M 628 4666 
L 3309 4666 
L 3309 4134 
L 1259 4134 
L 1259 2759 
L 3109 2759 
L 3109 2228 
L 1259 2228 
L 1259 0 
L 628 0 
L 628 4666 
z
" transform="scale(0.015625)"/>
       <path id="DejaVuSans-61" d="M 2194 1759 
Q 1497 1759 1228 1600 
Q 959 1441 959 1056 
Q 959 750 1161 570 
Q 1363 391 1709 391 
Q 2188 391 2477 730 
Q 2766 1069 2766 1631 
L 2766 1759 
L 2194 1759 
z
M 3341 1997 
L 3341 0 
L 2766 0 
L 2766 531 
Q 2569 213 2275 61 
Q 1981 -91 1556 -91 
Q 1019 -91 701 211 
Q 384 513 384 1019 
Q 384 1609 779 1909 
Q 1175 2209 1959 2209 
L 2766 2209 
L 2766 2266 
Q 2766 2663 2505 2880 
Q 2244 3097 1772 3097 
Q 1472 3097 1187 3025 
Q 903 2953 641 2809 
L 641 3341 
Q 956 3463 1253 3523 
Q 1550 3584 1831 3584 
Q 2591 3584 2966 3190 
Q 3341 2797 3341 1997 
z
" transform="scale(0.015625)"/>
       <path id="DejaVuSans-6c" d="M 603 4863 
L 1178 4863 
L 1178 0 
L 603 0 
L 603 4863 
z
" transform="scale(0.015625)"/>
       <path id="DejaVuSans-73" d="M 2834 3397 
L 2834 2853 
Q 2591 2978 2328 3040 
Q 2066 3103 1784 3103 
Q 1356 3103 1142 2972 
Q 928 2841 928 2578 
Q 928 2378 1081 2264 
Q 1234 2150 1697 2047 
L 1894 2003 
Q 2506 1872 2764 1633 
Q 3022 1394 3022 966 
Q 3022 478 2636 193 
Q 2250 -91 1575 -91 
Q 1294 -91 989 -36 
Q 684 19 347 128 
L 347 722 
Q 666 556 975 473 
Q 1284 391 1588 391 
Q 1994 391 2212 530 
Q 2431 669 2431 922 
Q 2431 1156 2273 1281 
Q 2116 1406 1581 1522 
L 1381 1569 
Q 847 1681 609 1914 
Q 372 2147 372 2553 
Q 372 3047 722 3315 
Q 1072 3584 1716 3584 
Q 2034 3584 2315 3537 
Q 2597 3491 2834 3397 
z
" transform="scale(0.015625)"/>
       <path id="DejaVuSans-65" d="M 3597 1894 
L 3597 1613 
L 953 1613 
Q 991 1019 1311 708 
Q 1631 397 2203 397 
Q 2534 397 2845 478 
Q 3156 559 3463 722 
L 3463 178 
Q 3153 47 2828 -22 
Q 2503 -91 2169 -91 
Q 1331 -91 842 396 
Q 353 884 353 1716 
Q 353 2575 817 3079 
Q 1281 3584 2069 3584 
Q 2775 3584 3186 3129 
Q 3597 2675 3597 1894 
z
M 3022 2063 
Q 3016 2534 2758 2815 
Q 2500 3097 2075 3097 
Q 1594 3097 1305 2825 
Q 1016 2553 972 2059 
L 3022 2063 
z
" transform="scale(0.015625)"/>
       <path id="DejaVuSans-20" transform="scale(0.015625)"/>
       <path id="DejaVuSans-50" d="M 1259 4147 
L 1259 2394 
L 2053 2394 
Q 2494 2394 2734 2622 
Q 2975 2850 2975 3272 
Q 2975 3691 2734 3919 
Q 2494 4147 2053 4147 
L 1259 4147 
z
M 628 4666 
L 2053 4666 
Q 2838 4666 3239 4311 
Q 3641 3956 3641 3272 
Q 3641 2581 3239 2228 
Q 2838 1875 2053 1875 
L 1259 1875 
L 1259 0 
L 628 0 
L 628 4666 
z
" transform="scale(0.015625)"/>
       <path id="DejaVuSans-6f" d="M 1959 3097 
Q 1497 3097 1228 2736 
Q 959 2375 959 1747 
Q 959 1119 1226 758 
Q 1494 397 1959 397 
Q 2419 397 2687 759 
Q 2956 1122 2956 1747 
Q 2956 2369 2687 2733 
Q 2419 3097 1959 3097 
z
M 1959 3584 
Q 2709 3584 3137 3096 
Q 3566 2609 3566 1747 
Q 3566 888 3137 398 
Q 2709 -91 1959 -91 
Q 1206 -91 779 398 
Q 353 888 353 1747 
Q 353 2609 779 3096 
Q 1206 3584 1959 3584 
z
" transform="scale(0.015625)"/>
       <path id="DejaVuSans-69" d="M 603 3500 
L 1178 3500 
L 1178 0 
L 603 0 
L 603 3500 
z
M 603 4863 
L 1178 4863 
L 1178 4134 
L 603 4134 
L 603 4863 
z
" transform="scale(0.015625)"/>
       <path id="DejaVuSans-74" d="M 1172 4494 
L 1172 3500 
L 2356 3500 
L 2356 3053 
L 1172 3053 
L 1172 1153 
Q 1172 725 1289 603 
Q 1406 481 1766 481 
L 2356 481 
L 2356 0 
L 1766 0 
Q 1100 0 847 248 
Q 594 497 594 1153 
L 594 3053 
L 172 3053 
L 172 3500 
L 594 3500 
L 594 4494 
L 1172 4494 
z
" transform="scale(0.015625)"/>
       <path id="DejaVuSans-76" d="M 191 3500 
L 800 3500 
L 1894 563 
L 2988 3500 
L 3597 3500 
L 2284 0 
L 1503 0 
L 191 3500 
z
" transform="scale(0.015625)"/>
       <path id="DejaVuSans-52" d="M 2841 2188 
Q 3044 2119 3236 1894 
Q 3428 1669 3622 1275 
L 4263 0 
L 3584 0 
L 2988 1197 
Q 2756 1666 2539 1819 
Q 2322 1972 1947 1972 
L 1259 1972 
L 1259 0 
L 628 0 
L 628 4666 
L 2053 4666 
Q 2853 4666 3247 4331 
Q 3641 3997 3641 3322 
Q 3641 2881 3436 2590 
Q 3231 2300 2841 2188 
z
M 1259 4147 
L 1259 2491 
L 2053 2491 
Q 2509 2491 2742 2702 
Q 2975 2913 2975 3322 
Q 2975 3731 2742 3939 
Q 2509 4147 2053 4147 
L 1259 4147 
z
" transform="scale(0.015625)"/>
      </defs>
      <use xlink:href="#DejaVuSans-46"/>
      <use xlink:href="#DejaVuSans-61" x="48.394531"/>
      <use xlink:href="#DejaVuSans-6c" x="109.673828"/>
      <use xlink:href="#DejaVuSans-73" x="137.457031"/>
      <use xlink:href="#DejaVuSans-65" x="189.556641"/>
      <use xlink:href="#DejaVuSans-20" x="251.080078"/>
      <use xlink:href="#DejaVuSans-50" x="282.867188"/>
      <use xlink:href="#DejaVuSans-6f" x="339.544922"/>
      <use xlink:href="#DejaVuSans-73" x="400.726562"/>
      <use xlink:href="#DejaVuSans-69" x="452.826172"/>
      <use xlink:href="#DejaVuSans-74" x="480.609375"/>
      <use xlink:href="#DejaVuSans-69" x="519.818359"/>
      <use xlink:href="#DejaVuSans-76" x="547.601562"/>
      <use xlink:href="#DejaVuSans-65" x="606.78125"/>
      <use xlink:href="#DejaVuSans-20" x="668.304688"/>
      <use xlink:href="#DejaVuSans-52" x="700.091797"/>
      <use xlink:href="#DejaVuSans-61" x="767.324219"/>
      <use xlink:href="#DejaVuSans-74" x="828.603516"/>
      <use xlink:href="#DejaVuSans-65" x="867.8125"/>
     </g>
    </g>
   </g>
   <g id="matplotlib.axis_2">
    <g id="ytick_1">
     <g id="line2d_7">
      <defs>
       <path id="me0200f38ca" d="M 0 0 
L -3.5 0 
" style="stroke: #000000; stroke-width: 0.8"/>
      </defs>
      <g>
       <use xlink:href="#me0200f38ca" x="43.78125" y="288.430125" style="stroke: #000000; stroke-width: 0.8"/>
      </g>
     </g>
     <g id="text_8">
      <!-- 0.0 -->
      <g transform="translate(20.878125 292.229344) scale(0.1 -0.1)">
       <use xlink:href="#DejaVuSans-30"/>
       <use xlink:href="#DejaVuSans-2e" x="63.623047"/>
       <use xlink:href="#DejaVuSans-30" x="95.410156"/>
      </g>
     </g>
    </g>
    <g id="ytick_2">
     <g id="line2d_8">
      <g>
       <use xlink:href="#me0200f38ca" x="43.78125" y="237.742125" style="stroke: #000000; stroke-width: 0.8"/>
      </g>
     </g>
     <g id="text_9">
      <!-- 0.2 -->
      <g transform="translate(20.878125 241.541344) scale(0.1 -0.1)">
       <use xlink:href="#DejaVuSans-30"/>
       <use xlink:href="#DejaVuSans-2e" x="63.623047"/>
       <use xlink:href="#DejaVuSans-32" x="95.410156"/>
      </g>
     </g>
    </g>
    <g id="ytick_3">
     <g id="line2d_9">
      <g>
       <use xlink:href="#me0200f38ca" x="43.78125" y="187.054125" style="stroke: #000000; stroke-width: 0.8"/>
      </g>
     </g>
     <g id="text_10">
      <!-- 0.4 -->
      <g transform="translate(20.878125 190.853344) scale(0.1 -0.1)">
       <use xlink:href="#DejaVuSans-30"/>
       <use xlink:href="#DejaVuSans-2e" x="63.623047"/>
       <use xlink:href="#DejaVuSans-34" x="95.410156"/>
      </g>
     </g>
    </g>
    <g id="ytick_4">
     <g id="line2d_10">
      <g>
       <use xlink:href="#me0200f38ca" x="43.78125" y="136.366125" style="stroke: #000000; stroke-width: 0.8"/>
      </g>
     </g>
     <g id="text_11">
      <!-- 0.6 -->
      <g transform="translate(20.878125 140.165344) scale(0.1 -0.1)">
       <use xlink:href="#DejaVuSans-30"/>
       <use xlink:href="#DejaVuSans-2e" x="63.623047"/>
       <use xlink:href="#DejaVuSans-36" x="95.410156"/>
      </g>
     </g>
    </g>
    <g id="ytick_5">
     <g id="line2d_11">
      <g>
       <use xlink:href="#me0200f38ca" x="43.78125" y="85.678125" style="stroke: #000000; stroke-width: 0.8"/>
      </g>
     </g>
     <g id="text_12">
      <!-- 0.8 -->
      <g transform="translate(20.878125 89.477344) scale(0.1 -0.1)">
       <use xlink:href="#DejaVuSans-30"/>
       <use xlink:href="#DejaVuSans-2e" x="63.623047"/>
       <use xlink:href="#DejaVuSans-38" x="95.410156"/>
      </g>
     </g>
    </g>
    <g id="ytick_6">
     <g id="line2d_12">
      <g>
       <use xlink:href="#me0200f38ca" x="43.78125" y="34.990125" style="stroke: #000000; stroke-width: 0.8"/>
      </g>
     </g>
     <g id="text_13">
      <!-- 1.0 -->
      <g transform="translate(20.878125 38.789344) scale(0.1 -0.1)">
       <use xlink:href="#DejaVuSans-31"/>
       <use xlink:href="#DejaVuSans-2e" x="63.623047"/>
       <use xlink:href="#DejaVuSans-30" x="95.410156"/>
      </g>
     </g>
    </g>
    <g id="text_14">
     <!-- True Positive Rate -->
     <g transform="translate(14.798438 199.903812) rotate(-90) scale(0.1 -0.1)">
      <defs>
       <path id="DejaVuSans-54" d="M -19 4666 
L 3928 4666 
L 3928 4134 
L 2272 4134 
L 2272 0 
L 1638 0 
L 1638 4134 
L -19 4134 
L -19 4666 
z
" transform="scale(0.015625)"/>
       <path id="DejaVuSans-72" d="M 2631 2963 
Q 2534 3019 2420 3045 
Q 2306 3072 2169 3072 
Q 1681 3072 1420 2755 
Q 1159 2438 1159 1844 
L 1159 0 
L 581 0 
L 581 3500 
L 1159 3500 
L 1159 2956 
Q 1341 3275 1631 3429 
Q 1922 3584 2338 3584 
Q 2397 3584 2469 3576 
Q 2541 3569 2628 3553 
L 2631 2963 
z
" transform="scale(0.015625)"/>
       <path id="DejaVuSans-75" d="M 544 1381 
L 544 3500 
L 1119 3500 
L 1119 1403 
Q 1119 906 1312 657 
Q 1506 409 1894 409 
Q 2359 409 2629 706 
Q 2900 1003 2900 1516 
L 2900 3500 
L 3475 3500 
L 3475 0 
L 2900 0 
L 2900 538 
Q 2691 219 2414 64 
Q 2138 -91 1772 -91 
Q 1169 -91 856 284 
Q 544 659 544 1381 
z
M 1991 3584 
L 1991 3584 
z
" transform="scale(0.015625)"/>
      </defs>
      <use xlink:href="#DejaVuSans-54"/>
      <use xlink:href="#DejaVuSans-72" x="46.333984"/>
      <use xlink:href="#DejaVuSans-75" x="87.447266"/>
      <use xlink:href="#DejaVuSans-65" x="150.826172"/>
      <use xlink:href="#DejaVuSans-20" x="212.349609"/>
      <use xlink:href="#DejaVuSans-50" x="244.136719"/>
      <use xlink:href="#DejaVuSans-6f" x="300.814453"/>
      <use xlink:href="#DejaVuSans-73" x="361.996094"/>
      <use xlink:href="#DejaVuSans-69" x="414.095703"/>
      <use xlink:href="#DejaVuSans-74" x="441.878906"/>
      <use xlink:href="#DejaVuSans-69" x="481.087891"/>
      <use xlink:href="#DejaVuSans-76" x="508.871094"/>
      <use xlink:href="#DejaVuSans-65" x="568.050781"/>
      <use xlink:href="#DejaVuSans-20" x="629.574219"/>
      <use xlink:href="#DejaVuSans-52" x="661.361328"/>
      <use xlink:href="#DejaVuSans-61" x="728.59375"/>
      <use xlink:href="#DejaVuSans-74" x="789.873047"/>
      <use xlink:href="#DejaVuSans-65" x="829.082031"/>
     </g>
    </g>
   </g>
   <g id="line2d_13">
    <path d="M 43.78125 288.430125 
L 43.888961 286.252986 
L 43.904348 286.174294 
L 44.01206 285.387376 
L 44.0236 285.308684 
L 44.200554 283.839771 
L 44.631398 280.901944 
L 44.658326 280.797022 
L 44.854514 279.564184 
L 44.881442 279.459262 
L 44.985306 278.541191 
L 45.281512 277.255892 
L 45.293052 277.255892 
L 45.366142 276.836202 
L 46.150894 273.504917 
L 46.158588 273.426225 
L 46.266299 273.085227 
L 46.712531 270.750705 
L 46.727918 270.672013 
L 46.824089 270.278554 
L 46.866404 270.173632 
L 48.885987 262.960218 
L 48.989851 262.278223 
L 49.0514 262.1733 
L 49.159111 261.832303 
L 49.193733 261.72738 
L 49.297597 261.228999 
L 49.320678 261.124077 
L 49.420695 260.704387 
L 49.424542 260.704387 
L 49.593803 260.232236 
L 49.701514 259.786316 
L 49.720748 259.681394 
L 49.828459 259.419088 
L 49.85154 259.314166 
L 49.94771 258.973168 
L 50.013107 258.868245 
L 50.074656 258.553478 
L 50.086196 258.553478 
L 50.443951 257.661638 
L 50.540122 257.215718 
L 50.543968 257.215718 
L 50.632445 257.137026 
L 52.828982 250.028535 
L 52.909766 249.949843 
L 52.909766 249.923613 
L 53.005936 249.687538 
L 53.009783 249.687538 
L 53.371385 248.638314 
L 53.463709 248.323547 
L 53.494483 248.297316 
L 54.213839 245.910332 
L 54.333091 245.83164 
L 54.436955 245.516873 
L 54.440802 245.516873 
L 54.529279 245.411951 
L 54.63699 244.992261 
L 54.702386 244.887339 
L 55.179393 243.654501 
L 55.229401 243.549579 
L 55.829506 242.159357 
L 55.93337 241.765898 
L 55.971838 241.660976 
L 56.052622 241.451131 
L 56.07955 241.451131 
L 56.252657 241.083903 
L 56.337287 240.97898 
L 56.441151 240.795366 
L 56.514241 240.716674 
L 57.002788 239.431375 
L 57.129733 239.221531 
L 57.252831 238.880533 
L 57.298993 238.880533 
L 57.433632 238.32969 
L 57.9568 236.729624 
L 58.079899 236.624702 
L 58.18761 236.362396 
L 58.218384 236.309935 
L 58.35687 235.968937 
L 58.414572 235.890245 
L 58.560752 235.627939 
L 58.603067 235.523017 
L 58.706931 235.129558 
L 58.730012 235.050866 
L 58.837723 234.631177 
L 58.887732 234.526254 
L 58.980056 234.263948 
L 59.026218 234.185256 
L 59.130082 233.975412 
L 59.133929 233.975412 
L 59.222406 233.870489 
L 59.268567 233.765567 
L 59.330117 233.765567 
L 59.360891 233.660645 
L 59.487837 233.319647 
L 60.203346 232.270423 
L 60.280282 231.876964 
L 60.284129 231.876964 
L 60.395687 231.562197 
L 60.491858 231.378583 
L 60.503398 231.378583 
L 60.541867 231.27366 
L 60.599569 231.063816 
L 61.684374 228.545679 
L 61.711301 228.493218 
L 62.026741 227.470224 
L 62.111371 227.207918 
L 62.134452 227.207918 
L 62.184461 227.102996 
L 62.292172 226.761998 
L 62.349874 226.657076 
L 62.446045 226.447231 
L 62.507594 226.421001 
L 62.761485 225.791466 
L 62.842268 225.686544 
L 62.949979 225.476699 
L 63.342355 224.847165 
L 63.365436 224.847165 
L 63.365436 224.794704 
L 63.607786 224.217631 
L 63.961694 223.693019 
L 64.061711 223.456943 
L 64.619501 222.40772 
L 64.677203 222.329028 
L 64.761834 221.9618 
L 64.781068 221.9618 
L 64.804149 221.9618 
L 64.804149 221.909338 
L 64.931094 221.463418 
L 65.015724 221.358496 
L 65.25038 220.938806 
L 65.300389 220.860115 
L 65.400407 220.624039 
L 65.4081 220.624039 
L 65.500424 220.519117 
L 65.596595 220.387964 
L 65.604288 220.387964 
L 65.700459 220.283042 
L 65.80817 220.020736 
L 65.912034 219.837121 
L 66.015899 219.75843 
L 66.088988 219.469893 
L 66.12361 219.469893 
L 67.67388 216.217299 
L 67.773898 216.086147 
L 67.781591 216.086147 
L 67.935464 215.771379 
L 67.985473 215.666457 
L 68.081644 215.456612 
L 68.093184 215.456612 
L 68.177814 215.35169 
L 68.281679 215.063153 
L 68.427858 214.958231 
L 68.527875 214.695925 
L 68.589425 214.591003 
L 68.693289 214.197544 
L 68.820234 214.092621 
L 68.912558 213.909007 
L 68.916405 213.909007 
L 68.997188 213.804085 
L 69.104899 213.489318 
L 69.11644 213.384395 
L 69.693463 212.204019 
L 69.778093 212.125327 
L 69.785787 212.125327 
L 69.943507 211.863021 
L 70.078146 211.758099 
L 70.232019 211.469562 
L 70.33973 211.36464 
L 70.432054 211.023642 
L 70.443594 211.023642 
L 70.512837 210.94495 
L 70.620548 210.708875 
L 70.65517 210.630183 
L 70.75134 210.420338 
L 70.855204 210.315416 
L 70.947528 210.05311 
L 70.974456 210.000649 
L 71.082167 209.764573 
L 71.228346 209.659651 
L 71.312977 209.318653 
L 71.336058 209.318653 
L 71.986171 208.531735 
L 72.29007 208.112046 
L 72.413169 208.007124 
L 72.52088 207.84974 
L 72.559348 207.744818 
L 72.705527 207.456281 
L 72.809392 207.351359 
L 72.809392 207.325128 
L 72.813238 207.325128 
L 73.009426 206.98413 
L 73.170993 206.590671 
L 73.613378 205.751292 
L 73.751864 205.64637 
L 73.859575 205.462756 
L 73.963439 205.384064 
L 74.067303 205.095528 
L 74.101925 204.990605 
L 74.198095 204.78076 
L 74.298113 204.675838 
L 74.413518 204.544685 
L 74.501995 204.465993 
L 74.605859 204.282379 
L 74.702029 204.177457 
L 74.778966 203.993843 
L 74.790506 203.993843 
L 74.95592 203.88892 
L 75.055937 203.626614 
L 75.098252 203.521692 
L 75.159802 203.390539 
L 75.202117 203.390539 
L 75.2829 203.285617 
L 75.382917 203.049541 
L 75.390611 203.049541 
L 75.448313 202.944619 
L 75.594493 202.682313 
L 75.967635 201.947856 
L 76.121508 201.842934 
L 76.229219 201.528167 
L 76.26384 201.423244 
L 76.65237 200.79371 
L 76.82163 200.688788 
L 76.898567 200.426482 
L 76.917801 200.426482 
L 76.975503 200.34779 
L 77.060133 200.059254 
L 77.083214 200.059254 
L 77.198619 199.954331 
L 77.310177 199.770717 
L 77.406347 199.639564 
L 77.490978 199.534642 
L 77.552527 199.48218 
L 77.590995 199.48218 
L 77.671778 199.377258 
L 77.775643 199.141183 
L 77.779489 199.141183 
L 79.218202 197.016505 
L 79.318219 196.911582 
L 79.322066 196.911582 
L 79.395156 196.885352 
L 79.491327 196.491893 
L 79.49902 196.491893 
L 79.641353 196.255817 
L 79.72983 196.150895 
L 79.833694 195.862358 
L 79.922171 195.757436 
L 80.014495 195.521361 
L 80.026035 195.521361 
L 80.22607 194.944288 
L 80.364556 194.839365 
L 80.46842 194.681982 
L 81.137768 193.763911 
L 81.295488 193.396683 
L 81.699404 192.557304 
L 81.968682 192.452381 
L 82.141789 192.032692 
L 82.222572 191.927769 
L 82.330283 191.822847 
L 82.453382 191.717925 
L 82.811137 191.167082 
L 82.884226 191.06216 
L 82.97655 191.009699 
L 82.988091 191.009699 
L 83.165044 190.904776 
L 83.295837 190.694931 
L 83.457403 190.590009 
L 83.522799 190.432626 
L 83.553574 190.432626 
L 83.584348 190.380164 
L 84.107517 189.855552 
L 84.192147 189.619477 
L 84.253696 189.514555 
L 84.34602 189.226018 
L 84.411416 189.121096 
L 84.51528 188.937482 
L 84.676847 188.832559 
L 84.826873 188.570253 
L 84.91535 188.491562 
L 85.030755 188.386639 
L 85.234636 188.098103 
L 85.319266 187.914488 
L 85.334654 187.914488 
L 85.957839 187.258724 
L 86.146334 186.839034 
L 86.411765 186.734112 
L 86.873384 185.78981 
L 87.000329 185.684888 
L 87.0965 185.501274 
L 87.161896 185.396351 
L 87.311922 185.107815 
L 87.354237 185.002893 
L 87.496569 184.793048 
L 87.658136 184.688125 
L 87.808162 184.425819 
L 88.008197 184.111052 
L 88.0659 184.00613 
L 88.165917 183.691363 
L 88.354411 183.429057 
L 88.473663 183.350365 
L 88.550599 183.11429 
L 88.569834 183.11429 
L 89.881601 180.93715 
L 90.02778 180.701075 
L 90.127798 180.596153 
L 90.327833 180.255155 
L 90.424003 180.150233 
L 90.547102 180.01908 
L 90.666353 179.940388 
L 90.75483 179.730543 
L 90.762524 179.730543 
L 90.83946 179.651851 
L 90.83946 179.625621 
L 91.043342 179.232162 
L 91.304926 179.15347 
L 91.993508 178.209169 
L 92.097372 178.104246 
L 92.185849 177.999324 
L 92.358956 177.920632 
L 92.458974 177.684557 
L 92.547451 177.579634 
L 92.685936 177.448481 
L 92.809035 177.343559 
L 92.951367 177.107484 
L 93.193717 176.609102 
L 93.236032 176.50418 
L 93.270654 176.50418 
L 93.339897 176.399258 
L 93.474536 176.215644 
L 93.49377 176.215644 
L 93.739966 175.822185 
L 93.801516 175.717262 
L 93.878452 175.533648 
L 93.90538 175.533648 
L 94.001551 175.428726 
L 94.070793 175.376265 
L 94.105415 175.376265 
L 94.928635 174.536886 
L 95.097896 174.248349 
L 95.197913 174.143427 
L 95.301777 173.85489 
L 95.382561 173.776198 
L 95.505659 173.671276 
L 95.559515 173.592584 
L 96.225015 172.674513 
L 96.305799 172.569591 
L 96.355807 172.412207 
L 96.386582 172.412207 
L 96.525068 172.359746 
L 96.586617 172.254824 
L 96.628932 172.254824 
L 96.798192 172.149901 
L 96.952065 172.018748 
L 97.063623 171.913826 
L 97.105938 171.808904 
L 97.167488 171.808904 
L 97.229037 171.730212 
L 97.259811 171.65152 
L 97.302126 171.65152 
L 97.436765 171.546598 
L 97.575251 171.310522 
L 97.667575 171.2056 
L 97.732971 171.100678 
L 97.809907 171.048216 
L 97.809907 171.021986 
L 98.633128 170.077685 
L 98.706218 169.972762 
L 98.767767 169.815379 
L 98.802388 169.815379 
L 98.844703 169.710456 
L 99.033198 169.343228 
L 99.144756 169.290767 
L 100.175705 167.900545 
L 100.275722 167.6907 
L 100.402667 167.585778 
L 100.625783 167.21855 
L 100.741188 167.113627 
L 100.825818 166.956244 
L 100.960457 166.851321 
L 101.037393 166.641477 
L 101.052781 166.641477 
L 101.152798 166.536554 
L 101.460544 166.011942 
L 101.618264 165.90702 
L 101.722128 165.775867 
L 101.725975 165.775867 
L 101.879848 165.670945 
L 101.91447 165.566022 
L 101.918316 165.566022 
L 102.295305 165.067641 
L 102.383782 164.884027 
L 102.395323 164.884027 
L 102.472259 164.779105 
L 102.537655 164.726643 
L 102.672294 164.621721 
L 102.749231 164.464337 
L 102.772312 164.464337 
L 103.160841 163.992187 
L 103.245471 163.861034 
L 103.249318 163.861034 
L 104.284114 162.706888 
L 104.441834 162.470812 
L 104.634175 162.36589 
L 104.707265 162.208506 
L 104.726499 162.208506 
L 104.74958 162.182276 
L 104.884218 161.841278 
L 105.018857 161.657664 
L 105.084253 161.578972 
L 105.188118 161.395358 
L 105.230433 161.316666 
L 105.33045 161.001899 
L 105.41508 160.923207 
L 105.522791 160.765824 
L 105.588187 160.660901 
L 105.707439 160.529748 
L 105.876699 160.424826 
L 105.876699 160.398595 
L 105.942095 160.398595 
L 106.242148 160.136289 
L 106.37294 160.005136 
L 106.480651 159.900214 
L 106.569128 159.690369 
L 106.580668 159.690369 
L 106.707614 159.585447 
L 106.723001 159.532986 
L 106.95381 159.191988 
L 107.061521 158.955913 
L 107.192313 158.85099 
L 107.265403 158.641145 
L 107.300025 158.641145 
L 107.423123 158.588684 
L 109.073411 156.464006 
L 109.173428 156.280392 
L 109.361923 156.17547 
L 109.592732 155.782011 
L 109.761993 155.677088 
L 109.858163 155.493474 
L 109.865857 155.493474 
L 110.065892 155.388552 
L 110.146675 155.204938 
L 110.150522 155.204938 
L 110.735239 154.575403 
L 110.892959 154.260636 
L 110.962202 154.155714 
L 111.050679 154.050792 
L 111.131462 153.945869 
L 111.208399 153.788486 
L 111.435361 153.683563 
L 111.566154 153.52618 
L 111.620009 153.421257 
L 111.723873 153.342565 
L 111.900827 153.10649 
L 111.95853 153.001568 
L 112.039313 152.922876 
L 112.047007 152.922876 
L 112.216267 152.817954 
L 112.316284 152.66057 
L 112.497085 152.555648 
L 112.5394 152.450725 
L 112.597103 152.450725 
L 112.689426 152.345803 
L 112.797138 152.109728 
L 112.993326 152.004805 
L 113.131811 151.76873 
L 113.235676 151.663807 
L 113.708835 151.191657 
L 113.885789 151.086734 
L 113.989653 150.929351 
L 114.185841 150.824428 
L 114.270472 150.745737 
L 114.289706 150.745737 
L 114.39357 150.640814 
L 114.497434 150.509661 
L 114.666694 150.43097 
L 114.782099 150.194894 
L 114.959053 150.089972 
L 115.016756 149.958819 
L 115.059071 149.958819 
L 115.512996 149.381746 
L 115.678409 149.276823 
L 115.855363 148.962056 
L 115.970768 148.857134 
L 116.070786 148.804673 
L 116.074632 148.804673 
L 116.132335 148.69975 
L 116.205425 148.516136 
L 116.236199 148.516136 
L 116.382378 148.2276 
L 116.528558 148.148908 
L 116.528558 148.122677 
L 116.643963 148.017755 
L 116.75552 147.912833 
L 116.847844 147.755449 
L 116.859385 147.755449 
L 116.963249 147.650527 
L 117.07096 147.519374 
L 117.170978 147.414451 
L 117.236374 147.257068 
L 117.270995 147.257068 
L 117.336391 147.178376 
L 117.813397 146.758686 
L 117.898028 146.601303 
L 118.201927 146.076691 
L 118.425043 145.971769 
L 118.5366 145.735693 
L 118.640465 145.630771 
L 118.748176 145.552079 
L 118.863581 145.447157 
L 118.932823 145.316004 
L 118.967445 145.316004 
L 119.055922 145.211081 
L 119.140552 145.027467 
L 119.240569 144.975006 
L 119.240569 144.948775 
L 119.352127 144.7127 
L 119.475226 144.529086 
L 119.629099 144.188088 
L 119.729116 144.083166 
L 119.879142 143.794629 
L 119.956079 143.689707 
L 120.090718 143.532323 
L 120.23305 143.427401 
L 120.336915 143.243787 
L 120.613886 143.138864 
L 120.748525 142.797867 
L 120.971641 142.692944 
L 121.071658 142.50933 
L 121.137054 142.404408 
L 121.229378 142.351947 
L 121.244765 142.351947 
L 121.683303 141.61749 
L 123.464383 139.440351 
L 123.572094 139.361659 
L 123.737508 139.256736 
L 123.825985 139.073122 
L 123.829832 139.073122 
L 123.979858 138.9682 
L 124.12219 138.732125 
L 124.206821 138.627202 
L 124.329919 138.496049 
L 124.399162 138.391127 
L 124.399162 138.338666 
L 124.43763 138.338666 
L 125.572443 137.446825 
L 125.907117 137.341903 
L 126.607239 136.738599 
L 126.707257 136.554985 
L 126.738031 136.450063 
L 126.78804 136.371371 
L 126.807274 136.371371 
L 126.972688 136.266449 
L 127.072705 136.161526 
L 127.076552 136.161526 
L 127.334289 135.663145 
L 127.657423 135.322147 
L 127.711278 135.217225 
L 127.807449 135.086072 
L 127.818989 135.086072 
L 127.98825 135.00738 
L 128.08442 134.823766 
L 128.222906 134.718844 
L 128.307536 134.613921 
L 128.376779 134.53523 
L 128.449869 134.456538 
L 128.480643 134.456538 
L 128.65375 134.351615 
L 128.757615 134.194232 
L 129.007658 134.089309 
L 129.246161 133.800773 
L 129.280783 133.774542 
L 129.36926 133.590928 
L 129.384647 133.590928 
L 129.46543 133.512236 
L 129.561601 133.302392 
L 129.69624 133.197469 
L 129.773176 132.987624 
L 129.873194 132.882702 
L 129.930896 132.830241 
L 129.965518 132.830241 
L 130.242489 132.77778 
L 130.369434 132.646627 
L 130.646406 132.541704 
L 130.773351 132.279398 
L 130.934917 132.174476 
L 131.058016 132.069554 
L 131.123412 131.990862 
L 131.196502 131.754787 
L 131.231123 131.754787 
L 131.284979 131.676095 
L 131.377302 131.571172 
L 131.542716 131.46625 
L 131.650427 131.308866 
L 131.831228 131.203944 
L 131.87739 131.151483 
L 131.904317 131.151483 
L 132.500575 130.57441 
L 132.585205 130.495718 
L 132.692917 130.364565 
L 132.835249 130.285873 
L 132.904492 129.997337 
L 132.912186 129.997337 
L 133.046824 129.892414 
L 133.104527 129.787492 
L 133.142995 129.787492 
L 133.296868 129.7088 
L 133.296868 129.656339 
L 133.404579 129.656339 
L 133.612308 129.577647 
L 133.789262 129.315341 
L 133.973909 129.23665 
L 134.177791 129.053035 
L 134.381673 128.948113 
L 134.450916 128.869421 
L 134.48169 128.869421 
L 134.63941 128.764499 
L 134.689419 128.712038 
L 134.747121 128.712038 
L 134.989471 128.607115 
L 135.062561 128.502193 
L 135.243361 128.397271 
L 135.351073 128.292348 
L 135.585729 128.187426 
L 135.724215 128.082503 
L 135.881934 127.977581 
L 135.985799 127.872659 
L 135.989646 127.872659 
L 136.112744 127.793967 
L 136.155059 127.689044 
L 136.174293 127.636583 
L 136.258923 127.636583 
L 136.412796 127.557892 
L 136.555129 127.374277 
L 136.678227 127.321816 
L 136.678227 127.295586 
L 136.678227 127.243124 
L 136.785938 127.243124 
L 136.943658 127.05951 
L 137.120612 126.954588 
L 137.24371 126.823435 
L 137.289872 126.770974 
L 137.343728 126.666051 
L 137.386043 126.666051 
L 137.539916 126.482437 
L 137.697636 126.377515 
L 137.809194 126.272592 
L 137.905364 126.16767 
L 137.932292 126.088978 
L 137.986148 126.088978 
L 138.505469 125.590597 
L 138.617027 125.511905 
L 138.85553 125.406983 
L 138.955548 125.27583 
L 139.063259 125.170907 
L 139.17097 125.013524 
L 139.297915 124.908602 
L 139.32869 124.85614 
L 139.401779 124.85614 
L 139.621048 124.751218 
L 139.697985 124.672526 
L 139.886479 124.567604 
L 140.013425 124.436451 
L 140.201919 124.331528 
L 140.267315 124.226606 
L 140.30963 124.226606 
L 140.340405 124.147914 
L 140.571214 123.885608 
L 140.755862 123.780686 
L 140.902041 123.675764 
L 141.102076 123.570841 
L 141.20594 123.360996 
L 141.36366 123.282305 
L 141.432903 123.151152 
L 141.471371 123.151152 
L 141.621397 123.07246 
L 141.736802 122.941307 
L 141.975305 122.836385 
L 142.075323 122.62654 
L 142.179187 122.521617 
L 142.286898 122.364234 
L 142.513861 122.259312 
L 142.610031 122.154389 
L 142.613878 122.154389 
L 142.863922 121.944544 
L 142.960092 121.839622 
L 143.033182 121.76093 
L 143.033182 121.7347 
L 143.148587 121.551085 
L 143.325541 121.446163 
L 143.410171 121.341241 
L 143.429405 121.341241 
L 143.644827 121.236318 
L 143.687142 121.105165 
L 143.752538 121.105165 
L 143.867943 121.000243 
L 143.95642 120.816629 
L 143.975654 120.816629 
L 144.117987 120.711706 
L 144.221851 120.554323 
L 144.44112 120.449401 
L 144.560372 120.370709 
L 144.67193 120.265786 
L 144.779641 120.187095 
L 145.318196 119.636252 
L 145.418214 119.53133 
L 145.502844 119.373946 
L 145.525925 119.373946 
L 145.645176 119.269024 
L 145.722113 119.137871 
L 145.749041 119.137871 
L 145.941382 118.875565 
L 146.226047 118.482106 
L 146.322218 118.403414 
L 146.322218 118.377184 
L 146.456856 118.2198 
L 146.645351 118.114878 
L 146.749215 117.852572 
L 147.010799 117.747649 
L 147.110817 117.616496 
L 147.222375 117.511574 
L 147.337779 117.35419 
L 147.453184 117.249268 
L 147.453184 117.223037 
L 147.514733 117.223037 
L 147.691687 117.118115 
L 147.799398 116.986962 
L 147.857101 116.88204 
L 147.968659 116.855809 
L 148.126378 116.750887 
L 148.24563 116.619734 
L 148.372575 116.514811 
L 148.480286 116.46235 
L 148.599538 116.383658 
L 148.780339 116.278736 
L 148.799573 116.226275 
L 148.849582 116.226275 
L 149.05731 116.147583 
L 149.122706 116.042661 
L 149.165021 116.042661 
L 149.407371 115.937738 
L 149.515082 115.832816 
L 149.638181 115.727894 
L 149.738198 115.465588 
L 149.745892 115.465588 
L 150.02671 115.360665 
L 150.107493 115.255743 
L 150.365231 115.150821 
L 150.422933 114.993437 
L 150.472942 114.993437 
L 150.588346 114.888515 
L 150.692211 114.809823 
L 150.784535 114.7049 
L 150.842237 114.626209 
L 150.884552 114.626209 
L 151.088434 114.521286 
L 151.188451 114.337672 
L 151.342324 114.23275 
L 151.473116 114.101597 
L 151.530819 113.996674 
L 151.661611 113.81306 
L 151.727007 113.708138 
L 151.7347 113.655677 
L 151.834718 113.655677 
L 151.96551 113.576985 
L 151.96551 113.524524 
L 152.065527 113.524524 
L 152.250175 113.419601 
L 152.338652 113.34091 
L 152.357886 113.34091 
L 152.446363 113.235987 
L 152.554074 113.104834 
L 152.677172 112.999912 
L 152.773343 112.868759 
L 152.93491 112.763836 
L 153.046468 112.711375 
L 153.165719 112.606453 
L 153.304205 112.527761 
L 153.43115 112.422839 
L 153.465772 112.344147 
L 153.511933 112.344147 
L 153.708122 112.239225 
L 153.808139 112.160533 
L 153.869688 112.05561 
L 153.91585 111.976919 
L 153.977399 111.976919 
L 154.07357 111.898227 
L 154.07357 111.871996 
L 155.573832 110.455544 
L 155.804641 110.350622 
L 155.877731 110.245699 
L 156.035451 110.140777 
L 156.139315 110.062085 
L 156.41244 109.957163 
L 156.41244 109.930932 
L 156.49707 109.930932 
L 156.670177 109.82601 
L 156.797122 109.721088 
L 156.974076 109.485012 
L 157.197192 109.38009 
L 157.262588 109.327629 
L 157.289516 109.327629 
L 157.46647 109.222706 
L 157.543406 109.117784 
L 157.558793 109.117784 
L 157.874233 109.012861 
L 157.943476 108.855478 
L 157.981944 108.855478 
L 158.101196 108.776786 
L 158.266609 108.671864 
L 158.558968 108.566941 
L 158.658985 108.435788 
L 158.85902 108.330866 
L 158.982119 108.225944 
L 159.182154 108.121021 
L 159.351414 107.937407 
L 159.462972 107.858715 
L 159.616845 107.675101 
L 159.878429 107.570179 
L 159.963059 107.491487 
L 159.982293 107.491487 
L 160.113085 107.386565 
L 160.30158 107.307873 
L 160.586245 107.202951 
L 160.690109 107.098028 
L 160.736271 107.019336 
L 160.928612 106.861953 
L 161.163268 106.75703 
L 161.290214 106.652108 
L 161.424853 106.547186 
L 161.528717 106.363571 
L 161.532564 106.363571 
L 161.751833 106.258649 
L 161.774914 106.206188 
L 161.855697 106.206188 
L 162.136515 106.101266 
L 162.224992 105.891421 
L 162.328856 105.786498 
L 162.363478 105.734037 
L 162.436567 105.734037 
L 162.713539 105.629115 
L 162.728926 105.524192 
L 162.817403 105.524192 
L 162.936655 105.41927 
L 162.994357 105.288117 
L 163.032825 105.288117 
L 163.363652 105.183195 
L 163.436742 105.052042 
L 163.459823 105.052042 
L 163.709867 104.815966 
L 163.913748 104.711044 
L 164.006072 104.606122 
L 164.179179 104.52743 
L 164.283044 104.422508 
L 164.544628 104.317585 
L 164.656186 104.238893 
L 164.871608 104.133971 
L 164.979319 104.002818 
L 165.121651 103.924126 
L 165.121651 103.897896 
L 165.225516 103.819204 
L 165.667901 103.63559 
L 165.775612 103.530667 
L 165.871782 103.373284 
L 166.279546 103.268361 
L 166.341095 103.2159 
L 166.368023 103.2159 
L 166.537283 103.110978 
L 166.644994 102.874902 
L 166.798867 102.76998 
L 166.895038 102.586366 
L 167.175856 102.481444 
L 167.237405 102.376521 
L 167.245099 102.376521 
L 167.460521 102.271599 
L 167.560538 102.140446 
L 167.83751 102.035523 
L 167.925987 102.009293 
L 168.114481 101.90437 
L 168.245273 101.851909 
L 168.349138 101.746987 
L 168.456849 101.668295 
L 168.599181 101.563373 
L 168.699199 101.405989 
L 169.003098 101.327297 
L 169.103115 101.143683 
L 169.214673 101.038761 
L 169.314691 100.855147 
L 169.641671 100.750224 
L 169.707067 100.645302 
L 169.730148 100.645302 
L 169.849399 100.54038 
L 169.94557 100.382996 
L 169.95711 100.382996 
L 170.076362 100.278074 
L 170.153298 100.199382 
L 170.180226 100.199382 
L 170.314865 100.09446 
L 170.422576 99.989537 
L 170.545675 99.884615 
L 170.67262 99.805923 
L 170.876502 99.701001 
L 170.980366 99.622309 
L 171.07269 99.517386 
L 171.176554 99.386233 
L 171.353508 99.281311 
L 171.491994 99.22885 
L 171.680488 99.123928 
L 171.861289 98.966544 
L 171.988234 98.861622 
L 172.065171 98.704238 
L 172.095945 98.704238 
L 172.349836 98.599316 
L 172.426772 98.520624 
L 172.442159 98.520624 
L 172.62296 98.415701 
L 172.722978 98.258318 
L 172.842229 98.153396 
L 172.988409 97.864859 
L 173.080732 97.759937 
L 173.211524 97.576322 
L 173.273074 97.4714 
L 173.365397 97.340247 
L 173.707765 97.261555 
L 173.780854 97.156633 
L 173.815476 97.156633 
L 174.069366 97.051711 
L 174.177077 96.973019 
L 174.369419 96.868096 
L 174.400193 96.789405 
L 174.473283 96.789405 
L 174.665624 96.684482 
L 174.781029 96.57956 
L 175.061847 96.474638 
L 175.292657 96.343485 
L 175.588862 96.238562 
L 175.673492 96.13364 
L 175.681186 96.13364 
L 176.062022 96.028717 
L 176.131265 95.976256 
L 176.138958 95.976256 
L 176.408236 95.871334 
L 176.419776 95.818873 
L 176.508253 95.818873 
L 176.650586 95.792642 
L 176.808306 95.71395 
L 176.808306 95.68772 
L 177.250691 95.399183 
L 177.366095 95.294261 
L 177.516122 95.163108 
L 177.635373 95.058185 
L 177.693075 94.953263 
L 177.739237 94.953263 
L 177.946966 94.874571 
L 177.946966 94.848341 
L 178.066218 94.638496 
L 178.412432 94.533574 
L 178.504756 94.402421 
L 178.520143 94.402421 
L 178.670169 94.323729 
L 178.712484 94.166345 
L 178.754799 94.166345 
L 178.927906 94.061423 
L 179.327976 93.825348 
L 179.689578 93.720425 
L 179.770361 93.589272 
L 179.793442 93.589272 
L 179.924234 93.48435 
L 180.335844 93.274505 
L 180.555113 93.169583 
L 180.720527 93.090891 
L 180.928255 92.985969 
L 181.066741 92.881046 
L 181.182146 92.776124 
L 181.21292 92.723663 
L 181.436036 92.644971 
L 181.436036 92.59251 
L 181.539901 92.59251 
L 181.68608 92.513818 
L 181.68608 92.487587 
L 181.870727 92.382665 
L 182.213095 92.277742 
L 182.213095 92.251512 
L 182.309266 92.251512 
L 182.459292 92.14659 
L 182.828587 91.936745 
L 183.101711 91.831822 
L 183.201729 91.779361 
L 183.855689 91.674439 
L 183.955707 91.543286 
L 184.20575 91.464594 
L 184.294227 91.359672 
L 184.498109 91.254749 
L 184.894332 91.018674 
L 185.094367 90.913752 
L 185.117448 90.86129 
L 185.194384 90.86129 
L 185.359798 90.756368 
L 185.475202 90.703907 
L 185.809876 90.598984 
L 185.925281 90.546523 
L 186.05992 90.441601 
L 186.152244 90.284217 
L 186.159937 90.284217 
L 186.61771 90.179295 
L 186.652331 90.100603 
L 186.725421 90.100603 
L 186.829285 89.995681 
L 186.894681 89.94322 
L 186.910068 89.94322 
L 187.021626 89.838297 
L 187.079329 89.759605 
L 187.121644 89.759605 
L 187.398615 89.549761 
L 187.633271 89.444838 
L 187.994873 89.182532 
L 188.183367 89.07761 
L 188.641139 88.867765 
L 189.002741 88.762843 
L 189.087371 88.65792 
L 189.102758 88.65792 
L 189.341262 88.552998 
L 189.422045 88.421845 
L 189.441279 88.421845 
L 189.625927 88.316923 
L 189.69517 88.18577 
L 189.710557 88.18577 
L 190.056771 88.080847 
L 190.11832 88.002156 
L 190.152942 88.002156 
L 190.306815 87.897233 
L 190.383751 87.792311 
L 190.822289 87.687389 
L 190.926154 87.556236 
L 191.183891 87.451313 
L 191.24544 87.267699 
L 191.291602 87.267699 
L 191.445475 87.162777 
L 191.526258 87.110315 
L 191.549339 87.110315 
L 191.714753 87.005393 
L 193.880515 85.772555 
L 194.119018 85.667633 
L 194.230576 85.615172 
L 194.476773 85.53648 
L 194.584484 85.405327 
L 194.719123 85.300404 
L 194.8076 85.143021 
L 194.815294 85.143021 
L 195.138427 85.011868 
L 195.388471 84.906946 
L 195.515416 84.749562 
L 195.596199 84.64464 
L 195.603893 84.592178 
L 195.680829 84.592178 
L 196.150142 84.487256 
L 196.35787 84.172489 
L 196.546365 84.015105 
L 196.754093 83.910183 
L 196.823336 83.805261 
L 196.861805 83.805261 
L 197.184938 83.700338 
L 197.261874 83.569185 
L 197.469603 83.464263 
L 197.55808 83.35934 
L 197.915835 83.254418 
L 197.996618 83.123265 
L 198.185112 83.018343 
L 198.227427 82.939651 
L 198.281283 82.939651 
L 198.481318 82.834729 
L 198.508246 82.756037 
L 198.589029 82.756037 
L 199.077576 82.651114 
L 199.450718 82.415039 
L 199.689221 82.310117 
L 199.689221 82.257656 
L 199.754617 82.257656 
L 200.023895 82.152733 
L 200.07775 82.100272 
L 200.131606 82.100272 
L 200.500901 81.99535 
L 200.585531 81.916658 
L 200.608612 81.916658 
L 200.835575 81.811735 
L 200.885583 81.733044 
L 200.916358 81.733044 
L 201.012529 81.628121 
L 201.085618 81.57566 
L 201.12024 81.57566 
L 201.21641 81.470738 
L 201.227951 81.392046 
L 201.247185 81.392046 
L 201.528003 81.287124 
L 201.639561 81.155971 
L 202.01655 81.051048 
L 202.147342 80.893665 
L 202.239666 80.788742 
L 202.301215 80.736281 
L 202.339683 80.736281 
L 202.716672 80.631359 
L 202.805149 80.526436 
L 202.824383 80.526436 
L 203.220606 80.421514 
L 203.282155 80.316592 
L 203.328317 80.316592 
L 203.689919 80.2379 
L 203.805324 80.185439 
L 203.889954 80.080516 
L 204.03998 79.949363 
L 204.309258 79.870671 
L 204.455437 79.765749 
L 205.044001 79.660827 
L 205.101704 79.582135 
L 205.470999 79.503443 
L 205.609485 79.37229 
L 205.840294 79.267368 
L 205.90569 79.188676 
L 205.944158 79.188676 
L 206.140346 79.083754 
L 206.228823 79.005062 
L 206.248058 79.005062 
L 206.609659 78.900139 
L 206.690442 78.795217 
L 206.971261 78.690295 
L 207.109746 78.611603 
L 207.259773 78.532911 
L 207.35979 78.427989 
L 207.363637 78.427989 
L 207.671383 78.323066 
L 207.709851 78.191913 
L 207.740626 78.191913 
L 207.963742 78.086991 
L 207.967588 78.03453 
L 208.048372 78.03453 
L 208.417667 77.929608 
L 208.417667 77.903377 
L 208.525378 77.903377 
L 208.760034 77.798455 
L 208.894673 77.61484 
L 209.090861 77.509918 
L 209.160104 77.431226 
L 209.179338 77.431226 
L 209.421688 77.326304 
L 209.544787 77.16892 
L 209.767902 77.090228 
L 209.944856 76.959076 
L 210.310305 76.854153 
L 210.406475 76.801692 
L 210.414169 76.801692 
L 210.818086 76.69677 
L 211.002733 76.591847 
L 211.283552 76.486925 
L 211.40665 76.355772 
L 211.756711 76.250849 
L 211.89135 76.224619 
L 212.099078 76.119697 
L 212.202943 76.014774 
L 212.433752 75.909852 
L 212.529923 75.804929 
L 212.829975 75.700007 
L 212.891524 75.568854 
L 212.899218 75.568854 
L 213.237739 75.463932 
L 213.433927 75.280318 
L 213.699358 75.201626 
L 213.718592 75.096703 
L 213.799375 75.096703 
L 214.045572 74.991781 
L 214.045572 74.96555 
L 214.149436 74.96555 
L 214.345624 74.860628 
L 214.476416 74.808167 
L 214.699532 74.703244 
L 214.699532 74.677014 
L 214.79955 74.677014 
L 215.080368 74.572091 
L 215.164998 74.467169 
L 215.53814 74.362247 
L 215.634311 74.309786 
L 216.076695 74.204863 
L 216.080542 74.152402 
L 216.145938 74.152402 
L 216.395982 74.04748 
L 216.538314 73.785174 
L 216.780664 73.680251 
L 216.830673 73.62779 
L 216.884529 73.62779 
L 217.038402 73.522868 
L 217.203815 73.417945 
L 217.315373 73.313023 
L 217.400003 73.234331 
L 217.942406 73.129409 
L 218.04627 72.972025 
L 218.319394 72.867103 
L 218.407871 72.76218 
L 218.423259 72.76218 
L 218.550204 72.657258 
L 218.588672 72.604797 
L 218.657915 72.604797 
L 219.165696 72.499875 
L 219.334956 72.368722 
L 219.75426 72.263799 
L 219.835044 72.132646 
L 219.858124 72.132646 
L 220.077393 72.053954 
L 220.223573 71.949032 
L 220.708273 71.84411 
L 220.708273 71.817879 
L 220.815984 71.817879 
L 221.412242 71.712957 
L 221.469944 71.634265 
L 221.516106 71.634265 
L 221.773843 71.555573 
L 222.170066 71.319498 
L 222.697081 71.214575 
L 222.824027 71.109653 
L 223.047142 71.004731 
L 223.135619 70.873578 
L 223.14716 70.873578 
L 223.40105 70.768655 
L 223.497221 70.716194 
L 223.508761 70.716194 
L 223.80112 70.611272 
L 223.878057 70.53258 
L 223.901138 70.53258 
L 224.170415 70.427658 
L 224.178109 70.401427 
L 224.251199 70.401427 
L 224.785907 70.296505 
L 225.109041 70.165352 
L 225.336003 70.060429 
L 225.801469 69.876815 
L 225.966883 69.771893 
L 226.074594 69.745662 
L 226.23616 69.64074 
L 226.313097 69.588279 
L 226.336178 69.588279 
L 226.690086 69.483356 
L 226.79395 69.22105 
L 226.913202 69.116128 
L 227.0363 69.037436 
L 227.359433 68.932514 
L 227.467144 68.853822 
L 227.947997 68.7489 
L 228.028781 68.643977 
L 228.048015 68.643977 
L 228.371148 68.539055 
L 228.4904 68.486594 
L 228.644273 68.381671 
L 228.713516 68.32921 
L 228.725056 68.32921 
L 229.009721 68.224288 
L 229.044343 68.145596 
L 229.105892 68.145596 
L 229.440566 68.040674 
L 229.517502 67.935751 
L 229.54443 67.935751 
L 229.732924 67.857059 
L 229.813708 67.725906 
L 229.836789 67.725906 
L 230.109913 67.620984 
L 230.236858 67.516062 
L 230.506136 67.411139 
L 230.51383 67.384909 
L 230.613847 67.384909 
L 231.17933 67.279986 
L 231.260114 67.201295 
L 231.275501 67.201295 
L 231.798669 67.096372 
L 231.960236 67.043911 
L 232.494945 66.965219 
L 232.494945 66.938989 
L 232.62189 66.886527 
L 232.860393 66.781605 
L 232.929636 66.676683 
L 232.956564 66.676683 
L 233.252769 66.57176 
L 233.306625 66.440607 
L 233.333552 66.440607 
L 233.933657 66.335685 
L 233.933657 66.309454 
L 234.041368 66.309454 
L 234.179854 66.230763 
L 234.437591 66.12584 
L 234.552996 66.020918 
L 235.04539 65.915995 
L 235.13002 65.837304 
L 235.487774 65.758612 
L 235.572405 65.627459 
L 235.587792 65.627459 
L 236.230212 65.522537 
L 236.318689 65.470075 
L 236.330229 65.470075 
L 236.557192 65.365153 
L 236.653362 65.286461 
L 236.807235 65.181539 
L 236.807235 65.155308 
L 236.9111 65.155308 
L 237.222693 65.050386 
L 237.291935 64.997925 
L 237.307323 64.997925 
L 237.430421 64.893002 
L 237.591988 64.78808 
L 237.838185 64.709388 
L 237.992058 64.604466 
L 238.495992 64.499543 
L 238.657558 64.315929 
L 239.119177 64.211007 
L 239.226888 64.106084 
L 239.715435 64.001162 
L 239.792372 63.92247 
L 239.815453 63.92247 
L 240.096271 63.817548 
L 240.111658 63.765087 
L 240.200135 63.765087 
L 240.47326 63.660164 
L 240.492494 63.607703 
L 240.580971 63.607703 
L 240.95796 63.502781 
L 241.134914 63.345397 
L 241.29648 63.240475 
L 241.29648 63.214244 
L 241.392651 63.214244 
L 241.650388 63.109322 
L 241.750406 63.083091 
L 242.577473 62.978169 
L 242.685184 62.925708 
L 242.973696 62.820785 
L 243.092948 62.742094 
L 243.593035 62.637171 
L 243.593035 62.610941 
L 243.700746 62.610941 
L 244.377787 62.506018 
L 244.377787 62.479788 
L 244.481651 62.479788 
L 244.8471 62.374865 
L 245.097143 62.296173 
L 245.651086 62.191251 
L 245.728023 62.086329 
L 245.75495 62.086329 
L 246.174254 61.981406 
L 246.201182 61.928945 
L 246.243497 61.928945 
L 246.508928 61.824023 
L 246.63972 61.771562 
L 247.093646 61.666639 
L 247.109033 61.614178 
L 247.182123 61.614178 
L 247.332149 61.509256 
L 247.389851 61.404333 
L 247.412932 61.404333 
L 247.974568 61.299411 
L 248.097667 61.168258 
L 248.25154 61.063336 
L 248.340017 60.958413 
L 248.359251 60.958413 
L 248.720853 60.853491 
L 248.720853 60.82726 
L 248.824717 60.82726 
L 249.217093 60.722338 
L 249.320957 60.643646 
L 249.755648 60.538724 
L 249.905675 60.460032 
L 250.290357 60.355109 
L 250.832759 60.250187 
L 251.540575 59.856728 
L 251.586737 59.778036 
L 251.648286 59.778036 
L 252.052203 59.673114 
L 252.236851 59.620653 
L 252.609993 59.51573 
L 252.756172 59.4895 
L 253.225485 59.384577 
L 253.367817 59.305886 
L 253.714031 59.200963 
L 253.767887 59.06981 
L 253.821742 59.06981 
L 253.987156 58.964888 
L 254.094867 58.912427 
L 254.387226 58.807504 
L 254.49109 58.781274 
L 254.783449 58.676351 
L 254.887313 58.62389 
L 255.433562 58.518968 
L 255.556661 58.414046 
L 255.991352 58.309123 
L 256.056748 58.230431 
L 256.095216 58.230431 
L 256.422196 58.125509 
L 256.479899 58.020587 
L 256.529907 58.020587 
L 256.983833 57.915664 
L 257.114625 57.784511 
L 258.007088 57.679589 
L 258.087871 57.600897 
L 258.107106 57.600897 
L 258.391771 57.522205 
L 258.507175 57.417283 
L 258.811075 57.312361 
L 258.818768 57.28613 
L 258.918786 57.28613 
L 259.176523 57.207438 
L 259.280387 57.154977 
L 259.926654 57.050055 
L 259.995897 56.997593 
L 260.034365 56.997593 
L 260.530605 56.892671 
L 260.672938 56.787749 
L 260.999918 56.682826 
L 261.111476 56.630365 
L 261.353826 56.525443 
L 261.453843 56.39429 
L 261.792364 56.289367 
L 261.973165 56.210676 
L 262.361694 56.105753 
L 262.446324 56.027061 
L 262.461711 56.027061 
L 262.715602 55.922139 
L 262.738683 55.843447 
L 262.823313 55.843447 
L 262.927177 55.817217 
L 263.269545 55.712294 
L 263.269545 55.686064 
L 263.369562 55.686064 
L 263.869649 55.581141 
L 263.931199 55.52868 
L 263.942739 55.52868 
L 264.52361 55.423758 
L 264.69287 55.345066 
L 265.112174 55.240144 
L 265.192957 55.187682 
L 265.323749 55.108991 
L 265.396839 55.030299 
L 265.808449 54.925377 
L 265.912313 54.846685 
L 265.91616 54.846685 
L 266.347005 54.741762 
L 266.366239 54.689301 
L 266.423941 54.689301 
L 267.054821 54.584379 
L 267.054821 54.531918 
L 267.12791 54.531918 
L 267.508746 54.453226 
L 267.754943 54.322073 
L 268.420443 54.21715 
L 268.562776 54.138459 
L 268.805126 54.033536 
L 268.882062 53.981075 
L 268.912837 53.981075 
L 269.443699 53.876153 
L 269.582185 53.823692 
L 269.913012 53.718769 
L 269.924552 53.666308 
L 270.016876 53.666308 
L 270.393865 53.561386 
L 270.44772 53.482694 
L 270.497729 53.482694 
L 270.76316 53.377771 
L 270.76316 53.351541 
L 270.863177 53.351541 
L 271.251707 53.246618 
L 271.274788 53.194157 
L 271.347877 53.194157 
L 271.81719 53.089235 
L 271.913361 53.063004 
L 272.255728 52.984313 
L 272.355745 52.85316 
L 272.359592 52.85316 
L 272.582708 52.748237 
L 272.705806 52.669545 
L 273.194353 52.564623 
L 273.286677 52.512162 
L 273.590576 52.407239 
L 273.648279 52.354778 
L 273.698287 52.354778 
L 273.940637 52.249856 
L 274.140672 52.118703 
L 274.498427 52.013781 
L 274.625372 51.961319 
L 275.287026 51.856397 
L 275.321647 51.830166 
L 275.394737 51.830166 
L 275.760186 51.725244 
L 275.867897 51.672783 
L 276.456461 51.56786 
L 276.568019 51.515399 
L 276.894999 51.410477 
L 276.925774 51.358016 
L 276.941161 51.358016 
L 277.287375 51.253093 
L 277.383546 51.174402 
L 277.525878 51.069479 
L 277.64513 51.017018 
L 277.987497 50.912096 
L 278.025965 50.833404 
L 278.095208 50.833404 
L 278.587602 50.728481 
L 278.676079 50.67602 
L 278.687619 50.67602 
L 279.637785 50.571098 
L 279.657019 50.518637 
L 279.726262 50.518637 
L 280.184034 50.413714 
L 280.291745 50.335023 
L 280.984174 50.2301 
L 281.022642 50.177639 
L 281.091885 50.177639 
L 281.718917 50.072717 
L 281.722764 50.046486 
L 281.818935 50.046486 
L 282.407499 49.941564 
L 282.442121 49.889102 
L 282.507517 49.889102 
L 282.899893 49.78418 
L 283.011451 49.705488 
L 283.665411 49.600566 
L 283.823131 49.521874 
L 284.107796 49.416952 
L 284.20012 49.390721 
L 284.85408 49.312029 
L 284.984872 49.233338 
L 285.708075 49.154646 
L 286.262018 48.997262 
L 287.223724 48.89234 
L 287.312201 48.813648 
L 287.319895 48.813648 
L 287.523776 48.708726 
L 287.523776 48.682495 
L 287.631488 48.682495 
L 287.93154 48.577573 
L 288.00463 48.525112 
L 288.035404 48.525112 
L 288.385465 48.420189 
L 288.400853 48.393959 
L 288.450861 48.393959 
L 289.05866 48.289036 
L 289.15483 48.210344 
L 289.166371 48.210344 
L 289.939583 48.105422 
L 290.035753 48.052961 
L 291.182107 47.948038 
L 291.224422 47.895577 
L 291.278278 47.895577 
L 292.005328 47.790655 
L 292.109192 47.738194 
L 292.736224 47.633271 
L 292.782386 47.55458 
L 292.836242 47.55458 
L 293.170916 47.449657 
L 293.267086 47.370965 
L 293.278627 47.370965 
L 294.140315 47.266043 
L 294.290342 47.108659 
L 294.575007 47.003737 
L 294.786582 46.977506 
L 295.352065 46.872584 
L 295.355912 46.820123 
L 295.440542 46.820123 
L 295.590568 46.715201 
L 295.598262 46.662739 
L 295.69828 46.662739 
L 296.186826 46.557817 
L 296.390708 46.531586 
L 296.786931 46.426664 
L 296.910029 46.374203 
L 297.371648 46.26928 
L 297.444738 46.190589 
L 297.471666 46.190589 
L 297.829421 46.085666 
L 297.925591 46.059436 
L 298.61802 45.954513 
L 298.691109 45.902052 
L 298.718037 45.902052 
L 299.137341 45.79713 
L 299.233512 45.718438 
L 299.241205 45.718438 
L 299.864391 45.613516 
L 299.864391 45.587285 
L 299.883625 45.587285 
L 301.887821 45.272518 
L 302.58025 45.167596 
L 302.58025 45.141365 
L 302.687961 45.141365 
L 302.999553 45.036443 
L 302.999553 45.010212 
L 303.045715 45.010212 
L 303.380389 44.90529 
L 303.591964 44.800367 
L 303.96126 44.695445 
L 304.026656 44.616753 
L 304.053583 44.616753 
L 305.007596 44.511831 
L 305.019137 44.459369 
L 305.11146 44.459369 
L 305.74234 44.354447 
L 305.776961 44.301986 
L 305.842357 44.301986 
L 306.292436 44.197064 
L 306.454002 44.170833 
L 308.011966 44.065911 
L 308.119678 44.013449 
L 308.808259 43.908527 
L 308.923664 43.882296 
L 309.7892 43.777374 
L 309.7892 43.751143 
L 309.893064 43.751143 
L 311.093273 43.646221 
L 311.216372 43.61999 
L 312.358879 43.515068 
L 312.358879 43.488837 
L 312.458896 43.488837 
L 313.505233 43.383915 
L 313.509079 43.331454 
L 313.609097 43.331454 
L 314.020707 43.226532 
L 314.020707 43.200301 
L 314.128418 43.200301 
L 314.613118 43.121609 
L 314.613118 43.069148 
L 314.720829 43.069148 
L 315.286313 42.964226 
L 315.39787 42.937995 
L 315.95566 42.833073 
L 315.963354 42.806842 
L 316.032597 42.806842 
L 317.598254 42.70192 
L 317.66365 42.649458 
L 317.702119 42.649458 
L 318.282989 42.544536 
L 318.282989 42.518306 
L 318.3907 42.518306 
L 318.490718 42.492075 
L 319.013886 42.387153 
L 319.140831 42.334691 
L 319.906349 42.229769 
L 320.060222 42.151077 
L 321.518169 42.046155 
L 321.660502 42.019924 
L 323.206925 41.915002 
L 323.206925 41.888771 
L 323.306943 41.888771 
L 324.903375 41.783849 
L 324.914916 41.757618 
L 325.007239 41.757618 
L 326.465186 41.652696 
L 326.465186 41.626465 
L 326.56905 41.626465 
L 328.19241 41.521543 
L 328.203951 41.495312 
L 328.296275 41.495312 
L 328.938694 41.39039 
L 328.973316 41.364159 
L 329.896554 41.259237 
L 329.911941 41.206776 
L 329.958103 41.206776 
L 330.76209 41.101853 
L 330.881341 41.049392 
L 331.304492 40.94447 
L 331.339113 40.892009 
L 331.408356 40.892009 
L 331.862282 40.813317 
L 332.050776 40.734625 
L 332.931699 40.629703 
L 332.935546 40.603472 
L 333.031716 40.603472 
L 334.431961 40.49855 
L 334.431961 40.472319 
L 334.539672 40.472319 
L 336.005312 40.367397 
L 336.024546 40.341166 
L 336.109176 40.341166 
L 336.870848 40.236244 
L 336.986252 40.183783 
L 337.97104 40.07886 
L 338.398037 39.973938 
L 339.613634 39.869015 
L 339.671336 39.790324 
L 339.721345 39.790324 
L 341.740928 39.685401 
L 341.894801 39.659171 
L 342.891129 39.554248 
L 342.983453 39.501787 
L 342.994993 39.501787 
L 343.633566 39.396865 
L 343.764358 39.370634 
L 345.1069 39.265712 
L 345.210764 39.213251 
L 345.214611 39.213251 
L 346.722567 39.108328 
L 346.891827 39.055867 
L 348.65752 38.950945 
L 348.65752 38.924714 
L 348.730609 38.924714 
L 349.438425 38.819792 
L 349.542289 38.714869 
L 350.804048 38.609947 
L 351.157956 38.531255 
L 351.777295 38.426333 
L 351.777295 38.400102 
L 351.869618 38.400102 
L 353.350646 38.29518 
L 353.45451 38.268949 
L 356.405025 38.164027 
L 356.412719 38.137796 
L 356.512736 38.137796 
L 357.57446 38.032874 
L 357.689865 37.954182 
L 358.270735 37.84926 
L 358.389987 37.823029 
L 359.974879 37.718107 
L 360.063356 37.691876 
L 361.967534 37.586954 
L 362.098326 37.560723 
L 363.233139 37.455801 
L 363.340851 37.42957 
L 364.433349 37.324648 
L 364.46797 37.298417 
L 366.360608 37.193495 
L 366.495247 37.167264 
L 368.776414 37.062342 
L 368.907206 37.009881 
L 369.934309 36.904958 
L 370.080488 36.878728 
L 371.726929 36.773805 
L 371.846181 36.747575 
L 374.177357 36.642652 
L 374.177357 36.616422 
L 374.281221 36.616422 
L 376.59701 36.511499 
L 376.708567 36.485269 
L 378.428098 36.380346 
L 378.543503 36.301655 
L 380.48615 36.196732 
L 380.593861 36.144271 
L 382.601903 36.039349 
L 382.709615 35.986888 
L 385.063871 35.881965 
L 385.529337 35.829504 
L 387.010365 35.724582 
L 387.141157 35.698351 
L 388.91839 35.593429 
L 389.07611 35.540967 
L 391.449601 35.436045 
L 391.549618 35.409815 
L 393.611517 35.304892 
L 393.707687 35.278662 
L 395.688802 35.173739 
L 395.977314 35.147509 
L 398.408507 35.042586 
L 398.431588 35.016356 
L 398.512372 35.016356 
L 400.90125 34.990125 
L 400.90125 34.990125 
" clip-path="url(#paf5e8a737c)" style="fill: none; stroke: #ff0000; stroke-opacity: 0.5; stroke-width: 2; stroke-linecap: square"/>
   </g>
   <g id="patch_3">
    <path d="M 43.78125 288.430125 
L 43.78125 22.318125 
" style="fill: none; stroke: #000000; stroke-width: 0.8; stroke-linejoin: miter; stroke-linecap: square"/>
   </g>
   <g id="patch_4">
    <path d="M 400.90125 288.430125 
L 400.90125 22.318125 
" style="fill: none; stroke: #000000; stroke-width: 0.8; stroke-linejoin: miter; stroke-linecap: square"/>
   </g>
   <g id="patch_5">
    <path d="M 43.78125 288.430125 
L 400.90125 288.430125 
" style="fill: none; stroke: #000000; stroke-width: 0.8; stroke-linejoin: miter; stroke-linecap: square"/>
   </g>
   <g id="patch_6">
    <path d="M 43.78125 22.318125 
L 400.90125 22.318125 
" style="fill: none; stroke: #000000; stroke-width: 0.8; stroke-linejoin: miter; stroke-linecap: square"/>
   </g>
   <g id="text_15">
    <!-- Receiver operating characteristic example -->
    <g transform="translate(95.046563 16.318125) scale(0.12 -0.12)">
     <defs>
      <path id="DejaVuSans-63" d="M 3122 3366 
L 3122 2828 
Q 2878 2963 2633 3030 
Q 2388 3097 2138 3097 
Q 1578 3097 1268 2742 
Q 959 2388 959 1747 
Q 959 1106 1268 751 
Q 1578 397 2138 397 
Q 2388 397 2633 464 
Q 2878 531 3122 666 
L 3122 134 
Q 2881 22 2623 -34 
Q 2366 -91 2075 -91 
Q 1284 -91 818 406 
Q 353 903 353 1747 
Q 353 2603 823 3093 
Q 1294 3584 2113 3584 
Q 2378 3584 2631 3529 
Q 2884 3475 3122 3366 
z
" transform="scale(0.015625)"/>
      <path id="DejaVuSans-70" d="M 1159 525 
L 1159 -1331 
L 581 -1331 
L 581 3500 
L 1159 3500 
L 1159 2969 
Q 1341 3281 1617 3432 
Q 1894 3584 2278 3584 
Q 2916 3584 3314 3078 
Q 3713 2572 3713 1747 
Q 3713 922 3314 415 
Q 2916 -91 2278 -91 
Q 1894 -91 1617 61 
Q 1341 213 1159 525 
z
M 3116 1747 
Q 3116 2381 2855 2742 
Q 2594 3103 2138 3103 
Q 1681 3103 1420 2742 
Q 1159 2381 1159 1747 
Q 1159 1113 1420 752 
Q 1681 391 2138 391 
Q 2594 391 2855 752 
Q 3116 1113 3116 1747 
z
" transform="scale(0.015625)"/>
      <path id="DejaVuSans-6e" d="M 3513 2113 
L 3513 0 
L 2938 0 
L 2938 2094 
Q 2938 2591 2744 2837 
Q 2550 3084 2163 3084 
Q 1697 3084 1428 2787 
Q 1159 2491 1159 1978 
L 1159 0 
L 581 0 
L 581 3500 
L 1159 3500 
L 1159 2956 
Q 1366 3272 1645 3428 
Q 1925 3584 2291 3584 
Q 2894 3584 3203 3211 
Q 3513 2838 3513 2113 
z
" transform="scale(0.015625)"/>
      <path id="DejaVuSans-67" d="M 2906 1791 
Q 2906 2416 2648 2759 
Q 2391 3103 1925 3103 
Q 1463 3103 1205 2759 
Q 947 2416 947 1791 
Q 947 1169 1205 825 
Q 1463 481 1925 481 
Q 2391 481 2648 825 
Q 2906 1169 2906 1791 
z
M 3481 434 
Q 3481 -459 3084 -895 
Q 2688 -1331 1869 -1331 
Q 1566 -1331 1297 -1286 
Q 1028 -1241 775 -1147 
L 775 -588 
Q 1028 -725 1275 -790 
Q 1522 -856 1778 -856 
Q 2344 -856 2625 -561 
Q 2906 -266 2906 331 
L 2906 616 
Q 2728 306 2450 153 
Q 2172 0 1784 0 
Q 1141 0 747 490 
Q 353 981 353 1791 
Q 353 2603 747 3093 
Q 1141 3584 1784 3584 
Q 2172 3584 2450 3431 
Q 2728 3278 2906 2969 
L 2906 3500 
L 3481 3500 
L 3481 434 
z
" transform="scale(0.015625)"/>
      <path id="DejaVuSans-68" d="M 3513 2113 
L 3513 0 
L 2938 0 
L 2938 2094 
Q 2938 2591 2744 2837 
Q 2550 3084 2163 3084 
Q 1697 3084 1428 2787 
Q 1159 2491 1159 1978 
L 1159 0 
L 581 0 
L 581 4863 
L 1159 4863 
L 1159 2956 
Q 1366 3272 1645 3428 
Q 1925 3584 2291 3584 
Q 2894 3584 3203 3211 
Q 3513 2838 3513 2113 
z
" transform="scale(0.015625)"/>
      <path id="DejaVuSans-78" d="M 3513 3500 
L 2247 1797 
L 3578 0 
L 2900 0 
L 1881 1375 
L 863 0 
L 184 0 
L 1544 1831 
L 300 3500 
L 978 3500 
L 1906 2253 
L 2834 3500 
L 3513 3500 
z
" transform="scale(0.015625)"/>
      <path id="DejaVuSans-6d" d="M 3328 2828 
Q 3544 3216 3844 3400 
Q 4144 3584 4550 3584 
Q 5097 3584 5394 3201 
Q 5691 2819 5691 2113 
L 5691 0 
L 5113 0 
L 5113 2094 
Q 5113 2597 4934 2840 
Q 4756 3084 4391 3084 
Q 3944 3084 3684 2787 
Q 3425 2491 3425 1978 
L 3425 0 
L 2847 0 
L 2847 2094 
Q 2847 2600 2669 2842 
Q 2491 3084 2119 3084 
Q 1678 3084 1418 2786 
Q 1159 2488 1159 1978 
L 1159 0 
L 581 0 
L 581 3500 
L 1159 3500 
L 1159 2956 
Q 1356 3278 1631 3431 
Q 1906 3584 2284 3584 
Q 2666 3584 2933 3390 
Q 3200 3197 3328 2828 
z
" transform="scale(0.015625)"/>
     </defs>
     <use xlink:href="#DejaVuSans-52"/>
     <use xlink:href="#DejaVuSans-65" x="64.982422"/>
     <use xlink:href="#DejaVuSans-63" x="126.505859"/>
     <use xlink:href="#DejaVuSans-65" x="181.486328"/>
     <use xlink:href="#DejaVuSans-69" x="243.009766"/>
     <use xlink:href="#DejaVuSans-76" x="270.792969"/>
     <use xlink:href="#DejaVuSans-65" x="329.972656"/>
     <use xlink:href="#DejaVuSans-72" x="391.496094"/>
     <use xlink:href="#DejaVuSans-20" x="432.609375"/>
     <use xlink:href="#DejaVuSans-6f" x="464.396484"/>
     <use xlink:href="#DejaVuSans-70" x="525.578125"/>
     <use xlink:href="#DejaVuSans-65" x="589.054688"/>
     <use xlink:href="#DejaVuSans-72" x="650.578125"/>
     <use xlink:href="#DejaVuSans-61" x="691.691406"/>
     <use xlink:href="#DejaVuSans-74" x="752.970703"/>
     <use xlink:href="#DejaVuSans-69" x="792.179688"/>
     <use xlink:href="#DejaVuSans-6e" x="819.962891"/>
     <use xlink:href="#DejaVuSans-67" x="883.341797"/>
     <use xlink:href="#DejaVuSans-20" x="946.818359"/>
     <use xlink:href="#DejaVuSans-63" x="978.605469"/>
     <use xlink:href="#DejaVuSans-68" x="1033.585938"/>
     <use xlink:href="#DejaVuSans-61" x="1096.964844"/>
     <use xlink:href="#DejaVuSans-72" x="1158.244141"/>
     <use xlink:href="#DejaVuSans-61" x="1199.357422"/>
     <use xlink:href="#DejaVuSans-63" x="1260.636719"/>
     <use xlink:href="#DejaVuSans-74" x="1315.617188"/>
     <use xlink:href="#DejaVuSans-65" x="1354.826172"/>
     <use xlink:href="#DejaVuSans-72" x="1416.349609"/>
     <use xlink:href="#DejaVuSans-69" x="1457.462891"/>
     <use xlink:href="#DejaVuSans-73" x="1485.246094"/>
     <use xlink:href="#DejaVuSans-74" x="1537.345703"/>
     <use xlink:href="#DejaVuSans-69" x="1576.554688"/>
     <use xlink:href="#DejaVuSans-63" x="1604.337891"/>
     <use xlink:href="#DejaVuSans-20" x="1659.318359"/>
     <use xlink:href="#DejaVuSans-65" x="1691.105469"/>
     <use xlink:href="#DejaVuSans-78" x="1750.878906"/>
     <use xlink:href="#DejaVuSans-61" x="1810.058594"/>
     <use xlink:href="#DejaVuSans-6d" x="1871.337891"/>
     <use xlink:href="#DejaVuSans-70" x="1968.75"/>
     <use xlink:href="#DejaVuSans-6c" x="2032.226562"/>
     <use xlink:href="#DejaVuSans-65" x="2060.009766"/>
    </g>
   </g>
   <g id="legend_1">
    <g id="patch_7">
     <path d="M 179.274688 283.430125 
L 393.90125 283.430125 
Q 395.90125 283.430125 395.90125 281.430125 
L 395.90125 267.752 
Q 395.90125 265.752 393.90125 265.752 
L 179.274688 265.752 
Q 177.274688 265.752 177.274688 267.752 
L 177.274688 281.430125 
Q 177.274688 283.430125 179.274688 283.430125 
z
" style="fill: #ffffff; opacity: 0.8; stroke: #cccccc; stroke-linejoin: miter"/>
    </g>
    <g id="line2d_14">
     <path d="M 181.274688 273.850437 
L 191.274688 273.850437 
L 201.274688 273.850437 
" style="fill: none; stroke: #ff0000; stroke-opacity: 0.5; stroke-width: 2; stroke-linecap: square"/>
    </g>
    <g id="text_16">
     <!-- ROC curve all features (area = 0.76) -->
     <g transform="translate(209.274688 277.350437) scale(0.1 -0.1)">
      <defs>
       <path id="DejaVuSans-4f" d="M 2522 4238 
Q 1834 4238 1429 3725 
Q 1025 3213 1025 2328 
Q 1025 1447 1429 934 
Q 1834 422 2522 422 
Q 3209 422 3611 934 
Q 4013 1447 4013 2328 
Q 4013 3213 3611 3725 
Q 3209 4238 2522 4238 
z
M 2522 4750 
Q 3503 4750 4090 4092 
Q 4678 3434 4678 2328 
Q 4678 1225 4090 567 
Q 3503 -91 2522 -91 
Q 1538 -91 948 565 
Q 359 1222 359 2328 
Q 359 3434 948 4092 
Q 1538 4750 2522 4750 
z
" transform="scale(0.015625)"/>
       <path id="DejaVuSans-43" d="M 4122 4306 
L 4122 3641 
Q 3803 3938 3442 4084 
Q 3081 4231 2675 4231 
Q 1875 4231 1450 3742 
Q 1025 3253 1025 2328 
Q 1025 1406 1450 917 
Q 1875 428 2675 428 
Q 3081 428 3442 575 
Q 3803 722 4122 1019 
L 4122 359 
Q 3791 134 3420 21 
Q 3050 -91 2638 -91 
Q 1578 -91 968 557 
Q 359 1206 359 2328 
Q 359 3453 968 4101 
Q 1578 4750 2638 4750 
Q 3056 4750 3426 4639 
Q 3797 4528 4122 4306 
z
" transform="scale(0.015625)"/>
       <path id="DejaVuSans-66" d="M 2375 4863 
L 2375 4384 
L 1825 4384 
Q 1516 4384 1395 4259 
Q 1275 4134 1275 3809 
L 1275 3500 
L 2222 3500 
L 2222 3053 
L 1275 3053 
L 1275 0 
L 697 0 
L 697 3053 
L 147 3053 
L 147 3500 
L 697 3500 
L 697 3744 
Q 697 4328 969 4595 
Q 1241 4863 1831 4863 
L 2375 4863 
z
" transform="scale(0.015625)"/>
       <path id="DejaVuSans-28" d="M 1984 4856 
Q 1566 4138 1362 3434 
Q 1159 2731 1159 2009 
Q 1159 1288 1364 580 
Q 1569 -128 1984 -844 
L 1484 -844 
Q 1016 -109 783 600 
Q 550 1309 550 2009 
Q 550 2706 781 3412 
Q 1013 4119 1484 4856 
L 1984 4856 
z
" transform="scale(0.015625)"/>
       <path id="DejaVuSans-3d" d="M 678 2906 
L 4684 2906 
L 4684 2381 
L 678 2381 
L 678 2906 
z
M 678 1631 
L 4684 1631 
L 4684 1100 
L 678 1100 
L 678 1631 
z
" transform="scale(0.015625)"/>
       <path id="DejaVuSans-37" d="M 525 4666 
L 3525 4666 
L 3525 4397 
L 1831 0 
L 1172 0 
L 2766 4134 
L 525 4134 
L 525 4666 
z
" transform="scale(0.015625)"/>
       <path id="DejaVuSans-29" d="M 513 4856 
L 1013 4856 
Q 1481 4119 1714 3412 
Q 1947 2706 1947 2009 
Q 1947 1309 1714 600 
Q 1481 -109 1013 -844 
L 513 -844 
Q 928 -128 1133 580 
Q 1338 1288 1338 2009 
Q 1338 2731 1133 3434 
Q 928 4138 513 4856 
z
" transform="scale(0.015625)"/>
      </defs>
      <use xlink:href="#DejaVuSans-52"/>
      <use xlink:href="#DejaVuSans-4f" x="69.482422"/>
      <use xlink:href="#DejaVuSans-43" x="148.193359"/>
      <use xlink:href="#DejaVuSans-20" x="218.017578"/>
      <use xlink:href="#DejaVuSans-63" x="249.804688"/>
      <use xlink:href="#DejaVuSans-75" x="304.785156"/>
      <use xlink:href="#DejaVuSans-72" x="368.164062"/>
      <use xlink:href="#DejaVuSans-76" x="409.277344"/>
      <use xlink:href="#DejaVuSans-65" x="468.457031"/>
      <use xlink:href="#DejaVuSans-20" x="529.980469"/>
      <use xlink:href="#DejaVuSans-61" x="561.767578"/>
      <use xlink:href="#DejaVuSans-6c" x="623.046875"/>
      <use xlink:href="#DejaVuSans-6c" x="650.830078"/>
      <use xlink:href="#DejaVuSans-20" x="678.613281"/>
      <use xlink:href="#DejaVuSans-66" x="710.400391"/>
      <use xlink:href="#DejaVuSans-65" x="745.605469"/>
      <use xlink:href="#DejaVuSans-61" x="807.128906"/>
      <use xlink:href="#DejaVuSans-74" x="868.408203"/>
      <use xlink:href="#DejaVuSans-75" x="907.617188"/>
      <use xlink:href="#DejaVuSans-72" x="970.996094"/>
      <use xlink:href="#DejaVuSans-65" x="1009.859375"/>
      <use xlink:href="#DejaVuSans-73" x="1071.382812"/>
      <use xlink:href="#DejaVuSans-20" x="1123.482422"/>
      <use xlink:href="#DejaVuSans-28" x="1155.269531"/>
      <use xlink:href="#DejaVuSans-61" x="1194.283203"/>
      <use xlink:href="#DejaVuSans-72" x="1255.5625"/>
      <use xlink:href="#DejaVuSans-65" x="1294.425781"/>
      <use xlink:href="#DejaVuSans-61" x="1355.949219"/>
      <use xlink:href="#DejaVuSans-20" x="1417.228516"/>
      <use xlink:href="#DejaVuSans-3d" x="1449.015625"/>
      <use xlink:href="#DejaVuSans-20" x="1532.804688"/>
      <use xlink:href="#DejaVuSans-30" x="1564.591797"/>
      <use xlink:href="#DejaVuSans-2e" x="1628.214844"/>
      <use xlink:href="#DejaVuSans-37" x="1660.001953"/>
      <use xlink:href="#DejaVuSans-36" x="1723.625"/>
      <use xlink:href="#DejaVuSans-29" x="1787.248047"/>
     </g>
    </g>
   </g>
  </g>
 </g>
 <defs>
  <clipPath id="paf5e8a737c">
   <rect x="43.78125" y="22.318125" width="357.12" height="266.112"/>
  </clipPath>
 </defs>
</svg>
