<?xml version="1.0" encoding="utf-8" standalone="no"?>
<!DOCTYPE svg PUBLIC "-//W3C//DTD SVG 1.1//EN"
  "http://www.w3.org/Graphics/SVG/1.1/DTD/svg11.dtd">
<svg xmlns:xlink="http://www.w3.org/1999/xlink" width="416.052813pt" height="325.986375pt" viewBox="0 0 416.052813 325.986375" xmlns="http://www.w3.org/2000/svg" version="1.1">
 <metadata>
  <rdf:RDF xmlns:dc="http://purl.org/dc/elements/1.1/" xmlns:cc="http://creativecommons.org/ns#" xmlns:rdf="http://www.w3.org/1999/02/22-rdf-syntax-ns#">
   <cc:Work>
    <dc:type rdf:resource="http://purl.org/dc/dcmitype/StillImage"/>
    <dc:date>2022-11-25T19:30:03.743343</dc:date>
    <dc:format>image/svg+xml</dc:format>
    <dc:creator>
     <cc:Agent>
      <dc:title>Matplotlib v3.6.1, https://matplotlib.org/</dc:title>
     </cc:Agent>
    </dc:creator>
   </cc:Work>
  </rdf:RDF>
 </metadata>
 <defs>
  <style type="text/css">*{stroke-linejoin: round; stroke-linecap: butt}</style>
 </defs>
 <g id="figure_1">
  <g id="patch_1">
   <path d="M 0 325.986375 
L 416.052813 325.986375 
L 416.052813 0 
L 0 0 
z
" style="fill: #ffffff"/>
  </g>
  <g id="axes_1">
   <g id="patch_2">
    <path d="M 43.78125 288.430125 
L 400.90125 288.430125 
L 400.90125 22.318125 
L 43.78125 22.318125 
z
" style="fill: #ffffff"/>
   </g>
   <g id="matplotlib.axis_1">
    <g id="xtick_1">
     <g id="line2d_1">
      <defs>
       <path id="m5fc84a2aaf" d="M 0 0 
L 0 3.5 
" style="stroke: #000000; stroke-width: 0.8"/>
      </defs>
      <g>
       <use xlink:href="#m5fc84a2aaf" x="43.78125" y="288.430125" style="stroke: #000000; stroke-width: 0.8"/>
      </g>
     </g>
     <g id="text_1">
      <!-- 0.0 -->
      <g transform="translate(35.829688 303.028562) scale(0.1 -0.1)">
       <defs>
        <path id="DejaVuSans-30" d="M 2034 4250 
Q 1547 4250 1301 3770 
Q 1056 3291 1056 2328 
Q 1056 1369 1301 889 
Q 1547 409 2034 409 
Q 2525 409 2770 889 
Q 3016 1369 3016 2328 
Q 3016 3291 2770 3770 
Q 2525 4250 2034 4250 
z
M 2034 4750 
Q 2819 4750 3233 4129 
Q 3647 3509 3647 2328 
Q 3647 1150 3233 529 
Q 2819 -91 2034 -91 
Q 1250 -91 836 529 
Q 422 1150 422 2328 
Q 422 3509 836 4129 
Q 1250 4750 2034 4750 
z
" transform="scale(0.015625)"/>
        <path id="DejaVuSans-2e" d="M 684 794 
L 1344 794 
L 1344 0 
L 684 0 
L 684 794 
z
" transform="scale(0.015625)"/>
       </defs>
       <use xlink:href="#DejaVuSans-30"/>
       <use xlink:href="#DejaVuSans-2e" x="63.623047"/>
       <use xlink:href="#DejaVuSans-30" x="95.410156"/>
      </g>
     </g>
    </g>
    <g id="xtick_2">
     <g id="line2d_2">
      <g>
       <use xlink:href="#m5fc84a2aaf" x="115.20525" y="288.430125" style="stroke: #000000; stroke-width: 0.8"/>
      </g>
     </g>
     <g id="text_2">
      <!-- 0.2 -->
      <g transform="translate(107.253688 303.028562) scale(0.1 -0.1)">
       <defs>
        <path id="DejaVuSans-32" d="M 1228 531 
L 3431 531 
L 3431 0 
L 469 0 
L 469 531 
Q 828 903 1448 1529 
Q 2069 2156 2228 2338 
Q 2531 2678 2651 2914 
Q 2772 3150 2772 3378 
Q 2772 3750 2511 3984 
Q 2250 4219 1831 4219 
Q 1534 4219 1204 4116 
Q 875 4013 500 3803 
L 500 4441 
Q 881 4594 1212 4672 
Q 1544 4750 1819 4750 
Q 2544 4750 2975 4387 
Q 3406 4025 3406 3419 
Q 3406 3131 3298 2873 
Q 3191 2616 2906 2266 
Q 2828 2175 2409 1742 
Q 1991 1309 1228 531 
z
" transform="scale(0.015625)"/>
       </defs>
       <use xlink:href="#DejaVuSans-30"/>
       <use xlink:href="#DejaVuSans-2e" x="63.623047"/>
       <use xlink:href="#DejaVuSans-32" x="95.410156"/>
      </g>
     </g>
    </g>
    <g id="xtick_3">
     <g id="line2d_3">
      <g>
       <use xlink:href="#m5fc84a2aaf" x="186.62925" y="288.430125" style="stroke: #000000; stroke-width: 0.8"/>
      </g>
     </g>
     <g id="text_3">
      <!-- 0.4 -->
      <g transform="translate(178.677688 303.028562) scale(0.1 -0.1)">
       <defs>
        <path id="DejaVuSans-34" d="M 2419 4116 
L 825 1625 
L 2419 1625 
L 2419 4116 
z
M 2253 4666 
L 3047 4666 
L 3047 1625 
L 3713 1625 
L 3713 1100 
L 3047 1100 
L 3047 0 
L 2419 0 
L 2419 1100 
L 313 1100 
L 313 1709 
L 2253 4666 
z
" transform="scale(0.015625)"/>
       </defs>
       <use xlink:href="#DejaVuSans-30"/>
       <use xlink:href="#DejaVuSans-2e" x="63.623047"/>
       <use xlink:href="#DejaVuSans-34" x="95.410156"/>
      </g>
     </g>
    </g>
    <g id="xtick_4">
     <g id="line2d_4">
      <g>
       <use xlink:href="#m5fc84a2aaf" x="258.05325" y="288.430125" style="stroke: #000000; stroke-width: 0.8"/>
      </g>
     </g>
     <g id="text_4">
      <!-- 0.6 -->
      <g transform="translate(250.101688 303.028562) scale(0.1 -0.1)">
       <defs>
        <path id="DejaVuSans-36" d="M 2113 2584 
Q 1688 2584 1439 2293 
Q 1191 2003 1191 1497 
Q 1191 994 1439 701 
Q 1688 409 2113 409 
Q 2538 409 2786 701 
Q 3034 994 3034 1497 
Q 3034 2003 2786 2293 
Q 2538 2584 2113 2584 
z
M 3366 4563 
L 3366 3988 
Q 3128 4100 2886 4159 
Q 2644 4219 2406 4219 
Q 1781 4219 1451 3797 
Q 1122 3375 1075 2522 
Q 1259 2794 1537 2939 
Q 1816 3084 2150 3084 
Q 2853 3084 3261 2657 
Q 3669 2231 3669 1497 
Q 3669 778 3244 343 
Q 2819 -91 2113 -91 
Q 1303 -91 875 529 
Q 447 1150 447 2328 
Q 447 3434 972 4092 
Q 1497 4750 2381 4750 
Q 2619 4750 2861 4703 
Q 3103 4656 3366 4563 
z
" transform="scale(0.015625)"/>
       </defs>
       <use xlink:href="#DejaVuSans-30"/>
       <use xlink:href="#DejaVuSans-2e" x="63.623047"/>
       <use xlink:href="#DejaVuSans-36" x="95.410156"/>
      </g>
     </g>
    </g>
    <g id="xtick_5">
     <g id="line2d_5">
      <g>
       <use xlink:href="#m5fc84a2aaf" x="329.47725" y="288.430125" style="stroke: #000000; stroke-width: 0.8"/>
      </g>
     </g>
     <g id="text_5">
      <!-- 0.8 -->
      <g transform="translate(321.525688 303.028562) scale(0.1 -0.1)">
       <defs>
        <path id="DejaVuSans-38" d="M 2034 2216 
Q 1584 2216 1326 1975 
Q 1069 1734 1069 1313 
Q 1069 891 1326 650 
Q 1584 409 2034 409 
Q 2484 409 2743 651 
Q 3003 894 3003 1313 
Q 3003 1734 2745 1975 
Q 2488 2216 2034 2216 
z
M 1403 2484 
Q 997 2584 770 2862 
Q 544 3141 544 3541 
Q 544 4100 942 4425 
Q 1341 4750 2034 4750 
Q 2731 4750 3128 4425 
Q 3525 4100 3525 3541 
Q 3525 3141 3298 2862 
Q 3072 2584 2669 2484 
Q 3125 2378 3379 2068 
Q 3634 1759 3634 1313 
Q 3634 634 3220 271 
Q 2806 -91 2034 -91 
Q 1263 -91 848 271 
Q 434 634 434 1313 
Q 434 1759 690 2068 
Q 947 2378 1403 2484 
z
M 1172 3481 
Q 1172 3119 1398 2916 
Q 1625 2713 2034 2713 
Q 2441 2713 2670 2916 
Q 2900 3119 2900 3481 
Q 2900 3844 2670 4047 
Q 2441 4250 2034 4250 
Q 1625 4250 1398 4047 
Q 1172 3844 1172 3481 
z
" transform="scale(0.015625)"/>
       </defs>
       <use xlink:href="#DejaVuSans-30"/>
       <use xlink:href="#DejaVuSans-2e" x="63.623047"/>
       <use xlink:href="#DejaVuSans-38" x="95.410156"/>
      </g>
     </g>
    </g>
    <g id="xtick_6">
     <g id="line2d_6">
      <g>
       <use xlink:href="#m5fc84a2aaf" x="400.90125" y="288.430125" style="stroke: #000000; stroke-width: 0.8"/>
      </g>
     </g>
     <g id="text_6">
      <!-- 1.0 -->
      <g transform="translate(392.949688 303.028562) scale(0.1 -0.1)">
       <defs>
        <path id="DejaVuSans-31" d="M 794 531 
L 1825 531 
L 1825 4091 
L 703 3866 
L 703 4441 
L 1819 4666 
L 2450 4666 
L 2450 531 
L 3481 531 
L 3481 0 
L 794 0 
L 794 531 
z
" transform="scale(0.015625)"/>
       </defs>
       <use xlink:href="#DejaVuSans-31"/>
       <use xlink:href="#DejaVuSans-2e" x="63.623047"/>
       <use xlink:href="#DejaVuSans-30" x="95.410156"/>
      </g>
     </g>
    </g>
    <g id="text_7">
     <!-- False Positive Rate -->
     <g transform="translate(175.874844 316.706687) scale(0.1 -0.1)">
      <defs>
       <path id="DejaVuSans-46" d="M 628 4666 
L 3309 4666 
L 3309 4134 
L 1259 4134 
L 1259 2759 
L 3109 2759 
L 3109 2228 
L 1259 2228 
L 1259 0 
L 628 0 
L 628 4666 
z
" transform="scale(0.015625)"/>
       <path id="DejaVuSans-61" d="M 2194 1759 
Q 1497 1759 1228 1600 
Q 959 1441 959 1056 
Q 959 750 1161 570 
Q 1363 391 1709 391 
Q 2188 391 2477 730 
Q 2766 1069 2766 1631 
L 2766 1759 
L 2194 1759 
z
M 3341 1997 
L 3341 0 
L 2766 0 
L 2766 531 
Q 2569 213 2275 61 
Q 1981 -91 1556 -91 
Q 1019 -91 701 211 
Q 384 513 384 1019 
Q 384 1609 779 1909 
Q 1175 2209 1959 2209 
L 2766 2209 
L 2766 2266 
Q 2766 2663 2505 2880 
Q 2244 3097 1772 3097 
Q 1472 3097 1187 3025 
Q 903 2953 641 2809 
L 641 3341 
Q 956 3463 1253 3523 
Q 1550 3584 1831 3584 
Q 2591 3584 2966 3190 
Q 3341 2797 3341 1997 
z
" transform="scale(0.015625)"/>
       <path id="DejaVuSans-6c" d="M 603 4863 
L 1178 4863 
L 1178 0 
L 603 0 
L 603 4863 
z
" transform="scale(0.015625)"/>
       <path id="DejaVuSans-73" d="M 2834 3397 
L 2834 2853 
Q 2591 2978 2328 3040 
Q 2066 3103 1784 3103 
Q 1356 3103 1142 2972 
Q 928 2841 928 2578 
Q 928 2378 1081 2264 
Q 1234 2150 1697 2047 
L 1894 2003 
Q 2506 1872 2764 1633 
Q 3022 1394 3022 966 
Q 3022 478 2636 193 
Q 2250 -91 1575 -91 
Q 1294 -91 989 -36 
Q 684 19 347 128 
L 347 722 
Q 666 556 975 473 
Q 1284 391 1588 391 
Q 1994 391 2212 530 
Q 2431 669 2431 922 
Q 2431 1156 2273 1281 
Q 2116 1406 1581 1522 
L 1381 1569 
Q 847 1681 609 1914 
Q 372 2147 372 2553 
Q 372 3047 722 3315 
Q 1072 3584 1716 3584 
Q 2034 3584 2315 3537 
Q 2597 3491 2834 3397 
z
" transform="scale(0.015625)"/>
       <path id="DejaVuSans-65" d="M 3597 1894 
L 3597 1613 
L 953 1613 
Q 991 1019 1311 708 
Q 1631 397 2203 397 
Q 2534 397 2845 478 
Q 3156 559 3463 722 
L 3463 178 
Q 3153 47 2828 -22 
Q 2503 -91 2169 -91 
Q 1331 -91 842 396 
Q 353 884 353 1716 
Q 353 2575 817 3079 
Q 1281 3584 2069 3584 
Q 2775 3584 3186 3129 
Q 3597 2675 3597 1894 
z
M 3022 2063 
Q 3016 2534 2758 2815 
Q 2500 3097 2075 3097 
Q 1594 3097 1305 2825 
Q 1016 2553 972 2059 
L 3022 2063 
z
" transform="scale(0.015625)"/>
       <path id="DejaVuSans-20" transform="scale(0.015625)"/>
       <path id="DejaVuSans-50" d="M 1259 4147 
L 1259 2394 
L 2053 2394 
Q 2494 2394 2734 2622 
Q 2975 2850 2975 3272 
Q 2975 3691 2734 3919 
Q 2494 4147 2053 4147 
L 1259 4147 
z
M 628 4666 
L 2053 4666 
Q 2838 4666 3239 4311 
Q 3641 3956 3641 3272 
Q 3641 2581 3239 2228 
Q 2838 1875 2053 1875 
L 1259 1875 
L 1259 0 
L 628 0 
L 628 4666 
z
" transform="scale(0.015625)"/>
       <path id="DejaVuSans-6f" d="M 1959 3097 
Q 1497 3097 1228 2736 
Q 959 2375 959 1747 
Q 959 1119 1226 758 
Q 1494 397 1959 397 
Q 2419 397 2687 759 
Q 2956 1122 2956 1747 
Q 2956 2369 2687 2733 
Q 2419 3097 1959 3097 
z
M 1959 3584 
Q 2709 3584 3137 3096 
Q 3566 2609 3566 1747 
Q 3566 888 3137 398 
Q 2709 -91 1959 -91 
Q 1206 -91 779 398 
Q 353 888 353 1747 
Q 353 2609 779 3096 
Q 1206 3584 1959 3584 
z
" transform="scale(0.015625)"/>
       <path id="DejaVuSans-69" d="M 603 3500 
L 1178 3500 
L 1178 0 
L 603 0 
L 603 3500 
z
M 603 4863 
L 1178 4863 
L 1178 4134 
L 603 4134 
L 603 4863 
z
" transform="scale(0.015625)"/>
       <path id="DejaVuSans-74" d="M 1172 4494 
L 1172 3500 
L 2356 3500 
L 2356 3053 
L 1172 3053 
L 1172 1153 
Q 1172 725 1289 603 
Q 1406 481 1766 481 
L 2356 481 
L 2356 0 
L 1766 0 
Q 1100 0 847 248 
Q 594 497 594 1153 
L 594 3053 
L 172 3053 
L 172 3500 
L 594 3500 
L 594 4494 
L 1172 4494 
z
" transform="scale(0.015625)"/>
       <path id="DejaVuSans-76" d="M 191 3500 
L 800 3500 
L 1894 563 
L 2988 3500 
L 3597 3500 
L 2284 0 
L 1503 0 
L 191 3500 
z
" transform="scale(0.015625)"/>
       <path id="DejaVuSans-52" d="M 2841 2188 
Q 3044 2119 3236 1894 
Q 3428 1669 3622 1275 
L 4263 0 
L 3584 0 
L 2988 1197 
Q 2756 1666 2539 1819 
Q 2322 1972 1947 1972 
L 1259 1972 
L 1259 0 
L 628 0 
L 628 4666 
L 2053 4666 
Q 2853 4666 3247 4331 
Q 3641 3997 3641 3322 
Q 3641 2881 3436 2590 
Q 3231 2300 2841 2188 
z
M 1259 4147 
L 1259 2491 
L 2053 2491 
Q 2509 2491 2742 2702 
Q 2975 2913 2975 3322 
Q 2975 3731 2742 3939 
Q 2509 4147 2053 4147 
L 1259 4147 
z
" transform="scale(0.015625)"/>
      </defs>
      <use xlink:href="#DejaVuSans-46"/>
      <use xlink:href="#DejaVuSans-61" x="48.394531"/>
      <use xlink:href="#DejaVuSans-6c" x="109.673828"/>
      <use xlink:href="#DejaVuSans-73" x="137.457031"/>
      <use xlink:href="#DejaVuSans-65" x="189.556641"/>
      <use xlink:href="#DejaVuSans-20" x="251.080078"/>
      <use xlink:href="#DejaVuSans-50" x="282.867188"/>
      <use xlink:href="#DejaVuSans-6f" x="339.544922"/>
      <use xlink:href="#DejaVuSans-73" x="400.726562"/>
      <use xlink:href="#DejaVuSans-69" x="452.826172"/>
      <use xlink:href="#DejaVuSans-74" x="480.609375"/>
      <use xlink:href="#DejaVuSans-69" x="519.818359"/>
      <use xlink:href="#DejaVuSans-76" x="547.601562"/>
      <use xlink:href="#DejaVuSans-65" x="606.78125"/>
      <use xlink:href="#DejaVuSans-20" x="668.304688"/>
      <use xlink:href="#DejaVuSans-52" x="700.091797"/>
      <use xlink:href="#DejaVuSans-61" x="767.324219"/>
      <use xlink:href="#DejaVuSans-74" x="828.603516"/>
      <use xlink:href="#DejaVuSans-65" x="867.8125"/>
     </g>
    </g>
   </g>
   <g id="matplotlib.axis_2">
    <g id="ytick_1">
     <g id="line2d_7">
      <defs>
       <path id="me0ebd5cd35" d="M 0 0 
L -3.5 0 
" style="stroke: #000000; stroke-width: 0.8"/>
      </defs>
      <g>
       <use xlink:href="#me0ebd5cd35" x="43.78125" y="288.430125" style="stroke: #000000; stroke-width: 0.8"/>
      </g>
     </g>
     <g id="text_8">
      <!-- 0.0 -->
      <g transform="translate(20.878125 292.229344) scale(0.1 -0.1)">
       <use xlink:href="#DejaVuSans-30"/>
       <use xlink:href="#DejaVuSans-2e" x="63.623047"/>
       <use xlink:href="#DejaVuSans-30" x="95.410156"/>
      </g>
     </g>
    </g>
    <g id="ytick_2">
     <g id="line2d_8">
      <g>
       <use xlink:href="#me0ebd5cd35" x="43.78125" y="237.742125" style="stroke: #000000; stroke-width: 0.8"/>
      </g>
     </g>
     <g id="text_9">
      <!-- 0.2 -->
      <g transform="translate(20.878125 241.541344) scale(0.1 -0.1)">
       <use xlink:href="#DejaVuSans-30"/>
       <use xlink:href="#DejaVuSans-2e" x="63.623047"/>
       <use xlink:href="#DejaVuSans-32" x="95.410156"/>
      </g>
     </g>
    </g>
    <g id="ytick_3">
     <g id="line2d_9">
      <g>
       <use xlink:href="#me0ebd5cd35" x="43.78125" y="187.054125" style="stroke: #000000; stroke-width: 0.8"/>
      </g>
     </g>
     <g id="text_10">
      <!-- 0.4 -->
      <g transform="translate(20.878125 190.853344) scale(0.1 -0.1)">
       <use xlink:href="#DejaVuSans-30"/>
       <use xlink:href="#DejaVuSans-2e" x="63.623047"/>
       <use xlink:href="#DejaVuSans-34" x="95.410156"/>
      </g>
     </g>
    </g>
    <g id="ytick_4">
     <g id="line2d_10">
      <g>
       <use xlink:href="#me0ebd5cd35" x="43.78125" y="136.366125" style="stroke: #000000; stroke-width: 0.8"/>
      </g>
     </g>
     <g id="text_11">
      <!-- 0.6 -->
      <g transform="translate(20.878125 140.165344) scale(0.1 -0.1)">
       <use xlink:href="#DejaVuSans-30"/>
       <use xlink:href="#DejaVuSans-2e" x="63.623047"/>
       <use xlink:href="#DejaVuSans-36" x="95.410156"/>
      </g>
     </g>
    </g>
    <g id="ytick_5">
     <g id="line2d_11">
      <g>
       <use xlink:href="#me0ebd5cd35" x="43.78125" y="85.678125" style="stroke: #000000; stroke-width: 0.8"/>
      </g>
     </g>
     <g id="text_12">
      <!-- 0.8 -->
      <g transform="translate(20.878125 89.477344) scale(0.1 -0.1)">
       <use xlink:href="#DejaVuSans-30"/>
       <use xlink:href="#DejaVuSans-2e" x="63.623047"/>
       <use xlink:href="#DejaVuSans-38" x="95.410156"/>
      </g>
     </g>
    </g>
    <g id="ytick_6">
     <g id="line2d_12">
      <g>
       <use xlink:href="#me0ebd5cd35" x="43.78125" y="34.990125" style="stroke: #000000; stroke-width: 0.8"/>
      </g>
     </g>
     <g id="text_13">
      <!-- 1.0 -->
      <g transform="translate(20.878125 38.789344) scale(0.1 -0.1)">
       <use xlink:href="#DejaVuSans-31"/>
       <use xlink:href="#DejaVuSans-2e" x="63.623047"/>
       <use xlink:href="#DejaVuSans-30" x="95.410156"/>
      </g>
     </g>
    </g>
    <g id="text_14">
     <!-- True Positive Rate -->
     <g transform="translate(14.798438 199.903812) rotate(-90) scale(0.1 -0.1)">
      <defs>
       <path id="DejaVuSans-54" d="M -19 4666 
L 3928 4666 
L 3928 4134 
L 2272 4134 
L 2272 0 
L 1638 0 
L 1638 4134 
L -19 4134 
L -19 4666 
z
" transform="scale(0.015625)"/>
       <path id="DejaVuSans-72" d="M 2631 2963 
Q 2534 3019 2420 3045 
Q 2306 3072 2169 3072 
Q 1681 3072 1420 2755 
Q 1159 2438 1159 1844 
L 1159 0 
L 581 0 
L 581 3500 
L 1159 3500 
L 1159 2956 
Q 1341 3275 1631 3429 
Q 1922 3584 2338 3584 
Q 2397 3584 2469 3576 
Q 2541 3569 2628 3553 
L 2631 2963 
z
" transform="scale(0.015625)"/>
       <path id="DejaVuSans-75" d="M 544 1381 
L 544 3500 
L 1119 3500 
L 1119 1403 
Q 1119 906 1312 657 
Q 1506 409 1894 409 
Q 2359 409 2629 706 
Q 2900 1003 2900 1516 
L 2900 3500 
L 3475 3500 
L 3475 0 
L 2900 0 
L 2900 538 
Q 2691 219 2414 64 
Q 2138 -91 1772 -91 
Q 1169 -91 856 284 
Q 544 659 544 1381 
z
M 1991 3584 
L 1991 3584 
z
" transform="scale(0.015625)"/>
      </defs>
      <use xlink:href="#DejaVuSans-54"/>
      <use xlink:href="#DejaVuSans-72" x="46.333984"/>
      <use xlink:href="#DejaVuSans-75" x="87.447266"/>
      <use xlink:href="#DejaVuSans-65" x="150.826172"/>
      <use xlink:href="#DejaVuSans-20" x="212.349609"/>
      <use xlink:href="#DejaVuSans-50" x="244.136719"/>
      <use xlink:href="#DejaVuSans-6f" x="300.814453"/>
      <use xlink:href="#DejaVuSans-73" x="361.996094"/>
      <use xlink:href="#DejaVuSans-69" x="414.095703"/>
      <use xlink:href="#DejaVuSans-74" x="441.878906"/>
      <use xlink:href="#DejaVuSans-69" x="481.087891"/>
      <use xlink:href="#DejaVuSans-76" x="508.871094"/>
      <use xlink:href="#DejaVuSans-65" x="568.050781"/>
      <use xlink:href="#DejaVuSans-20" x="629.574219"/>
      <use xlink:href="#DejaVuSans-52" x="661.361328"/>
      <use xlink:href="#DejaVuSans-61" x="728.59375"/>
      <use xlink:href="#DejaVuSans-74" x="789.873047"/>
      <use xlink:href="#DejaVuSans-65" x="829.082031"/>
     </g>
    </g>
   </g>
   <g id="line2d_13">
    <path d="M 43.78125 288.430125 
L 43.888961 286.515292 
L 43.946663 286.121833 
L 44.054375 284.967687 
L 44.081302 284.888995 
L 44.189013 284.075846 
L 44.223635 283.970924 
L 44.319806 283.315159 
L 44.331346 283.315159 
L 44.346733 283.210237 
L 44.442904 282.161013 
L 44.585236 281.426556 
L 44.685254 280.6921 
L 44.689101 280.6921 
L 45.231503 278.724805 
L 45.250737 278.619883 
L 45.31998 278.095271 
L 45.327674 278.095271 
L 45.677735 276.73128 
L 45.88931 275.760748 
L 45.897004 275.760748 
L 47.139528 271.144164 
L 47.247239 270.776935 
L 47.266473 270.672013 
L 47.370338 270.199862 
L 47.4165 270.173632 
L 47.651156 269.22933 
L 47.689624 269.150638 
L 47.793488 268.599796 
L 47.797335 268.599796 
L 47.916587 268.521104 
L 48.020451 268.048953 
L 48.062766 267.970262 
L 48.062766 267.944031 
L 48.14355 267.812878 
L 48.166631 267.812878 
L 48.524385 266.239042 
L 48.605169 265.871814 
L 48.612862 265.871814 
L 48.670565 265.766892 
L 48.778276 265.478355 
L 48.816744 265.373433 
L 49.5361 263.222524 
L 49.582262 263.196293 
L 49.68228 262.383145 
L 49.716901 262.278223 
L 49.809225 261.910994 
L 49.874621 261.806072 
L 49.978485 261.333921 
L 50.00926 261.228999 
L 50.113124 260.704387 
L 50.140052 260.599465 
L 50.232376 260.415851 
L 50.266997 260.310928 
L 50.355474 260.101083 
L 50.401636 260.022392 
L 50.401636 259.996161 
L 50.551662 259.707624 
L 50.678607 259.287935 
L 50.786318 258.894476 
L 50.859408 258.789554 
L 50.967119 258.264942 
L 51.017128 258.160019 
L 51.205622 257.530485 
L 51.278712 257.425563 
L 51.386423 256.900951 
L 51.432585 256.796029 
L 51.536449 256.586184 
L 51.555683 256.559953 
L 51.555683 256.507492 
L 51.721097 256.140264 
L 51.767259 256.061572 
L 51.767259 256.035341 
L 51.871123 255.773035 
L 52.051924 255.222193 
L 52.105779 255.117271 
L 52.255806 254.750042 
L 52.317355 254.64512 
L 52.425066 254.435275 
L 52.490462 254.330353 
L 52.594326 254.068047 
L 52.667416 254.015586 
L 52.667416 253.963124 
L 52.836676 253.438512 
L 52.929 253.33359 
L 53.029017 252.966362 
L 53.036711 252.966362 
L 53.102107 252.861439 
L 53.209818 252.520442 
L 53.263674 252.44175 
L 53.386772 251.969599 
L 53.452168 251.864677 
L 53.559879 251.628602 
L 53.58296 251.57614 
L 53.809923 250.999067 
L 53.913787 250.894145 
L 54.021498 250.500686 
L 54.075354 250.395764 
L 54.329244 249.949843 
L 54.429262 249.635076 
L 54.436955 249.635076 
L 54.471577 249.530154 
L 54.575441 249.241617 
L 54.579288 249.241617 
L 54.663918 249.136695 
L 54.848566 248.612083 
L 54.956277 248.507161 
L 55.03706 248.323547 
L 55.060141 248.323547 
L 55.087069 248.244855 
L 55.190933 247.877627 
L 55.283257 247.772704 
L 55.387121 247.510398 
L 55.421742 247.405476 
L 55.564075 246.880864 
L 55.664092 246.775942 
L 55.771804 246.539866 
L 55.856434 246.434944 
L 55.964145 246.041485 
L 56.018 245.936563 
L 56.121865 245.543104 
L 56.148792 245.438181 
L 56.252657 245.044722 
L 56.256504 245.044722 
L 56.291125 244.966031 
L 56.57579 244.310266 
L 56.656573 244.205343 
L 56.810446 243.890576 
L 56.852761 243.811884 
L 56.933545 243.470887 
L 56.9874 243.365964 
L 57.156661 242.946275 
L 57.233597 242.841352 
L 57.322074 242.526585 
L 57.341308 242.526585 
L 57.475947 242.316741 
L 57.564424 242.211818 
L 57.668288 241.923282 
L 57.737531 241.818359 
L 57.829855 241.529823 
L 57.902945 241.4249 
L 57.999115 240.97898 
L 58.056818 240.874058 
L 58.156835 240.480599 
L 58.237618 240.401907 
L 58.364564 240.139601 
L 58.406879 240.034679 
L 58.503049 239.693681 
L 58.510743 239.693681 
L 58.545364 239.614989 
L 58.733859 239.247761 
L 58.780021 239.142839 
L 58.887732 238.880533 
L 58.972362 238.77561 
L 59.076226 238.382151 
L 59.080073 238.382151 
L 59.245487 237.962462 
L 59.372432 237.88377 
L 59.372432 237.85754 
L 59.526305 237.516542 
L 59.58016 237.41162 
L 59.660944 237.201775 
L 59.668637 237.201775 
L 59.753267 237.096852 
L 59.90714 236.782085 
L 60.018698 236.677163 
L 60.114869 236.362396 
L 60.168725 236.283704 
L 60.268742 235.968937 
L 60.299517 235.864014 
L 60.395687 235.601709 
L 60.445696 235.523017 
L 60.53802 235.418094 
L 60.641884 235.313172 
L 60.764982 235.103327 
L 60.811144 234.998405 
L 60.918855 234.736099 
L 60.957324 234.631177 
L 61.057341 234.211487 
L 61.088116 234.106565 
L 61.195827 233.844259 
L 61.211214 233.739336 
L 61.315078 233.555722 
L 61.407402 233.4508 
L 61.499726 233.03111 
L 61.511266 233.03111 
L 61.580509 232.926188 
L 61.668986 232.663882 
L 61.68822 232.663882 
L 61.922877 232.55896 
L 62.015201 232.401576 
L 62.08829 232.296654 
L 62.165227 232.060578 
L 62.192155 232.060578 
L 62.372955 231.955656 
L 62.549909 231.509736 
L 62.753791 231.168738 
L 62.81534 231.063816 
L 62.923051 230.775279 
L 63.003835 230.670357 
L 63.107699 230.198206 
L 63.111546 230.198206 
L 63.173095 230.093284 
L 63.269266 229.857208 
L 63.361589 229.752286 
L 63.45776 229.621133 
L 63.465454 229.621133 
L 63.638561 229.516211 
L 63.815515 229.017829 
L 63.884758 228.939138 
L 63.988622 228.703062 
L 64.02709 228.59814 
L 64.138648 228.493218 
L 64.319449 228.388295 
L 64.392538 228.257142 
L 64.515637 228.15222 
L 64.615654 227.968606 
L 64.769527 227.863683 
L 64.873392 227.548916 
L 64.919553 227.443994 
L 65.096507 226.919382 
L 65.227299 226.81446 
L 65.335011 226.525923 
L 65.385019 226.447231 
L 65.488884 226.237386 
L 65.56582 226.132464 
L 65.673531 226.027542 
L 65.711999 225.922619 
L 65.79663 225.555391 
L 65.812017 225.555391 
L 65.950503 225.450469 
L 66.13515 225.240624 
L 66.173618 225.135701 
L 66.362113 224.532398 
L 66.412122 224.427475 
L 66.504445 224.217631 
L 66.565995 224.138939 
L 66.669859 223.797941 
L 66.719868 223.719249 
L 66.719868 223.693019 
L 67.308432 222.092953 
L 67.393062 221.883108 
L 67.416143 221.883108 
L 67.593097 221.778185 
L 67.67388 221.54211 
L 67.693114 221.54211 
L 67.823906 221.043729 
L 67.920077 220.624039 
L 67.973933 220.545348 
L 68.070103 220.335503 
L 68.081644 220.335503 
L 68.127806 220.23058 
L 68.462479 219.679738 
L 68.550956 219.601046 
L 68.712523 219.364971 
L 68.747144 219.286279 
L 68.747144 219.260048 
L 68.893324 218.945281 
L 68.997188 218.840359 
L 69.070278 218.656745 
L 69.166448 218.578053 
L 69.266466 218.368208 
L 69.270313 218.368208 
L 69.562671 217.974749 
L 69.658842 217.869827 
L 69.793481 217.528829 
L 69.92812 217.423907 
L 70.112767 216.925526 
L 70.189704 216.820603 
L 70.282028 216.68945 
L 70.358964 216.584528 
L 70.489756 216.427144 
L 70.58208 216.322222 
L 70.67825 216.164838 
L 70.728259 216.059916 
L 70.832123 215.79761 
L 70.83597 215.79761 
L 70.882132 215.692688 
L 70.985996 215.561535 
L 71.028312 215.482843 
L 71.105248 215.246768 
L 71.112942 215.246768 
L 71.228346 215.141845 
L 71.336058 214.90577 
L 71.378373 214.800847 
L 71.443769 214.800847 
L 71.586101 214.722156 
L 71.686119 214.45985 
L 71.751515 214.354927 
L 72.266989 212.938475 
L 72.328538 212.833553 
L 72.409322 212.72863 
L 72.513186 212.623708 
L 72.620897 212.387633 
L 72.70168 212.28271 
L 72.786311 212.099096 
L 72.894022 211.994174 
L 72.997886 211.81056 
L 73.001733 211.81056 
L 73.070976 211.784329 
L 73.070976 211.731868 
L 73.170993 211.469562 
L 73.224849 211.39087 
L 73.324866 211.128564 
L 73.367181 211.023642 
L 73.467199 210.840028 
L 73.524901 210.735105 
L 73.601837 210.525261 
L 73.632612 210.525261 
L 73.724936 210.446569 
L 73.724936 210.420338 
L 73.936511 210.07934 
L 74.040376 209.974418 
L 74.132699 209.895726 
L 74.14424 209.895726 
L 74.244257 209.790804 
L 74.486607 209.318653 
L 74.513535 209.292423 
L 74.513535 209.213731 
L 74.64048 209.082578 
L 74.702029 208.977656 
L 74.809741 208.662888 
L 74.859749 208.610427 
L 74.990541 208.085815 
L 75.086712 207.980893 
L 75.136721 207.771048 
L 75.186729 207.771048 
L 75.309828 207.666126 
L 75.394458 207.508742 
L 75.417539 207.508742 
L 75.51371 207.40382 
L 75.679123 207.036592 
L 75.721438 206.931669 
L 75.817609 206.643133 
L 75.825302 206.643133 
L 75.952248 206.564441 
L 76.306155 205.751292 
L 76.356164 205.593909 
L 76.398479 205.593909 
L 76.486956 205.488987 
L 76.560046 205.357834 
L 76.586974 205.357834 
L 76.725459 205.252911 
L 76.81009 205.043066 
L 76.833171 205.043066 
L 76.987044 204.990605 
L 77.206313 204.675838 
L 77.348645 204.570916 
L 77.429428 204.413532 
L 77.452509 204.413532 
L 77.641004 204.30861 
L 77.741021 204.072534 
L 77.87566 203.967612 
L 77.975678 203.86269 
L 77.979524 203.86269 
L 78.002605 203.836459 
L 78.098776 203.652845 
L 78.341126 203.102002 
L 78.414216 202.99708 
L 78.521927 202.892158 
L 78.579629 202.787235 
L 78.679647 202.55116 
L 79.17204 201.711781 
L 79.264364 201.475706 
L 79.279751 201.475706 
L 79.322066 201.449475 
L 79.399003 201.187169 
L 79.406696 201.187169 
L 79.491327 201.134708 
L 79.491327 201.082247 
L 79.637506 200.79371 
L 79.764451 200.688788 
L 79.849081 200.426482 
L 79.906784 200.34779 
L 80.014495 200.006792 
L 80.156827 199.90187 
L 80.333781 199.429719 
L 80.787707 198.642801 
L 80.891571 198.537879 
L 81.36473 197.6985 
L 81.576306 197.593578 
L 81.672476 197.436194 
L 81.68017 197.436194 
L 81.757107 197.383733 
L 81.757107 197.357502 
L 81.926367 197.095196 
L 82.203338 196.990274 
L 82.295662 196.780429 
L 82.422607 196.675507 
L 82.530318 196.308279 
L 82.607255 196.203356 
L 82.711119 195.91482 
L 82.714966 195.91482 
L 82.961163 195.600053 
L 83.041946 195.49513 
L 83.111189 195.363977 
L 83.14581 195.363977 
L 83.815158 194.288523 
L 83.930563 194.052448 
L 84.045967 193.947525 
L 84.1883 193.685219 
L 84.419109 193.580297 
L 84.522974 193.396683 
L 84.699928 193.29176 
L 84.892269 193.029454 
L 85.01152 192.924532 
L 85.08461 192.740918 
L 85.099997 192.740918 
L 85.200015 192.635995 
L 85.284645 192.39992 
L 85.307726 192.39992 
L 85.434671 192.294998 
L 87.35039 189.226018 
L 87.473488 189.121096 
L 87.5812 188.832559 
L 87.661983 188.727637 
L 87.762 188.570253 
L 87.785081 188.544023 
L 88.339024 187.573491 
L 88.408267 187.468568 
L 88.515978 187.206262 
L 88.689085 187.10134 
L 88.827571 186.891495 
L 88.954516 186.812804 
L 89.062227 186.602959 
L 89.104542 186.498036 
L 89.154551 186.340653 
L 89.200713 186.340653 
L 89.469991 186.078347 
L 89.577702 185.894733 
L 89.708494 185.78981 
L 89.812358 185.606196 
L 89.912376 185.527504 
L 90.277824 185.055354 
L 90.558642 184.950431 
L 90.65866 184.819278 
L 90.739443 184.740587 
L 90.847154 184.478281 
L 90.920244 184.373358 
L 91.031802 184.215975 
L 91.120279 184.137283 
L 91.158747 184.00613 
L 92.447433 182.379833 
L 92.735945 182.038835 
L 92.801341 181.986374 
L 92.809035 181.986374 
L 93.551472 181.278148 
L 93.655336 181.173226 
L 93.755354 180.963381 
L 93.886146 180.884689 
L 94.136189 180.49123 
L 94.266981 180.386308 
L 94.386233 180.202694 
L 94.693979 179.887927 
L 94.88632 179.783004 
L 94.967104 179.651851 
L 94.994031 179.651851 
L 95.20176 179.205931 
L 95.236381 179.101009 
L 95.27485 179.101009 
L 95.447957 178.917395 
L 95.574902 178.70755 
L 95.817252 178.523936 
L 95.905729 178.419013 
L 96.021134 178.182938 
L 96.301952 178.078016 
L 96.421203 177.946863 
L 96.675094 177.632096 
L 96.755877 177.527173 
L 96.767418 177.527173 
L 96.905903 177.422251 
L 97.013615 177.291098 
L 97.090551 177.186176 
L 97.194415 177.028792 
L 97.198262 177.028792 
L 97.494468 176.530411 
L 97.617566 176.425488 
L 97.686809 176.268105 
L 97.72143 176.268105 
L 97.882997 176.163182 
L 97.933006 176.032029 
L 97.986861 176.032029 
L 98.113806 175.953338 
L 98.27922 175.717262 
L 98.513876 175.297573 
L 98.652362 175.19265 
L 98.748533 175.087728 
L 98.752379 175.087728 
L 98.994729 174.982806 
L 100.421901 172.753205 
L 100.475757 172.674513 
L 100.706567 172.228593 
L 100.810431 172.123671 
L 100.914295 171.887596 
L 100.918142 171.887596 
L 101.04124 171.782673 
L 101.59903 170.785911 
L 101.729822 170.680988 
L 101.872155 170.418682 
L 101.952938 170.33999 
L 102.056802 170.156376 
L 102.183747 170.051454 
L 102.279918 169.86784 
L 102.287612 169.86784 
L 102.333774 169.841609 
L 102.333774 169.789148 
L 103.576298 168.162851 
L 103.618613 168.057929 
L 103.726324 167.848084 
L 103.903278 167.638239 
L 103.984061 167.533317 
L 104.076385 167.454625 
L 104.091773 167.454625 
L 104.161015 167.349703 
L 104.372591 167.087397 
L 104.464915 166.982474 
L 104.51877 166.851321 
L 104.572626 166.851321 
L 104.684184 166.77263 
L 104.799588 166.510324 
L 104.822669 166.510324 
L 104.822669 166.457863 
L 106.134437 164.936488 
L 106.245995 164.831566 
L 106.253688 164.779105 
L 106.326778 164.779105 
L 106.499885 164.700413 
L 106.499885 164.674182 
L 106.665298 164.464337 
L 106.807631 164.385646 
L 106.911495 164.070878 
L 107.084602 163.624958 
L 107.219241 163.520036 
L 107.307718 163.415114 
L 107.315412 163.415114 
L 108.65026 161.972431 
L 108.754124 161.762586 
L 108.973393 161.657664 
L 109.081105 161.421588 
L 109.227284 161.316666 
L 109.315761 161.185513 
L 109.331148 161.185513 
L 109.37731 161.080591 
L 109.477328 160.923207 
L 109.485021 160.923207 
L 109.746605 160.818285 
L 109.85047 160.582209 
L 110.112054 160.477287 
L 110.17745 160.319904 
L 110.204377 160.319904 
L 110.265927 160.214981 
L 110.342863 160.005136 
L 110.373638 160.005136 
L 110.462115 159.900214 
L 110.554439 159.821522 
L 110.762167 159.7166 
L 110.84295 159.559216 
L 110.866031 159.559216 
L 111.027598 159.506755 
L 111.219939 159.401833 
L 111.319957 159.244449 
L 111.366119 159.165757 
L 111.47383 159.008374 
L 111.512298 158.929682 
L 111.577694 158.85099 
L 111.612315 158.85099 
L 111.71618 158.746068 
L 111.816197 158.588684 
L 111.820044 158.588684 
L 111.927755 158.483762 
L 111.97007 158.352609 
L 112.023926 158.352609 
L 112.208573 158.247687 
L 112.270123 158.142764 
L 112.316284 158.142764 
L 112.385527 158.037842 
L 112.485545 157.801766 
L 112.489392 157.801766 
L 112.577869 157.723075 
L 112.620184 157.565691 
L 112.666345 157.565691 
L 112.735588 157.460769 
L 112.831759 157.329616 
L 112.835606 157.329616 
L 113.031794 157.224693 
L 113.09719 157.09354 
L 113.120271 157.09354 
L 113.428017 156.726312 
L 113.562656 156.62139 
L 113.643439 156.464006 
L 113.820393 156.359084 
L 113.924257 156.149239 
L 114.193535 156.044317 
L 114.285859 155.991855 
L 114.543596 155.650858 
L 114.643614 155.441013 
L 114.697469 155.336091 
L 114.835955 155.126246 
L 114.955206 155.021324 
L 115.032143 154.86394 
L 115.166782 154.759018 
L 115.274493 154.680326 
L 115.36297 154.575403 
L 115.455294 154.41802 
L 115.555311 154.313097 
L 115.693797 154.208175 
L 115.839976 154.103253 
L 115.94384 153.814716 
L 115.982309 153.736024 
L 115.982309 153.709794 
L 116.105407 153.55241 
L 116.297748 153.447488 
L 116.42854 153.316335 
L 116.517017 153.211413 
L 116.628575 153.08026 
L 116.686278 153.001568 
L 116.793989 152.765492 
L 116.928628 152.66057 
L 116.936321 152.608109 
L 117.028645 152.608109 
L 117.151743 152.503186 
L 117.247914 152.398264 
L 117.259455 152.398264 
L 117.417174 152.240881 
L 117.597975 152.135958 
L 117.705686 151.978575 
L 117.917262 151.873652 
L 118.013432 151.716269 
L 118.101909 151.611346 
L 118.248089 151.296579 
L 118.375034 151.191657 
L 118.375034 151.165426 
L 118.478898 151.165426 
L 118.675086 151.060504 
L 118.817419 150.850659 
L 118.932823 150.745737 
L 119.013607 150.614584 
L 119.040535 150.614584 
L 119.125165 150.509661 
L 119.244416 150.352278 
L 119.348281 150.247355 
L 119.440604 150.116202 
L 119.452145 150.116202 
L 119.540622 150.01128 
L 119.636792 149.880127 
L 119.740657 149.775205 
L 119.863755 149.670282 
L 120.029169 149.56536 
L 120.156114 149.434207 
L 120.336915 149.329285 
L 120.444626 149.14567 
L 120.625426 149.040748 
L 120.725444 148.883364 
L 120.898551 148.778442 
L 121.006262 148.67352 
L 121.183216 148.463675 
L 121.263999 148.358753 
L 121.367864 148.2276 
L 121.544818 148.122677 
L 121.610214 148.017755 
L 121.629448 148.017755 
L 121.77178 147.912833 
L 121.810249 147.80791 
L 121.85641 147.80791 
L 121.952581 147.702988 
L 121.967968 147.650527 
L 122.006437 147.650527 
L 122.156463 147.545604 
L 122.233399 147.440682 
L 122.252633 147.440682 
L 122.32957 147.335759 
L 122.425741 147.152145 
L 122.621929 147.073454 
L 122.621929 147.047223 
L 122.764261 146.811148 
L 122.914287 146.706225 
L 123.018152 146.522611 
L 123.087394 146.417689 
L 123.148944 146.286536 
L 123.195106 146.286536 
L 123.287429 146.129152 
L 123.514392 146.02423 
L 123.618256 145.788154 
L 123.814444 145.57831 
L 123.891381 145.473387 
L 124.02602 145.342234 
L 124.272217 145.237312 
L 124.379928 145.106159 
L 124.476098 145.001237 
L 124.618431 144.896314 
L 124.703061 144.791392 
L 124.795385 144.607778 
L 124.810772 144.607778 
L 125.018501 144.26678 
L 125.08005 144.161858 
L 125.245463 143.952013 
L 125.414724 143.84709 
L 125.476273 143.689707 
L 125.499354 143.689707 
L 125.626299 143.584784 
L 125.73401 143.479862 
L 125.857108 143.37494 
L 125.941739 143.270017 
L 125.949432 143.270017 
L 126.168701 143.217556 
L 126.261025 143.060173 
L 126.380277 142.95525 
L 126.44952 142.876558 
L 126.664942 142.771636 
L 126.811121 142.50933 
L 126.934219 142.404408 
L 127.057318 142.325716 
L 127.168876 142.220794 
L 127.2612 142.115871 
L 127.399685 142.037179 
L 127.442 141.906026 
L 127.653576 141.801104 
L 127.742053 141.565029 
L 127.753593 141.565029 
L 127.834377 141.460106 
L 127.9267 141.302723 
L 128.095961 141.224031 
L 128.188284 141.145339 
L 128.203672 141.145339 
L 128.357545 141.040417 
L 128.446022 140.987956 
L 128.461409 140.987956 
L 128.55758 140.883033 
L 128.888407 140.515805 
L 129.069207 140.410883 
L 129.157684 140.30596 
L 129.246161 140.201038 
L 129.346179 140.069885 
L 129.561601 139.964963 
L 129.915509 139.571504 
L 130.073229 139.466581 
L 130.173246 139.282967 
L 130.323272 139.178045 
L 130.446371 139.099353 
L 130.588703 138.994431 
L 130.731036 138.784586 
L 130.788738 138.679663 
L 130.869521 138.574741 
L 130.892602 138.574741 
L 131.034935 138.443588 
L 131.146493 138.364896 
L 131.258051 138.207513 
L 131.415771 138.10259 
L 131.465779 138.023899 
L 131.523482 138.023899 
L 131.63504 137.918976 
L 131.738904 137.761593 
L 131.831228 137.65667 
L 131.985101 137.289442 
L 132.158208 137.18452 
L 132.238991 137.105828 
L 132.262072 137.105828 
L 132.408251 137.027136 
L 132.519809 136.922214 
L 132.639061 136.817291 
L 132.727538 136.686138 
L 132.742925 136.686138 
L 132.823709 136.581216 
L 132.927573 136.476293 
L 133.089139 136.371371 
L 133.208391 136.240218 
L 133.339183 136.135296 
L 133.42766 135.977912 
L 133.446894 135.977912 
L 133.569993 135.87299 
L 133.723866 135.768067 
L 133.808496 135.636914 
L 134.000837 135.531992 
L 134.085467 135.348378 
L 134.181638 135.243456 
L 134.316277 135.164764 
L 134.435528 135.059841 
L 134.512465 134.954919 
L 134.820211 134.849997 
L 134.939462 134.797535 
L 135.131804 134.692613 
L 135.251055 134.640152 
L 135.401081 134.53523 
L 135.562648 134.377846 
L 135.724215 134.272924 
L 135.785764 134.220462 
L 135.828079 134.220462 
L 136.070429 134.11554 
L 136.097357 134.063079 
L 136.128131 134.063079 
L 136.33586 133.958156 
L 136.439724 133.800773 
L 136.57821 133.695851 
L 136.682074 133.538467 
L 136.685921 133.538467 
L 136.951352 133.302392 
L 137.124459 133.197469 
L 137.23217 133.092547 
L 137.593772 132.987624 
L 137.701483 132.856472 
L 137.851509 132.751549 
L 137.955373 132.567935 
L 138.113093 132.463013 
L 138.163102 132.384321 
L 138.220804 132.384321 
L 138.366983 132.279398 
L 138.501622 132.226937 
L 138.674729 132.122015 
L 138.767053 131.990862 
L 138.778594 131.990862 
L 138.944007 131.88594 
L 139.020944 131.754787 
L 139.440248 131.335097 
L 139.563346 131.230175 
L 139.66721 131.125252 
L 139.7403 131.02033 
L 139.817236 130.941638 
L 139.971109 130.836716 
L 140.040352 130.705563 
L 140.048046 130.705563 
L 140.336558 130.60064 
L 140.463503 130.285873 
L 140.586601 130.180951 
L 140.675078 130.049798 
L 140.855879 129.971106 
L 140.955897 129.866184 
L 141.179012 129.761261 
L 141.313651 129.551417 
L 141.421362 129.446494 
L 141.509839 129.315341 
L 141.525227 129.315341 
L 141.944531 129.210419 
L 142.040701 129.105497 
L 142.194574 129.026805 
L 142.194574 129.000574 
L 142.336907 128.764499 
L 142.41769 128.659576 
L 142.444618 128.554654 
L 142.525401 128.554654 
L 142.621572 128.449732 
L 142.671581 128.37104 
L 142.710049 128.37104 
L 143.048569 128.266118 
L 143.252451 128.134965 
L 143.414018 128.030042 
L 143.583278 127.820197 
L 143.694836 127.715275 
L 143.721764 127.662814 
L 143.771773 127.662814 
L 143.879484 127.557892 
L 143.979501 127.400508 
L 144.117987 127.295586 
L 144.275707 127.138202 
L 144.360337 127.03328 
L 144.533444 126.797204 
L 144.645002 126.692282 
L 144.733479 126.534898 
L 144.748866 126.534898 
L 144.975829 126.429976 
L 145.033531 126.298823 
L 145.075846 126.298823 
L 145.148936 126.193901 
L 145.291268 125.984056 
L 145.518231 125.879133 
L 145.65287 125.800442 
L 145.775968 125.695519 
L 145.81059 125.643058 
L 145.845211 125.643058 
L 146.168345 125.328291 
L 146.256821 125.249599 
L 146.337605 125.223369 
L 146.337605 125.197138 
L 146.649198 124.82991 
L 146.71844 124.724987 
L 146.822305 124.593834 
L 147.126204 124.488912 
L 147.233915 124.41022 
L 147.291617 124.305298 
L 147.345473 124.252837 
L 147.395482 124.252837 
L 147.595517 124.147914 
L 147.664759 124.095453 
L 147.922497 123.990531 
L 147.999433 123.859378 
L 148.099451 123.780686 
L 148.099451 123.754455 
L 148.23409 123.570841 
L 148.364882 123.465919 
L 148.445665 123.387227 
L 148.461052 123.387227 
L 148.568763 123.282305 
L 148.641853 123.151152 
L 148.668781 123.151152 
L 148.826501 123.046229 
L 148.97268 122.915076 
L 149.211183 122.810154 
L 149.311201 122.731462 
L 149.411218 122.62654 
L 149.492001 122.521617 
L 149.503542 122.521617 
L 149.688189 122.442926 
L 149.688189 122.390464 
L 149.776666 122.390464 
L 149.899765 122.285542 
L 149.957467 122.20685 
L 149.988242 122.20685 
L 150.26906 122.049467 
L 150.453708 121.970775 
L 150.561419 121.656008 
L 150.68067 121.551085 
L 150.788381 121.498624 
L 151.207685 121.419932 
L 151.31155 121.236318 
L 151.469269 121.131396 
L 151.57698 121.052704 
L 151.673151 120.947782 
L 151.761628 120.86909 
L 151.942429 120.764168 
L 152.046293 120.633015 
L 152.384814 120.528092 
L 152.488678 120.396939 
L 152.684866 120.292017 
L 152.754109 120.239556 
L 152.792577 120.239556 
L 152.904135 120.134633 
L 153.011846 119.97725 
L 153.100323 119.872327 
L 153.161872 119.793636 
L 153.377295 119.688713 
L 153.450384 119.610022 
L 153.485006 119.610022 
L 153.754283 119.505099 
L 153.869688 119.400177 
L 154.127425 119.295254 
L 154.188975 119.190332 
L 154.412091 119.08541 
L 154.519802 118.954257 
L 154.646747 118.875565 
L 154.700602 118.770642 
L 154.750611 118.770642 
L 154.989114 118.66572 
L 155.073744 118.534567 
L 155.092979 118.534567 
L 155.192996 118.482106 
L 155.300707 118.377184 
L 155.435346 118.272261 
L 155.535363 118.088647 
L 155.700777 117.983725 
L 155.716164 117.957494 
L 155.893118 117.852572 
L 155.916199 117.747649 
L 155.993136 117.747649 
L 156.250873 117.642727 
L 156.354737 117.564035 
L 156.485529 117.459113 
L 156.66633 117.170576 
L 156.793275 117.065654 
L 156.870212 116.986962 
L 156.897139 116.986962 
L 157.089481 116.88204 
L 157.135643 116.803348 
L 157.193345 116.803348 
L 157.435695 116.724656 
L 157.543406 116.593503 
L 157.70882 116.488581 
L 157.770369 116.357428 
L 157.816531 116.357428 
L 157.981944 116.252505 
L 158.066574 116.147583 
L 158.081962 116.147583 
L 158.316618 116.095122 
L 158.408942 115.937738 
L 158.53204 115.832816 
L 158.685913 115.701663 
L 158.805165 115.622971 
L 158.912876 115.360665 
L 159.062902 115.255743 
L 159.147532 115.203282 
L 159.162919 115.203282 
L 159.486053 115.098359 
L 159.593764 114.993437 
L 159.770718 114.888515 
L 159.793799 114.836053 
L 159.878429 114.836053 
L 160.232337 114.731131 
L 160.336201 114.573747 
L 160.463146 114.468825 
L 160.563164 114.337672 
L 160.690109 114.23275 
L 160.71319 114.154058 
L 160.79782 114.154058 
L 161.020936 114.049136 
L 161.063251 113.970444 
L 161.11326 113.970444 
L 162.00957 113.314679 
L 162.244226 113.209757 
L 162.321163 113.157295 
L 162.459648 113.052373 
L 162.667377 112.842528 
L 162.786629 112.737606 
L 162.875106 112.632683 
L 162.882799 112.632683 
L 163.055906 112.553992 
L 163.055906 112.527761 
L 163.255941 112.396608 
L 163.479057 112.291686 
L 163.563687 112.212994 
L 163.586768 112.212994 
L 163.70602 112.134302 
L 163.894514 111.950688 
L 163.956063 111.924457 
L 163.956063 111.871996 
L 164.067621 111.740843 
L 164.256116 111.635921 
L 164.256116 111.60969 
L 164.352286 111.60969 
L 164.506159 111.504768 
L 164.610024 111.294923 
L 164.713888 111.216231 
L 164.802365 111.032617 
L 164.960085 110.927695 
L 165.048562 110.796542 
L 165.140885 110.69162 
L 165.237056 110.639158 
L 165.248597 110.639158 
L 165.348614 110.534236 
L 165.356308 110.481775 
L 165.429397 110.481775 
L 165.49864 110.376852 
L 165.625585 110.27193 
L 165.752531 110.167008 
L 165.860242 110.114546 
L 165.98334 110.009624 
L 166.083358 109.773549 
L 166.244924 109.668626 
L 166.387257 109.589935 
L 166.583445 109.485012 
L 166.702696 109.38009 
L 166.737318 109.301398 
L 166.825795 109.222706 
L 167.071992 109.117784 
L 167.175856 109.039092 
L 167.318188 108.9604 
L 167.318188 108.93417 
L 167.445134 108.803017 
L 167.495142 108.750556 
L 167.675943 108.51448 
L 167.899059 108.409558 
L 167.983689 108.304635 
L 167.99523 108.304635 
L 168.276048 108.199713 
L 168.372218 108.04233 
L 168.549172 107.937407 
L 168.66073 107.832485 
L 168.776135 107.753793 
L 168.776135 107.727562 
L 168.883846 107.648871 
L 169.04926 107.543948 
L 169.13389 107.491487 
L 169.149277 107.491487 
L 169.399321 107.386565 
L 169.507032 107.255412 
L 169.599356 107.150489 
L 169.795544 106.966875 
L 170.107137 106.861953 
L 170.19946 106.75703 
L 170.395648 106.652108 
L 170.499513 106.573416 
L 170.676467 106.468494 
L 170.788025 106.389802 
L 170.968825 106.28488 
L 171.076536 106.127496 
L 171.353508 106.022574 
L 171.649713 105.786498 
L 171.795893 105.681576 
L 171.853595 105.629115 
L 171.903604 105.629115 
L 172.122873 105.524192 
L 172.226737 105.366809 
L 172.438313 105.261887 
L 172.515249 105.183195 
L 172.53833 105.183195 
L 172.772986 105.078272 
L 172.85377 104.999581 
L 172.876851 104.999581 
L 173.057651 104.894658 
L 173.196137 104.737275 
L 173.526964 104.632352 
L 173.619288 104.501199 
L 173.634675 104.501199 
L 173.742386 104.396277 
L 173.815476 104.317585 
L 174.092447 104.212663 
L 174.16169 104.133971 
L 174.196312 104.133971 
L 174.377112 104.029049 
L 174.446355 103.924126 
L 174.469436 103.924126 
L 174.527139 103.819204 
L 174.592535 103.740512 
L 174.631003 103.740512 
L 174.73102 103.63559 
L 174.81565 103.478206 
L 175.069541 103.373284 
L 175.127243 103.320823 
L 175.177252 103.320823 
L 175.304197 103.2159 
L 175.404215 103.110978 
L 175.408061 103.110978 
L 175.765816 103.006055 
L 175.77351 102.979825 
L 175.873527 102.979825 
L 175.977392 102.848672 
L 176.400542 102.74375 
L 176.481326 102.586366 
L 176.50056 102.586366 
L 176.673667 102.481444 
L 176.739063 102.350291 
L 176.765991 102.350291 
L 176.966026 102.245368 
L 177.062196 102.035523 
L 177.223763 101.930601 
L 177.343014 101.825679 
L 177.562283 101.720756 
L 177.600752 101.563373 
L 177.666148 101.563373 
L 177.850795 101.45845 
L 177.977741 101.379759 
L 178.277793 101.274836 
L 178.385504 101.169914 
L 178.527837 101.064991 
L 178.612467 101.01253 
L 178.624007 101.01253 
L 178.774033 100.907608 
L 178.974068 100.723994 
L 179.147175 100.619071 
L 179.235652 100.435457 
L 179.343363 100.330535 
L 179.43184 100.251843 
L 179.443381 100.251843 
L 180.058873 99.910845 
L 180.378159 99.805923 
L 180.512798 99.596078 
L 180.608969 99.491156 
L 180.743608 99.386233 
L 181.078282 99.307542 
L 181.193686 99.22885 
L 181.386028 99.097697 
L 181.424496 98.992775 
L 181.532207 98.887852 
L 181.655305 98.80916 
L 181.732242 98.704238 
L 182.197708 98.599316 
L 182.293878 98.520624 
L 182.459292 98.441932 
L 182.536228 98.33701 
L 182.563156 98.33701 
L 182.767038 98.232087 
L 182.820893 98.153396 
L 182.867055 98.153396 
L 183.159414 98.048473 
L 183.186342 97.943551 
L 183.263278 97.943551 
L 183.413304 97.838628 
L 183.4787 97.759937 
L 183.521015 97.759937 
L 183.824915 97.655014 
L 183.824915 97.628784 
L 183.905698 97.628784 
L 184.063418 97.550092 
L 184.063418 97.523861 
L 184.201903 97.314017 
L 184.405785 97.209094 
L 184.494262 97.051711 
L 184.663522 96.946788 
L 184.832783 96.868096 
L 185.01743 96.763174 
L 185.10206 96.658252 
L 185.117448 96.658252 
L 185.198231 96.553329 
L 185.25978 96.448407 
L 185.302095 96.448407 
L 185.625229 96.343485 
L 185.725246 96.238562 
L 185.73294 96.238562 
L 185.936821 96.13364 
L 186.402287 95.556567 
L 186.55616 95.451644 
L 186.633097 95.294261 
L 186.644637 95.294261 
L 186.856213 95.189338 
L 186.925456 95.058185 
L 186.936996 95.058185 
L 187.298598 94.953263 
L 187.410155 94.874571 
L 187.725595 94.769649 
L 187.779451 94.717188 
L 187.829459 94.717188 
L 187.971792 94.612265 
L 188.052575 94.533574 
L 188.310313 94.428651 
L 188.402636 94.402421 
L 188.73731 94.297498 
L 188.756544 94.218806 
L 188.806553 94.218806 
L 189.014282 94.113884 
L 189.168155 94.035192 
L 189.522062 93.93027 
L 189.664395 93.667964 
L 189.933673 93.563042 
L 190.041384 93.458119 
L 190.176023 93.353197 
L 190.252959 93.274505 
L 190.279887 93.274505 
L 190.472228 93.195813 
L 190.568399 93.090891 
L 190.572246 93.090891 
L 190.891532 92.985969 
L 191.118495 92.881046 
L 191.195431 92.828585 
L 191.214665 92.828585 
L 191.399313 92.723663 
L 191.691672 92.59251 
L 191.995571 92.487587 
L 192.095588 92.382665 
L 192.487964 92.277742 
L 192.576441 92.120359 
L 192.591829 92.120359 
L 192.687999 92.015437 
L 192.753395 91.936745 
L 192.984205 91.831822 
L 193.11115 91.779361 
L 193.565075 91.674439 
L 193.665093 91.543286 
L 193.899749 91.438363 
L 194.003614 91.28098 
L 194.130559 91.202288 
L 194.16518 91.044905 
L 194.172874 91.044905 
L 194.326747 90.939982 
L 194.434458 90.86129 
L 194.557556 90.756368 
L 194.872996 90.651446 
L 194.969167 90.520293 
L 195.103806 90.41537 
L 195.149967 90.336679 
L 195.203823 90.336679 
L 195.346155 90.257987 
L 195.346155 90.231756 
L 195.492335 89.995681 
L 195.588505 89.890758 
L 195.707757 89.733375 
L 196.165529 89.628452 
L 196.288628 89.497299 
L 196.573293 89.392377 
L 196.657923 89.261224 
L 196.67331 89.261224 
L 197.08492 89.156302 
L 197.177244 89.07761 
L 197.192631 89.07761 
L 197.515765 88.972688 
L 197.619629 88.920226 
L 197.735034 88.815304 
L 197.827358 88.736612 
L 197.842745 88.736612 
L 197.904294 88.63169 
L 197.904294 88.579229 
L 198.000465 88.579229 
L 198.162031 88.474306 
L 198.269742 88.316923 
L 198.439003 88.212 
L 198.562101 88.133309 
L 198.704434 88.028386 
L 198.715974 87.949694 
L 198.808298 87.949694 
L 199.131431 87.844772 
L 199.223755 87.73985 
L 199.231449 87.73985 
L 199.354547 87.661158 
L 199.431484 87.556236 
L 199.443024 87.556236 
L 199.481492 87.451313 
L 199.585357 87.372621 
L 199.789238 87.267699 
L 199.827707 87.215238 
L 199.896949 87.215238 
L 200.277785 87.110315 
L 200.412424 87.031624 
L 200.55091 86.926701 
L 200.566297 86.900471 
L 200.654774 86.900471 
L 200.850962 86.690626 
L 201.147168 86.585704 
L 201.227951 86.533242 
L 201.247185 86.533242 
L 201.416445 86.42832 
L 201.52031 86.375859 
L 201.60494 86.270936 
L 201.643408 86.192245 
L 201.693417 86.192245 
L 201.901145 86.087322 
L 201.978082 85.929939 
L 202.001163 85.929939 
L 202.24736 85.825016 
L 202.24736 85.798786 
L 202.355071 85.798786 
L 202.455088 85.693863 
L 202.57434 85.615172 
L 202.751294 85.510249 
L 202.859005 85.352866 
L 202.932094 85.300404 
L 202.932094 85.274174 
L 203.078274 85.11679 
L 203.339858 85.011868 
L 203.466803 84.933176 
L 203.778396 84.828254 
L 203.820711 84.775793 
L 203.886107 84.775793 
L 204.170772 84.67087 
L 204.216934 84.565948 
L 204.278483 84.565948 
L 204.424663 84.461025 
L 204.501599 84.329872 
L 204.532374 84.329872 
L 204.617004 84.22495 
L 204.720868 84.067567 
L 205.17864 83.962644 
L 205.186334 83.936414 
L 205.259424 83.936414 
L 205.555629 83.831491 
L 205.636412 83.77903 
L 205.659493 83.77903 
L 205.924924 83.674108 
L 206.017248 83.595416 
L 206.021095 83.595416 
L 206.367309 83.490493 
L 206.617353 83.280649 
L 206.736604 83.201957 
L 206.771226 83.097035 
L 206.840469 83.097035 
L 207.048197 82.992112 
L 207.244385 82.939651 
L 207.367484 82.834729 
L 207.405952 82.782267 
L 207.475195 82.782267 
L 207.575212 82.703576 
L 207.702157 82.624884 
L 207.963742 82.519961 
L 207.963742 82.493731 
L 208.052218 82.493731 
L 208.352271 82.388809 
L 208.390739 82.310117 
L 208.436901 82.310117 
L 208.775422 82.205194 
L 208.906214 82.074041 
L 208.986997 81.969119 
L 209.017772 81.890427 
L 209.05624 81.890427 
L 209.31013 81.811735 
L 209.337058 81.706813 
L 209.387067 81.706813 
L 209.610183 81.601891 
L 209.690966 81.549429 
L 209.714047 81.549429 
L 210.102576 81.444507 
L 210.102576 81.418277 
L 210.202594 81.418277 
L 210.368007 81.313354 
L 210.368007 81.287124 
L 210.468025 81.287124 
L 210.621898 81.182201 
L 210.625744 81.12974 
L 210.714221 81.12974 
L 210.887329 81.024818 
L 210.887329 80.998587 
L 210.991193 80.998587 
L 211.214309 80.893665 
L 211.291245 80.788742 
L 211.306632 80.788742 
L 211.483586 80.68382 
L 211.560523 80.605128 
L 211.699009 80.500206 
L 211.810567 80.395283 
L 212.033682 80.290361 
L 212.156781 80.185439 
L 212.514536 80.080516 
L 212.576085 79.949363 
L 212.610706 79.949363 
L 212.753039 79.844441 
L 212.772273 79.79198 
L 212.86075 79.79198 
L 213.091559 79.713288 
L 213.176189 79.608366 
L 213.18773 79.608366 
L 213.35699 79.503443 
L 213.35699 79.477213 
L 213.426233 79.477213 
L 213.833996 79.37229 
L 213.91478 79.267368 
L 213.941708 79.267368 
L 214.141742 79.188676 
L 214.199445 79.005062 
L 214.234066 79.005062 
L 214.372552 78.900139 
L 214.487957 78.847678 
L 214.872639 78.742756 
L 214.949576 78.664064 
L 214.976504 78.664064 
L 215.153457 78.559142 
L 215.272709 78.375528 
L 215.703553 78.270605 
L 215.78049 78.191913 
L 216.134398 78.086991 
L 216.27673 77.982069 
L 216.492153 77.877146 
L 216.515234 77.824685 
L 216.549855 77.824685 
L 216.996087 77.719763 
L 217.092257 77.667302 
L 217.673128 77.562379 
L 217.800073 77.404996 
L 218.146287 77.300073 
L 218.234764 77.221381 
L 218.242458 77.221381 
L 218.561744 77.116459 
L 218.623294 76.985306 
L 218.669456 76.985306 
L 218.746392 76.880384 
L 218.796401 76.827923 
L 218.831022 76.827923 
L 218.957967 76.723 
L 219.02721 76.644308 
L 219.054138 76.644308 
L 219.234939 76.539386 
L 219.392659 76.434464 
L 219.492676 76.303311 
L 219.654243 76.198388 
L 219.723486 76.119697 
L 219.761954 76.119697 
L 219.981223 76.014774 
L 220.073547 75.909852 
L 220.300509 75.804929 
L 220.46977 75.673776 
L 220.658264 75.595085 
L 220.658264 75.568854 
L 220.773669 75.463932 
L 221.227594 75.359009 
L 221.346846 75.306548 
L 221.746916 75.201626 
L 221.835393 75.122934 
L 222.108517 75.018012 
L 222.185454 74.93932 
L 222.216228 74.93932 
L 222.550902 74.834397 
L 222.708622 74.677014 
L 222.997134 74.572091 
L 223.081764 74.467169 
L 223.462599 74.362247 
L 223.527996 74.257324 
L 223.539536 74.257324 
L 223.916525 74.152402 
L 224.008849 74.07371 
L 224.44354 73.968788 
L 224.505089 73.890096 
L 224.551251 73.890096 
L 224.75898 73.785174 
L 224.858997 73.654021 
L 225.120581 73.549098 
L 225.247526 73.417945 
L 225.420633 73.313023 
L 225.49757 73.208101 
L 225.512957 73.208101 
L 225.82455 73.103178 
L 225.851478 73.050717 
L 225.932261 73.050717 
L 226.443889 72.945795 
L 226.643924 72.788411 
L 226.901661 72.683489 
L 226.901661 72.657258 
L 226.982444 72.657258 
L 227.297884 72.552336 
L 227.305578 72.526105 
L 227.374821 72.526105 
L 227.701801 72.421183 
L 227.701801 72.394952 
L 227.786431 72.394952 
L 228.059555 72.29003 
L 228.167266 72.211338 
L 228.301905 72.027724 
L 228.894316 71.922801 
L 228.963559 71.765418 
L 229.340548 71.660496 
L 229.409791 71.608034 
L 229.429025 71.608034 
L 229.55597 71.503112 
L 229.609826 71.42442 
L 229.652141 71.42442 
L 229.921419 71.319498 
L 229.975274 71.240806 
L 229.986815 71.240806 
L 230.375344 71.135884 
L 231.01007 70.768655 
L 231.367825 70.663733 
L 231.41014 70.637502 
L 231.467842 70.637502 
L 232.587268 70.165352 
L 232.752682 70.060429 
L 232.837312 69.929276 
L 232.860393 69.929276 
L 233.398948 69.824354 
L 233.437417 69.771893 
L 233.487425 69.771893 
L 233.702848 69.66697 
L 233.799018 69.64074 
L 233.925964 69.535817 
L 233.995206 69.483356 
L 234.029828 69.483356 
L 234.291412 69.378434 
L 234.395276 69.247281 
L 234.81458 69.142358 
L 234.88767 69.089897 
L 234.922291 69.089897 
L 235.337748 68.984975 
L 235.464694 68.827591 
L 235.77244 68.722669 
L 235.918619 68.617747 
L 236.034024 68.539055 
L 236.145582 68.460363 
L 236.372544 68.355441 
L 236.518724 68.224288 
L 236.868785 68.119365 
L 236.884172 68.066904 
L 236.964955 68.066904 
L 237.045739 67.961982 
L 237.08036 67.935751 
L 237.15345 67.935751 
L 237.484277 67.830829 
L 237.484277 67.804598 
L 237.591988 67.804598 
L 237.792023 67.699676 
L 237.811257 67.673445 
L 237.865112 67.673445 
L 238.130543 67.568523 
L 238.157471 67.489831 
L 238.234408 67.489831 
L 238.445983 67.384909 
L 238.553694 67.306217 
L 238.738342 67.201295 
L 238.803738 67.096372 
L 238.846053 67.096372 
L 239.053781 66.99145 
L 239.126871 66.912758 
L 239.149952 66.912758 
L 239.411536 66.807836 
L 239.530788 66.650452 
L 239.66158 66.54553 
L 239.726976 66.466838 
L 239.761597 66.466838 
L 239.923164 66.361916 
L 239.977019 66.283224 
L 240.030875 66.283224 
L 240.623286 66.178301 
L 240.634826 66.12584 
L 240.704069 66.12584 
L 241.196463 66.020918 
L 241.308021 65.994687 
L 241.669622 65.889765 
L 241.727325 65.837304 
L 241.777333 65.837304 
L 242.404366 65.732381 
L 242.477456 65.627459 
L 242.485149 65.627459 
L 242.635175 65.548767 
L 242.685184 65.391384 
L 242.735193 65.391384 
L 242.989083 65.286461 
L 242.989083 65.260231 
L 243.096794 65.260231 
L 243.304523 65.155308 
L 244.000798 64.81431 
L 244.316238 64.709388 
L 244.44703 64.630696 
L 244.620137 64.525774 
L 244.720155 64.420852 
L 245.01636 64.315929 
L 245.127918 64.289699 
L 245.25871 64.237237 
L 245.716482 64.132315 
L 245.8165 64.079854 
L 245.931904 63.974931 
L 245.958832 63.92247 
L 246.001147 63.92247 
L 246.612792 63.817548 
L 246.651261 63.738856 
L 246.685882 63.738856 
L 247.012862 63.633934 
L 247.012862 63.607703 
L 247.11288 63.607703 
L 247.847623 63.502781 
L 247.870704 63.424089 
L 247.939947 63.424089 
L 248.293855 63.319167 
L 248.478503 63.083091 
L 248.705465 62.978169 
L 248.863185 62.820785 
L 249.017058 62.715863 
L 249.093995 62.637171 
L 249.124769 62.637171 
L 249.263255 62.532249 
L 249.359425 62.374865 
L 249.367119 62.374865 
L 249.890287 62.269943 
L 249.940296 62.16502 
L 249.997998 62.16502 
L 250.555788 62.060098 
L 250.555788 62.033867 
L 250.644265 62.033867 
L 250.975092 61.928945 
L 251.052028 61.876484 
L 251.059722 61.876484 
L 251.459792 61.771562 
L 251.479026 61.69287 
L 251.540575 61.69287 
L 252.325328 61.587947 
L 252.425345 61.509256 
L 252.433039 61.509256 
L 252.529209 61.404333 
L 252.613839 61.351872 
L 252.633074 61.351872 
L 252.971594 61.24695 
L 253.060071 61.194488 
L 253.075458 61.194488 
L 253.452447 61.089566 
L 253.567852 61.063336 
L 253.721725 60.958413 
L 253.787121 60.879721 
L 253.790968 60.879721 
L 254.741134 60.460032 
L 255.248915 60.355109 
L 255.364319 60.302648 
L 255.560507 60.197726 
L 255.691299 60.040342 
L 256.202927 59.93542 
L 256.322179 59.830498 
L 256.491439 59.751806 
L 256.922283 59.646883 
L 257.014607 59.568192 
L 257.39929 59.463269 
L 257.553163 59.384577 
L 257.757044 59.279655 
L 257.876296 59.227194 
L 258.580265 59.122272 
L 258.657202 59.017349 
L 258.811075 58.938657 
L 259.030344 58.833735 
L 259.126514 58.755043 
L 259.453494 58.650121 
L 259.453494 58.62389 
L 259.561205 58.62389 
L 259.895879 58.518968 
L 260.057446 58.361584 
L 260.222859 58.256662 
L 260.407507 58.099278 
L 260.849892 57.994356 
L 260.934522 57.941895 
L 260.949909 57.941895 
L 261.234574 57.863203 
L 261.326898 57.758281 
L 261.519239 57.653358 
L 261.638491 57.574667 
L 262.000092 57.469744 
L 262.000092 57.443514 
L 262.103957 57.443514 
L 262.59635 57.338591 
L 262.688674 57.28613 
L 263.011807 57.181208 
L 263.050276 57.102516 
L 263.111825 57.102516 
L 263.431111 56.997593 
L 263.573444 56.945132 
L 263.750398 56.84021 
L 263.858109 56.787749 
L 264.223557 56.682826 
L 264.223557 56.656596 
L 264.250485 56.656596 
L 264.773653 56.577904 
L 265.2622 56.42052 
L 265.966169 56.315598 
L 265.966169 56.289367 
L 265.981556 56.289367 
L 266.700913 56.184445 
L 266.700913 56.158214 
L 266.78939 56.158214 
L 267.108676 56.053292 
L 267.281783 56.000831 
L 267.60107 55.895908 
L 267.78187 55.817217 
L 268.278111 55.712294 
L 268.393516 55.633603 
L 268.947458 55.52868 
L 268.947458 55.50245 
L 269.051323 55.50245 
L 269.38215 55.397527 
L 269.520635 55.345066 
L 269.778373 55.240144 
L 269.893777 55.187682 
L 270.497729 55.108991 
L 270.497729 55.08276 
L 270.620827 55.004068 
L 271.678704 54.899146 
L 271.686398 54.846685 
L 271.767181 54.846685 
L 272.05954 54.741762 
L 272.067234 54.715532 
L 272.151864 54.715532 
L 272.54424 54.610609 
L 272.632717 54.453226 
L 272.651951 54.453226 
L 273.548261 54.348303 
L 273.667513 54.269612 
L 275.498601 53.718769 
L 275.575538 53.666308 
L 275.602466 53.666308 
L 276.229498 53.561386 
L 276.298741 53.508924 
L 276.333362 53.508924 
L 276.818062 53.404002 
L 276.925774 53.377771 
L 277.410473 53.272849 
L 277.506644 53.220388 
L 278.302937 53.115466 
L 278.45681 53.036774 
L 279.253103 52.931851 
L 279.349273 52.905621 
L 279.726262 52.800698 
L 279.783964 52.748237 
L 279.833973 52.748237 
L 280.472546 52.643315 
L 280.537942 52.590854 
L 280.57641 52.590854 
L 281.21883 52.485931 
L 281.253452 52.328548 
L 281.318848 52.328548 
L 281.615053 52.223625 
L 281.753539 52.171164 
L 282.184383 52.066242 
L 282.303635 52.013781 
L 282.388265 51.961319 
L 282.749867 51.856397 
L 282.869118 51.725244 
L 283.39998 51.620322 
L 283.507691 51.56786 
L 284.065481 51.462938 
L 284.184732 51.410477 
L 285.100277 51.305555 
L 285.25415 51.279324 
L 286.131226 51.174402 
L 286.138919 51.12194 
L 286.231243 51.12194 
L 286.55053 51.017018 
L 286.631313 50.912096 
L 286.654394 50.912096 
L 287.162175 50.807173 
L 287.258345 50.702251 
L 287.266039 50.702251 
L 287.716118 50.597328 
L 287.750739 50.544867 
L 287.766126 50.544867 
L 288.200818 50.439945 
L 288.308529 50.387484 
L 288.758607 50.282561 
L 288.758607 50.256331 
L 288.835544 50.256331 
L 289.447189 50.151408 
L 289.562594 50.072717 
L 289.858799 49.967794 
L 289.981898 49.915333 
L 290.878208 49.810411 
L 291.035928 49.757949 
L 291.524474 49.653027 
L 291.678347 49.574335 
L 291.997634 49.469413 
L 292.143813 49.364491 
L 292.797774 49.259568 
L 292.882404 49.207107 
L 292.905485 49.207107 
L 293.078592 49.102185 
L 293.078592 49.075954 
L 293.186303 49.075954 
L 293.817182 48.971032 
L 293.817182 48.944801 
L 293.913353 48.944801 
L 294.432674 48.839879 
L 294.490377 48.813648 
L 294.49807 48.813648 
L 295.063553 48.708726 
L 295.105869 48.630034 
L 295.167418 48.630034 
L 295.96371 48.525112 
L 296.040647 48.420189 
L 297.471666 48.315267 
L 297.560143 48.289036 
L 298.887298 48.184114 
L 298.941153 48.157883 
L 298.948847 48.157883 
L 299.425853 48.052961 
L 299.44124 48.0005 
L 299.533564 48.0005 
L 300.022111 47.895577 
L 300.022111 47.869347 
L 300.125975 47.869347 
L 300.522198 47.764424 
L 300.529892 47.685733 
L 300.626062 47.685733 
L 300.891493 47.58081 
L 300.995358 47.502118 
L 301.672399 47.397196 
L 301.79165 47.344735 
L 302.453304 47.239812 
L 302.522547 47.161121 
L 302.561015 47.161121 
L 302.884149 47.082429 
L 302.884149 47.056198 
L 302.999553 47.003737 
L 303.484253 46.925045 
L 303.484253 46.898815 
L 303.595811 46.872584 
L 304.180529 46.767662 
L 304.334402 46.636509 
L 305.046064 46.531586 
L 305.192244 46.400433 
L 305.980843 46.295511 
L 306.08086 46.26928 
L 306.519398 46.164358 
L 306.577101 46.111897 
L 306.600182 46.111897 
L 307.019486 46.006975 
L 307.019486 45.980744 
L 307.092575 45.980744 
L 307.600356 45.875822 
L 307.661905 45.82336 
L 307.708067 45.82336 
L 308.427424 45.718438 
L 308.438964 45.692207 
L 308.527441 45.692207 
L 309.500688 45.587285 
L 309.619939 45.534824 
L 309.896911 45.429901 
L 309.935379 45.35121 
L 310.004622 45.35121 
L 310.131567 45.220057 
L 310.504709 45.115134 
L 310.620114 45.062673 
L 311.035571 44.957751 
L 311.112507 44.90529 
L 311.143282 44.90529 
L 311.89726 44.800367 
L 311.9088 44.774137 
L 312.004971 44.774137 
L 312.79357 44.669214 
L 313.27827 44.538061 
L 314.186121 44.433139 
L 314.397696 44.328216 
L 316.259559 44.223294 
L 316.401892 44.118372 
L 316.736566 44.013449 
L 316.890439 43.934758 
L 317.56748 43.829835 
L 317.605948 43.803605 
L 317.675191 43.803605 
L 318.256061 43.698682 
L 318.602276 43.59376 
L 319.421649 43.488837 
L 319.421649 43.462607 
L 320.325653 43.357685 
L 320.325653 43.331454 
L 320.429518 43.331454 
L 322.533731 43.226532 
L 322.602974 43.17407 
L 322.629901 43.17407 
L 323.214619 43.069148 
L 323.314636 43.042917 
L 323.737787 42.964226 
L 323.737787 42.937995 
L 323.930128 42.885534 
L 324.230181 42.780611 
L 324.230181 42.754381 
L 324.334045 42.754381 
L 324.876447 42.649458 
L 324.957231 42.596997 
L 324.984158 42.596997 
L 326.049729 42.492075 
L 326.161287 42.465844 
L 326.907571 42.360922 
L 326.996048 42.256 
L 327.015282 42.256 
L 328.780975 42.151077 
L 328.884839 42.098616 
L 329.546493 42.019924 
L 329.869626 41.941232 
L 330.946737 41.83631 
L 330.946737 41.810079 
L 331.054448 41.810079 
L 331.34296 41.705157 
L 331.462212 41.652696 
L 332.31236 41.547774 
L 332.454693 41.469082 
L 333.377931 41.364159 
L 333.470254 41.311698 
L 333.481795 41.311698 
L 334.801256 41.206776 
L 334.870499 41.128084 
L 334.878192 41.128084 
L 335.46291 41.023162 
L 335.501378 40.996931 
L 335.562927 40.996931 
L 336.301518 40.892009 
L 336.301518 40.865778 
L 336.409229 40.865778 
L 337.005487 40.760856 
L 337.151666 40.655933 
L 337.567123 40.551011 
L 337.778698 40.52478 
L 338.444199 40.419858 
L 338.444199 40.393627 
L 338.532676 40.393627 
L 339.494382 40.288705 
L 339.582859 40.262474 
L 341.325471 40.157552 
L 341.325471 40.131321 
L 341.429335 40.131321 
L 342.306411 40.026399 
L 342.391042 39.973938 
L 342.402582 39.973938 
L 343.148866 39.869015 
L 343.260424 39.842785 
L 343.625872 39.764093 
L 343.875916 39.711632 
L 344.568345 39.60671 
L 344.995342 39.554248 
L 347.068781 39.449326 
L 347.068781 39.423095 
L 347.164951 39.423095 
L 348.330539 39.318173 
L 348.461331 39.265712 
L 349.507668 39.160789 
L 349.549983 39.134559 
L 349.615379 39.134559 
L 350.880984 39.029636 
L 350.880984 39.003406 
L 350.973308 39.003406 
L 351.788835 38.898484 
L 351.815763 38.872253 
L 351.869618 38.872253 
L 353.773797 38.767331 
L 353.773797 38.7411 
L 353.877661 38.7411 
L 354.26619 38.636178 
L 354.385442 38.609947 
L 355.739524 38.505025 
L 355.739524 38.478794 
L 355.847235 38.478794 
L 357.605234 38.373872 
L 357.709099 38.29518 
L 359.386314 38.190257 
L 359.413242 38.137796 
L 359.494026 38.137796 
L 360.363408 38.032874 
L 360.363408 38.006643 
L 360.471119 38.006643 
L 361.867517 37.901721 
L 361.986768 37.87549 
L 363.590894 37.770568 
L 363.706299 37.744337 
L 365.937457 37.639415 
L 365.972079 37.586954 
L 366.041322 37.586954 
L 366.383689 37.560723 
L 368.27248 37.455801 
L 368.368651 37.40334 
L 368.380191 37.40334 
L 369.449609 37.298417 
L 369.522698 37.272187 
L 369.834291 37.167264 
L 369.89584 37.114803 
L 369.918921 37.114803 
L 370.807538 37.009881 
L 370.94987 36.98365 
L 371.961585 36.878728 
L 371.961585 36.852497 
L 372.069297 36.852497 
L 373.492622 36.747575 
L 373.631107 36.721344 
L 374.831317 36.616422 
L 374.969803 36.590191 
L 376.262336 36.485269 
L 376.377741 36.459038 
L 377.297132 36.354116 
L 377.558716 36.275424 
L 379.416732 36.170502 
L 379.562912 36.118041 
L 380.147629 36.013118 
L 380.263034 35.986888 
L 381.72098 35.881965 
L 381.72098 35.855735 
L 381.828692 35.855735 
L 385.690904 35.750812 
L 385.860164 35.724582 
L 387.875901 35.619659 
L 387.883594 35.593429 
L 387.983612 35.593429 
L 391.368818 35.488506 
L 391.42652 35.436045 
L 391.472682 35.436045 
L 392.353605 35.331123 
L 392.353605 35.304892 
L 392.457469 35.304892 
L 395.654181 35.19997 
L 395.692649 35.147509 
L 395.761892 35.147509 
L 398.604695 35.042586 
L 398.616236 35.016356 
L 398.700866 35.016356 
L 400.90125 34.990125 
L 400.90125 34.990125 
" clip-path="url(#p1b1853999e)" style="fill: none; stroke: #ff0000; stroke-opacity: 0.5; stroke-width: 2; stroke-linecap: square"/>
   </g>
   <g id="patch_3">
    <path d="M 43.78125 288.430125 
L 43.78125 22.318125 
" style="fill: none; stroke: #000000; stroke-width: 0.8; stroke-linejoin: miter; stroke-linecap: square"/>
   </g>
   <g id="patch_4">
    <path d="M 400.90125 288.430125 
L 400.90125 22.318125 
" style="fill: none; stroke: #000000; stroke-width: 0.8; stroke-linejoin: miter; stroke-linecap: square"/>
   </g>
   <g id="patch_5">
    <path d="M 43.78125 288.430125 
L 400.90125 288.430125 
" style="fill: none; stroke: #000000; stroke-width: 0.8; stroke-linejoin: miter; stroke-linecap: square"/>
   </g>
   <g id="patch_6">
    <path d="M 43.78125 22.318125 
L 400.90125 22.318125 
" style="fill: none; stroke: #000000; stroke-width: 0.8; stroke-linejoin: miter; stroke-linecap: square"/>
   </g>
   <g id="text_15">
    <!-- Receiver operating characteristic example -->
    <g transform="translate(95.046563 16.318125) scale(0.12 -0.12)">
     <defs>
      <path id="DejaVuSans-63" d="M 3122 3366 
L 3122 2828 
Q 2878 2963 2633 3030 
Q 2388 3097 2138 3097 
Q 1578 3097 1268 2742 
Q 959 2388 959 1747 
Q 959 1106 1268 751 
Q 1578 397 2138 397 
Q 2388 397 2633 464 
Q 2878 531 3122 666 
L 3122 134 
Q 2881 22 2623 -34 
Q 2366 -91 2075 -91 
Q 1284 -91 818 406 
Q 353 903 353 1747 
Q 353 2603 823 3093 
Q 1294 3584 2113 3584 
Q 2378 3584 2631 3529 
Q 2884 3475 3122 3366 
z
" transform="scale(0.015625)"/>
      <path id="DejaVuSans-70" d="M 1159 525 
L 1159 -1331 
L 581 -1331 
L 581 3500 
L 1159 3500 
L 1159 2969 
Q 1341 3281 1617 3432 
Q 1894 3584 2278 3584 
Q 2916 3584 3314 3078 
Q 3713 2572 3713 1747 
Q 3713 922 3314 415 
Q 2916 -91 2278 -91 
Q 1894 -91 1617 61 
Q 1341 213 1159 525 
z
M 3116 1747 
Q 3116 2381 2855 2742 
Q 2594 3103 2138 3103 
Q 1681 3103 1420 2742 
Q 1159 2381 1159 1747 
Q 1159 1113 1420 752 
Q 1681 391 2138 391 
Q 2594 391 2855 752 
Q 3116 1113 3116 1747 
z
" transform="scale(0.015625)"/>
      <path id="DejaVuSans-6e" d="M 3513 2113 
L 3513 0 
L 2938 0 
L 2938 2094 
Q 2938 2591 2744 2837 
Q 2550 3084 2163 3084 
Q 1697 3084 1428 2787 
Q 1159 2491 1159 1978 
L 1159 0 
L 581 0 
L 581 3500 
L 1159 3500 
L 1159 2956 
Q 1366 3272 1645 3428 
Q 1925 3584 2291 3584 
Q 2894 3584 3203 3211 
Q 3513 2838 3513 2113 
z
" transform="scale(0.015625)"/>
      <path id="DejaVuSans-67" d="M 2906 1791 
Q 2906 2416 2648 2759 
Q 2391 3103 1925 3103 
Q 1463 3103 1205 2759 
Q 947 2416 947 1791 
Q 947 1169 1205 825 
Q 1463 481 1925 481 
Q 2391 481 2648 825 
Q 2906 1169 2906 1791 
z
M 3481 434 
Q 3481 -459 3084 -895 
Q 2688 -1331 1869 -1331 
Q 1566 -1331 1297 -1286 
Q 1028 -1241 775 -1147 
L 775 -588 
Q 1028 -725 1275 -790 
Q 1522 -856 1778 -856 
Q 2344 -856 2625 -561 
Q 2906 -266 2906 331 
L 2906 616 
Q 2728 306 2450 153 
Q 2172 0 1784 0 
Q 1141 0 747 490 
Q 353 981 353 1791 
Q 353 2603 747 3093 
Q 1141 3584 1784 3584 
Q 2172 3584 2450 3431 
Q 2728 3278 2906 2969 
L 2906 3500 
L 3481 3500 
L 3481 434 
z
" transform="scale(0.015625)"/>
      <path id="DejaVuSans-68" d="M 3513 2113 
L 3513 0 
L 2938 0 
L 2938 2094 
Q 2938 2591 2744 2837 
Q 2550 3084 2163 3084 
Q 1697 3084 1428 2787 
Q 1159 2491 1159 1978 
L 1159 0 
L 581 0 
L 581 4863 
L 1159 4863 
L 1159 2956 
Q 1366 3272 1645 3428 
Q 1925 3584 2291 3584 
Q 2894 3584 3203 3211 
Q 3513 2838 3513 2113 
z
" transform="scale(0.015625)"/>
      <path id="DejaVuSans-78" d="M 3513 3500 
L 2247 1797 
L 3578 0 
L 2900 0 
L 1881 1375 
L 863 0 
L 184 0 
L 1544 1831 
L 300 3500 
L 978 3500 
L 1906 2253 
L 2834 3500 
L 3513 3500 
z
" transform="scale(0.015625)"/>
      <path id="DejaVuSans-6d" d="M 3328 2828 
Q 3544 3216 3844 3400 
Q 4144 3584 4550 3584 
Q 5097 3584 5394 3201 
Q 5691 2819 5691 2113 
L 5691 0 
L 5113 0 
L 5113 2094 
Q 5113 2597 4934 2840 
Q 4756 3084 4391 3084 
Q 3944 3084 3684 2787 
Q 3425 2491 3425 1978 
L 3425 0 
L 2847 0 
L 2847 2094 
Q 2847 2600 2669 2842 
Q 2491 3084 2119 3084 
Q 1678 3084 1418 2786 
Q 1159 2488 1159 1978 
L 1159 0 
L 581 0 
L 581 3500 
L 1159 3500 
L 1159 2956 
Q 1356 3278 1631 3431 
Q 1906 3584 2284 3584 
Q 2666 3584 2933 3390 
Q 3200 3197 3328 2828 
z
" transform="scale(0.015625)"/>
     </defs>
     <use xlink:href="#DejaVuSans-52"/>
     <use xlink:href="#DejaVuSans-65" x="64.982422"/>
     <use xlink:href="#DejaVuSans-63" x="126.505859"/>
     <use xlink:href="#DejaVuSans-65" x="181.486328"/>
     <use xlink:href="#DejaVuSans-69" x="243.009766"/>
     <use xlink:href="#DejaVuSans-76" x="270.792969"/>
     <use xlink:href="#DejaVuSans-65" x="329.972656"/>
     <use xlink:href="#DejaVuSans-72" x="391.496094"/>
     <use xlink:href="#DejaVuSans-20" x="432.609375"/>
     <use xlink:href="#DejaVuSans-6f" x="464.396484"/>
     <use xlink:href="#DejaVuSans-70" x="525.578125"/>
     <use xlink:href="#DejaVuSans-65" x="589.054688"/>
     <use xlink:href="#DejaVuSans-72" x="650.578125"/>
     <use xlink:href="#DejaVuSans-61" x="691.691406"/>
     <use xlink:href="#DejaVuSans-74" x="752.970703"/>
     <use xlink:href="#DejaVuSans-69" x="792.179688"/>
     <use xlink:href="#DejaVuSans-6e" x="819.962891"/>
     <use xlink:href="#DejaVuSans-67" x="883.341797"/>
     <use xlink:href="#DejaVuSans-20" x="946.818359"/>
     <use xlink:href="#DejaVuSans-63" x="978.605469"/>
     <use xlink:href="#DejaVuSans-68" x="1033.585938"/>
     <use xlink:href="#DejaVuSans-61" x="1096.964844"/>
     <use xlink:href="#DejaVuSans-72" x="1158.244141"/>
     <use xlink:href="#DejaVuSans-61" x="1199.357422"/>
     <use xlink:href="#DejaVuSans-63" x="1260.636719"/>
     <use xlink:href="#DejaVuSans-74" x="1315.617188"/>
     <use xlink:href="#DejaVuSans-65" x="1354.826172"/>
     <use xlink:href="#DejaVuSans-72" x="1416.349609"/>
     <use xlink:href="#DejaVuSans-69" x="1457.462891"/>
     <use xlink:href="#DejaVuSans-73" x="1485.246094"/>
     <use xlink:href="#DejaVuSans-74" x="1537.345703"/>
     <use xlink:href="#DejaVuSans-69" x="1576.554688"/>
     <use xlink:href="#DejaVuSans-63" x="1604.337891"/>
     <use xlink:href="#DejaVuSans-20" x="1659.318359"/>
     <use xlink:href="#DejaVuSans-65" x="1691.105469"/>
     <use xlink:href="#DejaVuSans-78" x="1750.878906"/>
     <use xlink:href="#DejaVuSans-61" x="1810.058594"/>
     <use xlink:href="#DejaVuSans-6d" x="1871.337891"/>
     <use xlink:href="#DejaVuSans-70" x="1968.75"/>
     <use xlink:href="#DejaVuSans-6c" x="2032.226562"/>
     <use xlink:href="#DejaVuSans-65" x="2060.009766"/>
    </g>
   </g>
   <g id="legend_1">
    <g id="patch_7">
     <path d="M 129.435625 283.430125 
L 393.90125 283.430125 
Q 395.90125 283.430125 395.90125 281.430125 
L 395.90125 267.752 
Q 395.90125 265.752 393.90125 265.752 
L 129.435625 265.752 
Q 127.435625 265.752 127.435625 267.752 
L 127.435625 281.430125 
Q 127.435625 283.430125 129.435625 283.430125 
z
" style="fill: #ffffff; opacity: 0.8; stroke: #cccccc; stroke-linejoin: miter"/>
    </g>
    <g id="line2d_14">
     <path d="M 131.435625 273.850437 
L 141.435625 273.850437 
L 151.435625 273.850437 
" style="fill: none; stroke: #ff0000; stroke-opacity: 0.5; stroke-width: 2; stroke-linecap: square"/>
    </g>
    <g id="text_16">
     <!-- ROC curve transformed features (area = 0.75) -->
     <g transform="translate(159.435625 277.350437) scale(0.1 -0.1)">
      <defs>
       <path id="DejaVuSans-4f" d="M 2522 4238 
Q 1834 4238 1429 3725 
Q 1025 3213 1025 2328 
Q 1025 1447 1429 934 
Q 1834 422 2522 422 
Q 3209 422 3611 934 
Q 4013 1447 4013 2328 
Q 4013 3213 3611 3725 
Q 3209 4238 2522 4238 
z
M 2522 4750 
Q 3503 4750 4090 4092 
Q 4678 3434 4678 2328 
Q 4678 1225 4090 567 
Q 3503 -91 2522 -91 
Q 1538 -91 948 565 
Q 359 1222 359 2328 
Q 359 3434 948 4092 
Q 1538 4750 2522 4750 
z
" transform="scale(0.015625)"/>
       <path id="DejaVuSans-43" d="M 4122 4306 
L 4122 3641 
Q 3803 3938 3442 4084 
Q 3081 4231 2675 4231 
Q 1875 4231 1450 3742 
Q 1025 3253 1025 2328 
Q 1025 1406 1450 917 
Q 1875 428 2675 428 
Q 3081 428 3442 575 
Q 3803 722 4122 1019 
L 4122 359 
Q 3791 134 3420 21 
Q 3050 -91 2638 -91 
Q 1578 -91 968 557 
Q 359 1206 359 2328 
Q 359 3453 968 4101 
Q 1578 4750 2638 4750 
Q 3056 4750 3426 4639 
Q 3797 4528 4122 4306 
z
" transform="scale(0.015625)"/>
       <path id="DejaVuSans-66" d="M 2375 4863 
L 2375 4384 
L 1825 4384 
Q 1516 4384 1395 4259 
Q 1275 4134 1275 3809 
L 1275 3500 
L 2222 3500 
L 2222 3053 
L 1275 3053 
L 1275 0 
L 697 0 
L 697 3053 
L 147 3053 
L 147 3500 
L 697 3500 
L 697 3744 
Q 697 4328 969 4595 
Q 1241 4863 1831 4863 
L 2375 4863 
z
" transform="scale(0.015625)"/>
       <path id="DejaVuSans-64" d="M 2906 2969 
L 2906 4863 
L 3481 4863 
L 3481 0 
L 2906 0 
L 2906 525 
Q 2725 213 2448 61 
Q 2172 -91 1784 -91 
Q 1150 -91 751 415 
Q 353 922 353 1747 
Q 353 2572 751 3078 
Q 1150 3584 1784 3584 
Q 2172 3584 2448 3432 
Q 2725 3281 2906 2969 
z
M 947 1747 
Q 947 1113 1208 752 
Q 1469 391 1925 391 
Q 2381 391 2643 752 
Q 2906 1113 2906 1747 
Q 2906 2381 2643 2742 
Q 2381 3103 1925 3103 
Q 1469 3103 1208 2742 
Q 947 2381 947 1747 
z
" transform="scale(0.015625)"/>
       <path id="DejaVuSans-28" d="M 1984 4856 
Q 1566 4138 1362 3434 
Q 1159 2731 1159 2009 
Q 1159 1288 1364 580 
Q 1569 -128 1984 -844 
L 1484 -844 
Q 1016 -109 783 600 
Q 550 1309 550 2009 
Q 550 2706 781 3412 
Q 1013 4119 1484 4856 
L 1984 4856 
z
" transform="scale(0.015625)"/>
       <path id="DejaVuSans-3d" d="M 678 2906 
L 4684 2906 
L 4684 2381 
L 678 2381 
L 678 2906 
z
M 678 1631 
L 4684 1631 
L 4684 1100 
L 678 1100 
L 678 1631 
z
" transform="scale(0.015625)"/>
       <path id="DejaVuSans-37" d="M 525 4666 
L 3525 4666 
L 3525 4397 
L 1831 0 
L 1172 0 
L 2766 4134 
L 525 4134 
L 525 4666 
z
" transform="scale(0.015625)"/>
       <path id="DejaVuSans-35" d="M 691 4666 
L 3169 4666 
L 3169 4134 
L 1269 4134 
L 1269 2991 
Q 1406 3038 1543 3061 
Q 1681 3084 1819 3084 
Q 2600 3084 3056 2656 
Q 3513 2228 3513 1497 
Q 3513 744 3044 326 
Q 2575 -91 1722 -91 
Q 1428 -91 1123 -41 
Q 819 9 494 109 
L 494 744 
Q 775 591 1075 516 
Q 1375 441 1709 441 
Q 2250 441 2565 725 
Q 2881 1009 2881 1497 
Q 2881 1984 2565 2268 
Q 2250 2553 1709 2553 
Q 1456 2553 1204 2497 
Q 953 2441 691 2322 
L 691 4666 
z
" transform="scale(0.015625)"/>
       <path id="DejaVuSans-29" d="M 513 4856 
L 1013 4856 
Q 1481 4119 1714 3412 
Q 1947 2706 1947 2009 
Q 1947 1309 1714 600 
Q 1481 -109 1013 -844 
L 513 -844 
Q 928 -128 1133 580 
Q 1338 1288 1338 2009 
Q 1338 2731 1133 3434 
Q 928 4138 513 4856 
z
" transform="scale(0.015625)"/>
      </defs>
      <use xlink:href="#DejaVuSans-52"/>
      <use xlink:href="#DejaVuSans-4f" x="69.482422"/>
      <use xlink:href="#DejaVuSans-43" x="148.193359"/>
      <use xlink:href="#DejaVuSans-20" x="218.017578"/>
      <use xlink:href="#DejaVuSans-63" x="249.804688"/>
      <use xlink:href="#DejaVuSans-75" x="304.785156"/>
      <use xlink:href="#DejaVuSans-72" x="368.164062"/>
      <use xlink:href="#DejaVuSans-76" x="409.277344"/>
      <use xlink:href="#DejaVuSans-65" x="468.457031"/>
      <use xlink:href="#DejaVuSans-20" x="529.980469"/>
      <use xlink:href="#DejaVuSans-74" x="561.767578"/>
      <use xlink:href="#DejaVuSans-72" x="600.976562"/>
      <use xlink:href="#DejaVuSans-61" x="642.089844"/>
      <use xlink:href="#DejaVuSans-6e" x="703.369141"/>
      <use xlink:href="#DejaVuSans-73" x="766.748047"/>
      <use xlink:href="#DejaVuSans-66" x="818.847656"/>
      <use xlink:href="#DejaVuSans-6f" x="854.052734"/>
      <use xlink:href="#DejaVuSans-72" x="915.234375"/>
      <use xlink:href="#DejaVuSans-6d" x="954.597656"/>
      <use xlink:href="#DejaVuSans-65" x="1052.009766"/>
      <use xlink:href="#DejaVuSans-64" x="1113.533203"/>
      <use xlink:href="#DejaVuSans-20" x="1177.009766"/>
      <use xlink:href="#DejaVuSans-66" x="1208.796875"/>
      <use xlink:href="#DejaVuSans-65" x="1244.001953"/>
      <use xlink:href="#DejaVuSans-61" x="1305.525391"/>
      <use xlink:href="#DejaVuSans-74" x="1366.804688"/>
      <use xlink:href="#DejaVuSans-75" x="1406.013672"/>
      <use xlink:href="#DejaVuSans-72" x="1469.392578"/>
      <use xlink:href="#DejaVuSans-65" x="1508.255859"/>
      <use xlink:href="#DejaVuSans-73" x="1569.779297"/>
      <use xlink:href="#DejaVuSans-20" x="1621.878906"/>
      <use xlink:href="#DejaVuSans-28" x="1653.666016"/>
      <use xlink:href="#DejaVuSans-61" x="1692.679688"/>
      <use xlink:href="#DejaVuSans-72" x="1753.958984"/>
      <use xlink:href="#DejaVuSans-65" x="1792.822266"/>
      <use xlink:href="#DejaVuSans-61" x="1854.345703"/>
      <use xlink:href="#DejaVuSans-20" x="1915.625"/>
      <use xlink:href="#DejaVuSans-3d" x="1947.412109"/>
      <use xlink:href="#DejaVuSans-20" x="2031.201172"/>
      <use xlink:href="#DejaVuSans-30" x="2062.988281"/>
      <use xlink:href="#DejaVuSans-2e" x="2126.611328"/>
      <use xlink:href="#DejaVuSans-37" x="2158.398438"/>
      <use xlink:href="#DejaVuSans-35" x="2222.021484"/>
      <use xlink:href="#DejaVuSans-29" x="2285.644531"/>
     </g>
    </g>
   </g>
  </g>
 </g>
 <defs>
  <clipPath id="p1b1853999e">
   <rect x="43.78125" y="22.318125" width="357.12" height="266.112"/>
  </clipPath>
 </defs>
</svg>
